<svg id="Layer_1" data-name="Layer 1" xmlns="http://www.w3.org/2000/svg" viewBox="0 0 1325.14 1612.83"><defs><style>.cls-1{fill:#231f20;}</style></defs><path class="cls-1" d="M321,706.45q-5.55-9.45-16.6-16.53A81.62,81.62,0,0,0,250,679.38q-12.9,2.45-21.57,9.14a57.56,57.56,0,0,0-14.23,15.88,61.35,61.35,0,0,0-7.7,20.28l-7.36,38,121.44,23.49,7.35-38a61,61,0,0,0,.42-21.7A57.42,57.42,0,0,0,321,706.45Zm-15.33,44.82-1.61,8.32-79.8-15.44,1.61-8.33q3.09-16,13.11-25.9,11.43-11.64,34.68-7.14t29.51,19.56Q308.79,735.3,305.71,751.27Z"/><polygon class="cls-1" points="372.78 587.24 344.92 635.02 315.46 617.85 337.08 580.75 318.77 570.07 297.14 607.17 274.7 594.09 301.67 547.83 283.35 537.15 244.81 603.25 351.68 665.54 391.1 597.92 372.78 587.24"/><path class="cls-1" d="M413.47,470.73a30,30,0,0,0,13.17,4.67,67.2,67.2,0,0,0,12.64.4q5.4-.41,12.83-1.6,19.67-3.36,24.81,4.67,8.67,13.53-4.86,22.21-14.73,9.44-34.22-7.88L428.51,513A43.4,43.4,0,0,0,454.2,526a42.18,42.18,0,0,0,28.85-6.73q15.31-9.81,18.75-24.29t-6.21-29.5a31.29,31.29,0,0,0-9.84-9.95,28.67,28.67,0,0,0-13.23-4.12,103,103,0,0,0-12.67-.28,125.51,125.51,0,0,0-13.14,1.6q-20.38,2.56-25.53-5.46a10.72,10.72,0,0,1-1.56-8.66,11.83,11.83,0,0,1,5.43-7.25q8.77-5.62,21.48,1.76l9.24-20q-21-13.17-42.16.36-12.21,7.82-15.14,21.25a32.72,32.72,0,0,0,4.83,25.23A33.19,33.19,0,0,0,413.47,470.73Z"/><path class="cls-1" d="M549.21,471.66q14.88,9.19,35.82,4.08T615,455.61q9-15,3.4-37.85l-18.19-74.5-22.31,5.45,18.27,74.85q6.38,26.08-16.12,31.58t-28.85-20.6l-18.28-74.85-22.31,5.45,18.19,74.5Q534.32,462.47,549.21,471.66Z"/><path class="cls-1" d="M687.59,411.39l11.95,1.2L727.25,469l25.49,2.56-28.57-58.46a30.82,30.82,0,0,0,18.27-10.33q6.85-8.1,8.09-20.41,1.62-16-7.28-26.48T716.6,343.63l-44.83-4.52L659.39,462.18l22.85,2.3Zm4.92-48.88,22.15,2.23q14.42,1.45,13,15.34t-15.82,12.44l-22.15-2.23Z"/><polygon class="cls-1" points="818.71 441.79 859.34 460 868.01 440.65 827.38 422.44 838.94 396.64 889.41 419.26 898.08 399.91 826.65 367.9 776.06 480.77 797.02 490.17 818.71 441.79"/><path class="cls-1" d="M904.85,560.78q14.11,13.1,28.63,13.3t26.65-12.89q15.25-16.46,6.93-34.77a20.75,20.75,0,0,0,12.8-.55A29.17,29.17,0,0,0,991.5,518q11.06-11.92,10-24.58t-13.22-23.94l-33.18-30.75L871,529.43Zm52.69-90.89,15,13.93q5.7,5.28,6.19,10.08t-4.31,10q-4.8,5.19-9.56,5.11t-10.2-5.11l-15.42-14.3Zm-17.25,49.54q14.64,13.58,3.35,25.75t-25.93-1.39L902.29,529.5l22.58-24.37Z"/><path class="cls-1" d="M1034.84,670.46,1103,635.31l-10.53-20.42L1024,650.2q-23.88,12.31-34.48-8.26t13.26-32.88l68.47-35.31-10.53-20.42-68.16,35.15q-20.88,10.77-26.33,27.4t4.44,35.78q9.89,19.15,26.58,24.37T1034.84,670.46Z"/><path class="cls-1" d="M1129.75,737.42q-2.18-14.32-13.24-22.48a32.81,32.81,0,0,0-25-5.85,33.2,33.2,0,0,0-14,4.9,30,30,0,0,0-9.63,10.13,67.24,67.24,0,0,0-5.51,11.38q-1.81,5.12-3.75,12.37-4.93,19.33-14.36,20.77-15.9,2.42-18.32-13.48-2.62-17.29,21.12-28l-14.32-16.59a43.44,43.44,0,0,0-22.25,18.21,42.15,42.15,0,0,0-5.59,29.09q2.73,18,14.56,27t29.47,6.33a31.3,31.3,0,0,0,13.1-4.93,28.79,28.79,0,0,0,9.14-10.42,102.55,102.55,0,0,0,5.41-11.46,122.76,122.76,0,0,0,3.89-12.65q5.94-19.66,15.38-21.1a10.7,10.7,0,0,1,8.54,2.09,11.89,11.89,0,0,1,4.42,7.91q1.56,10.3-10.36,18.91l14.5,16.57Q1133.51,762.22,1129.75,737.42Z"/><polygon class="cls-1" points="502.64 1151.12 488.94 1114.82 476.81 1114.82 476.81 1172.96 487.61 1172.96 487.61 1137.08 498.74 1167.64 506.55 1167.64 517.67 1137.08 517.67 1172.96 528.47 1172.96 528.47 1114.82 516.35 1114.82 502.64 1151.12"/><path class="cls-1" d="M577.8,1114.16a29.32,29.32,0,0,0-13.62,3.16,23.43,23.43,0,0,0-10,10.13,34,34,0,0,0-3.77,16.44q0,9.81,3.82,16.61,7.47,13.13,23.58,13.12a29.67,29.67,0,0,0,13.62-3.07,24.43,24.43,0,0,0,10-10.26,33.76,33.76,0,0,0,3.78-16.4q0-9.72-3.9-16.61Q594.08,1114.16,577.8,1114.16Zm11.71,44.51a15.15,15.15,0,0,1-11.71,5,15.57,15.57,0,0,1-11.79-5q-4.65-5.06-4.65-14.78t4.65-14.78a15.6,15.6,0,0,1,11.79-5,15.17,15.17,0,0,1,11.71,5q4.74,5,4.74,14.78T589.51,1158.67Z"/><path class="cls-1" d="M662.93,1137a13.68,13.68,0,0,0,1.49-6.44q0-7.63-4.4-11.67t-12.21-4H626.55V1173h21.68q9,0,14.12-4.57t5.06-13q0-10.56-8.72-14.21A9.72,9.72,0,0,0,662.93,1137Zm-25.58-12.17H647c2.44,0,4.22.5,5.36,1.5s1.7,2.6,1.7,4.81-.55,3.82-1.66,4.82-2.82,1.49-5.15,1.49h-9.88Zm9.88,38.2h-9.88v-15.61h9.88q9.39,0,9.39,7.81T647.23,1163Z"/><rect class="cls-1" x="688.43" y="1114.82" width="10.8" height="58.14"/><polygon class="cls-1" points="758.68 1124.79 758.68 1114.82 722.72 1114.82 722.72 1172.96 759.51 1172.96 759.51 1162.99 733.52 1162.99 733.52 1146.96 753.7 1146.96 753.7 1137 733.52 1137 733.52 1124.79 758.68 1124.79"/><polygon class="cls-1" points="781.03 1114.82 781.03 1172.96 816.49 1172.96 816.49 1162.99 791.82 1162.99 791.82 1114.82 781.03 1114.82"/><polygon class="cls-1" points="873.79 1124.79 873.79 1114.82 837.83 1114.82 837.83 1172.96 874.62 1172.96 874.62 1162.99 848.63 1162.99 848.63 1146.96 868.81 1146.96 868.81 1137 848.63 1137 848.63 1124.79 873.79 1124.79"/><path class="cls-1" d="M394.68,1240.4a48,48,0,0,0-4.94-3.32,58.39,58.39,0,0,0-5.61-2.7q-8.72-4.16-8.72-8.64a5,5,0,0,1,1.58-3.82,5.59,5.59,0,0,1,4-1.49q4.89,0,8,6.14l8.72-5.56q-5-10.54-16.77-10.55a15.48,15.48,0,0,0-15.87,15.78,15.72,15.72,0,0,0,1.29,6.85,14,14,0,0,0,4,5.19,31.39,31.39,0,0,0,4.9,3.37q2.24,1.2,5.48,2.61,8.64,3.66,8.64,8.14,0,7.56-7.56,7.56-8.22,0-11.54-11.79l-8.72,5.48a20.42,20.42,0,0,0,6.89,11.63,19.82,19.82,0,0,0,13.12,4.65q8.55,0,13.58-4.86t5-13.25a14.61,14.61,0,0,0-1.37-6.43A13.41,13.41,0,0,0,394.68,1240.4Z"/><path class="cls-1" d="M463.86,1247.17v-36h-10.8v36.21q0,12.62-10.88,12.62t-10.88-12.62v-36.21H420.51v36q0,11,5.77,16.9t15.9,5.86q10.14,0,15.91-5.86T463.86,1247.17Z"/><path class="cls-1" d="M521.74,1237.58a17.06,17.06,0,0,0,2.83-9.93q0-7.55-4.65-12t-13-4.48H485.7v58.13h10.8v-25.08h5.64l15.62,25.08h12l-16.11-26A14.45,14.45,0,0,0,521.74,1237.58ZM507,1234.21H496.5v-13.12H507q6.81,0,6.81,6.56T507,1234.21Z"/><polygon class="cls-1" points="549.07 1269.26 559.86 1269.26 559.86 1244.35 580.79 1244.35 580.79 1234.38 559.86 1234.38 559.86 1221.09 585.86 1221.09 585.86 1211.13 549.07 1211.13 549.07 1269.26"/><path class="cls-1" d="M622.9,1260q-8.22,0-11.54-11.79l-8.73,5.48a20.49,20.49,0,0,0,6.9,11.63,19.82,19.82,0,0,0,13.12,4.65q8.55,0,13.58-4.86t5-13.25a14.61,14.61,0,0,0-1.37-6.43,13.41,13.41,0,0,0-4.19-5,48,48,0,0,0-4.94-3.32,58.39,58.39,0,0,0-5.61-2.7q-8.71-4.16-8.72-8.64a5,5,0,0,1,1.58-3.82,5.59,5.59,0,0,1,4-1.49q4.89,0,8,6.14l8.72-5.56q-5-10.54-16.77-10.55a15.48,15.48,0,0,0-15.87,15.78,15.72,15.72,0,0,0,1.29,6.85,14,14,0,0,0,4,5.19,31.39,31.39,0,0,0,4.9,3.37q2.24,1.2,5.48,2.61,8.64,3.66,8.64,8.14Q630.46,1260,622.9,1260Z"/><path class="cls-1" d="M668.49,1218.35q-8,7.82-8,21.84t8,21.85a26.87,26.87,0,0,0,19.52,7.89q9.47,0,15.74-4.61a22.1,22.1,0,0,0,8.34-13l-9.71-2.49Q698.46,1260,688,1260a15.58,15.58,0,0,1-11.88-5.07q-4.65-5.15-4.65-14.7t4.65-14.7a15.61,15.61,0,0,1,11.88-5.06q10.46,0,14.37,10.13l9.71-2.49a22.07,22.07,0,0,0-8.34-13q-6.29-4.6-15.74-4.61A26.87,26.87,0,0,0,668.49,1218.35Z"/><polygon class="cls-1" points="778.03 1269.26 778.03 1211.13 767.24 1211.13 767.24 1233.22 743.99 1233.22 743.99 1211.13 733.19 1211.13 733.19 1269.26 743.99 1269.26 743.99 1243.18 767.24 1243.18 767.24 1269.26 778.03 1269.26"/><path class="cls-1" d="M814.33,1213.62a23.43,23.43,0,0,0-10,10.13,34,34,0,0,0-3.78,16.44q0,9.81,3.82,16.61,7.47,13.13,23.59,13.13a29.67,29.67,0,0,0,13.62-3.08,24.52,24.52,0,0,0,10-10.25,33.91,33.91,0,0,0,3.77-16.41q0-9.7-3.9-16.61-7.23-13.11-23.5-13.12A29.29,29.29,0,0,0,814.33,1213.62Zm30.06,26.57q0,9.81-4.73,14.79a15.19,15.19,0,0,1-11.71,5,15.62,15.62,0,0,1-11.8-5q-4.65-5.07-4.65-14.79t4.65-14.78a15.62,15.62,0,0,1,11.8-5,15.19,15.19,0,0,1,11.71,5Q844.39,1230.39,844.39,1240.19Z"/><path class="cls-1" d="M903.36,1210.46a29.26,29.26,0,0,0-13.62,3.16,23.38,23.38,0,0,0-10,10.13,34,34,0,0,0-3.78,16.44q0,9.81,3.82,16.61,7.47,13.13,23.59,13.13a29.73,29.73,0,0,0,13.62-3.08,24.5,24.5,0,0,0,10-10.25,33.8,33.8,0,0,0,3.78-16.41q0-9.7-3.9-16.61Q919.63,1210.47,903.36,1210.46ZM915.07,1255a15.19,15.19,0,0,1-11.71,5,15.62,15.62,0,0,1-11.8-5q-4.65-5.07-4.65-14.79t4.65-14.78a15.62,15.62,0,0,1,11.8-5,15.19,15.19,0,0,1,11.71,5q4.73,5,4.73,14.78T915.07,1255Z"/><polygon class="cls-1" points="962.9 1211.13 952.11 1211.13 952.11 1269.26 987.57 1269.26 987.57 1259.3 962.9 1259.3 962.9 1211.13"/><path class="cls-1" d="M669,519.22h-1.63C514.62,519.22,390.8,643,390.8,795.78s123.82,276.56,276.56,276.56h.25c152.13,0,276.58-123.53,276.77-274.78C944.57,643.85,821.36,519.32,669,519.22ZM887.8,644a264.4,264.4,0,0,1,34.25,69.29c-2.6.15-4.49.32-6.36.32q-89.38,0-178.77,0a8.89,8.89,0,0,1-8.33-11.81c.52-1.48,2.91-2.62,4.68-3.27q35.36-13.05,70.79-25.9c25.88-9.44,51.8-18.77,77.63-28.36C884.24,643.29,886.13,643.09,887.8,644Zm-54.57-58.22a270.94,270.94,0,0,1,47.71,48.75c.09.2.17.39.27.6-1.83.88-3.39,1.81-5.07,2.42-48.63,17.67-97.32,35.17-145.85,53.12-6.51,2.41-6.89-2.2-9.32-5.29-2.86-3.64-1.3-5.7,1.7-8.21q53.12-44.45,106.07-89.08C830.22,586.81,831.55,585.61,833.23,585.74ZM715.75,713.59h-48c-16,0-32-.11-48,.08-4.59.05-5.72-1.42-5-5.92,3.81-24.57,27.81-44.55,53.56-44.31s49.22,20.63,52.64,45.4C721.58,713.64,719,713.59,715.75,713.59Zm55.13-164.73q5.21,2.17,10.32,4.58,18.63,10.68,37.24,21.39,3.13,2.14,6.22,4.4c.18.25.37.52.61.83-11,9.3-21.68,18.3-32.36,27.25q-37.67,31.61-75.37,63.16c-3.84,3.22-12.83.23-13.86-4.77-.25-1.21.62-2.83,1.33-4.06q31.47-54.72,63-109.39C768.85,550.86,769.64,549.39,770.88,548.86ZM706.44,531c4,.58,7.94,1.26,11.88,2q16.44,4.29,32.9,8.51,4.77,1.57,9.46,3.33c.89,1.14.63,2.72-.71,5q-31.32,53.85-62.38,107.86c-1.55,2.69-3.31,4.18-6.19,2.35s-8.43-.54-8.35-5.32c3.43-19.44,6.68-37.77,9.9-56.1,3.66-20.9,7.38-41.79,10.89-62.72C704.26,533.43,705,531.7,706.44,531Zm-66.07-1.48q13.36-1.34,27-1.34a271.93,271.93,0,0,1,27.91,1.44c.87,1,1.12,2.54.66,5.09q-10.56,57.87-20.45,115.87c-.7,4.08-2.54,5.36-6.36,4.89s-7.91,1.65-9-5c-6.56-38.67-13.54-77.27-20.54-115.86C639.09,532.13,639.36,530.52,640.37,529.51ZM628.54,531c1.65.58,2.57,2.17,3.05,5,4.73,27.72,9.7,55.39,14.58,83.07,1.93,11,3.8,22,5.8,33,.55,3,.72,5.83-3.18,6.32-3.63.46-7.33,5.67-10.95-.64q-31.43-54.75-63.12-109.36a24.78,24.78,0,0,1-1.23-3.28A265.15,265.15,0,0,1,628.54,531Zm-99.83,35.83c8.07-4.51,16.25-8.81,24.41-13.16q5.29-2.5,10.69-4.76c1.27.19,2.33,1.1,3.35,2.87Q598.84,607,630.75,662.05c1.47,2.55,1.35,4.27-1.06,6.17-9,7-6.1,6.92-13.87.43q-51-42.58-101.88-85.38l-4.39-3.67Q518.88,572.76,528.71,566.79Zm-72,63.92c1.27-1.6,2.55-3.2,3.85-4.78.35-.4.69-.8,1.06-1.18,11.82-12,23.81-23.75,35.71-35.62,1.22-1,2.46-2,3.7-3,1.72-.68,3.39-.12,5.35,1.54q53.35,45,106.87,89.83c2.65,2.21,4.18,4.25,1.48,7.34-2.44,2.81-2.25,8.39-9.08,5.87-49.06-18.09-98.26-35.8-147.41-53.65-1.19-.43-2.29-1.11-4.64-2.27C454.7,633.38,455.71,632,456.69,630.71ZM418.44,697.2c.26-.58.5-1.18.79-1.75,8.28-16.24,17-32.25,25.54-48.35.58-.86,1.18-1.72,1.77-2.58,1.48-1.45,3.35-1.65,6.16-.62q74.15,27.2,148.42,54.1c6,2.19,7.91,8.65,4.15,14a4.91,4.91,0,0,1-2.76,1.46,14.26,14.26,0,0,1-3.34.12q-89.64,0-179.27,0c-2,0-3.94-.22-7.19-.42Q415.32,705.08,418.44,697.2ZM401.15,821.67c-.44-4-.64-8-.86-12,23.75,0,88.79,0,109.26,0,3,0,6-.13,8.95.06,6.74.43,10.25,3,10.32,7.78.09,5.36-3.07,8.07-8,9.13-2.92.61-5.8,1.35-8.71,2-10.88,2.5-21.85,4.67-32.63,7.57-9.75,2.62-15,10.58-14.28,20s7.76,16.33,17.47,17.27c3,.29,6,.14,8.94.14H657c0,5.35.14,10.7.05,16-.07,4.57,1,5.6,5.59,5.63,6.47.05,20.49.16,27,.05,2.65-.05,4.22.57,5.32,3.38a18.28,18.28,0,0,0,8,9.55H424.7Q406.36,868.65,401.15,821.67Zm436.44-10.19a21.82,21.82,0,0,1,14.93,5.27c1.06.91,2.37,1.74,2.5,3.35a1.7,1.7,0,0,1-1.38.75q-79.2,0-158.41,0a2.14,2.14,0,0,1-1.89-.91c1-2.78,3-5,4.75-7.46a2.57,2.57,0,0,1,2.08-1c1.06,0,2.11-.06,3.17-.06Q770.47,811.51,837.59,811.48Zm-104.11-9.27c0-1.45,0-2.9,0-4.35a2,2,0,0,1,2.18-2.25c1.05-.05,2.11-.07,3.16-.07q30.85,0,61.69,0c5.14,0,5.33.23,5.15,5.36-.12,3.34-.33,3.64-3.66,3.66-10.81,0-23.31,0-34.12,0H739.14c-1,0-2.11,0-3.16,0C734.4,804.56,733.49,803.86,733.48,802.21Zm-33.24,89.52a12.46,12.46,0,0,1,12.16-12.14,12,12,0,0,1,12.46,12.09,12.46,12.46,0,0,1-12.23,12.48A12.69,12.69,0,0,1,700.24,891.73Zm30,7c1.12-2.81,2.68-3.41,5.33-3.39,13.07.08,26.14,0,39.22,0,8.45,0,16.9.08,25.35,0,2.69,0,4.4.54,5.25,3.45a15.82,15.82,0,0,0,5.74,7.89,20,20,0,0,0,2.4,1.6H722.34A18.31,18.31,0,0,0,730.22,898.75Zm92.8,5.38a12.34,12.34,0,0,1-12.2-12,12,12,0,0,1,12-12.5,12.36,12.36,0,0,1,12.54,12.12A12.6,12.6,0,0,1,823,904.13Zm5.67-30.51A19,19,0,0,0,805.62,884c-.43,1-.76,2-1.14,3a2.19,2.19,0,0,1-2.1,1.51c-1.06,0-2.11.07-3.17.07H737c-5.37,0-5.38,0-5.39-5.53q0-13.66,0-27.32c0-5.17,0-5.2,5.37-5.2H854.25c5.9,0,5.91,0,5.91,5.93q0,13.47,0,26.93c0,5.17,0,5.18-5.35,5.19-3.17,0-6.34-.1-9.51,0-2.32.09-3.53-.78-4.32-3A18.27,18.27,0,0,0,828.69,873.62Zm-97.06-41.38c0-4.69.08-4.74,5-4.77,3.95,0,7.9,0,11.85,0,9.09,0,18.18,0,27.26,0,4.23,0,4.41.23,4.46,4.49,0,2.51,0,5,0,7.51,0,4.4-.19,4.56-4.79,4.58-6.45,0-12.9,0-19.35,0-6.72,0-13.44,0-20.15,0-4,0-4.19-.27-4.24-4.31C731.6,837.24,731.61,834.74,731.63,832.24Zm55.07-.94c.1-3.44.44-3.78,4-3.81,7.66,0,15.31,0,23,0,5.94,0,11.87,0,17.81,0,3.55,0,3.9.38,4,3.83.09,3,.09,6.07,0,9.1s-.53,3.59-3.81,3.62c-7,.06-14,0-21,0-6.59,0-13.19,0-19.79,0-3.77,0-4.1-.38-4.19-4C786.62,837.11,786.61,834.2,786.7,831.3Zm73.36,10.36c0,1.62-1.09,2.31-2.61,2.34-2.23,0-4.47,0-6.71,0v0h-5.92c-1.71,0-2.78-.71-2.78-2.55,0-3.82,0-7.63,0-11.45,0-1.85,1.09-2.53,2.8-2.53,3.95,0,7.9,0,11.84,0a2.82,2.82,0,0,1,3.18,2.75A68.06,68.06,0,0,1,860.06,841.66ZM721.49,827.51c2.87,0,3.2.41,3.28,3.22.09,3.29.08,6.58,0,9.87-.06,3-.4,3.39-3.48,3.43-6.71.08-13.43,0-20.14,0v0H682.59a25.37,25.37,0,0,1-2.76-.1c-1.32-.13-2-.83-1.33-2.14A79.69,79.69,0,0,1,687,828.56c.79-1.06,2.05-1.07,3.25-1.07C700.69,827.48,711.09,827.45,721.49,827.51Zm-43.07,23,21.37,0c7,0,14,0,21,0,1.38,0,4.06-.49,4.06,1.38,0,6.72-.21,13.28,0,19.74,0,1.24,0,3.24-.56,3.82-1.42,1.41-3.27-1-4.92-1.57a18.73,18.73,0,0,0-24.19,10.58c-1.31,3.38-3,4.32-6.39,4.14-4.73-.25-17-.15-21.79-.13-1.84,0-3.08-.55-3.05-2.67.18-10.61-.12-20.76,2-31.05C666.62,851.45,672.88,850.55,678.42,850.55ZM815.25,1018.9q-10.83,7.2-22.26,13.3c-32,17-68.55,26.44-104.57,29.11a279.91,279.91,0,0,1-108.17-13.12,253.43,253.43,0,0,1-66.46-33.25H816C818.35,1014.94,822.23,1014.63,815.25,1018.9Zm51.82-45a304.3,304.3,0,0,1-34.63,32.43H503a296.25,296.25,0,0,1-40.22-38.84H872.54C870.74,969.64,869,971.8,867.07,973.9Zm12.4-15H455.68a257.81,257.81,0,0,1-26.78-42H906.06A267,267,0,0,1,879.47,958.88Zm30.77-50.59H832.42a18.88,18.88,0,0,0,8.09-9.23c1.15-2.77,2.53-3.85,5.5-3.73,5.14.22,10.3.11,15.45,0,4.22-.06,5.16-1,5.17-5.18,0-5.52,0-11,0-16.55H874c10.08,0,35.47-.08,49.47,0A264.58,264.58,0,0,1,910.24,908.29ZM921,862.82H866.63q0-15.63,0-31.24a23,23,0,0,0-2.06-9.62c-5-11-13.78-16.78-25.8-17.24-7.91-.31-14.14-.05-22.07-.09-4,0-4.16-.22-4.19-4.33v-.79c.09-3.64.25-3.76,3.78-4,6.07-.39,12.14.41,18.21.43,1.18,0,2.37,0,3.56-.08,1.43-.07,2-.89,2.21-2.28.38-3.15-.31-3.26-3.54-3.37-1.05,0-2.11,0-3.16,0l-3.34-.05c-.72-1.37-2-5.13,3.65-8.24,3.52-2,2.69-5.1-3.18-4.24-7.23,1.06-11.57,9.59-12.75,12.23l-21.36-.49c-20.73-.07-41.46,0-62.19,0-10.69,0-5.54,0-16.23.07-3.16,0-22.6.33-22.34,3.37.18,2.21.58,2.62,3.46,2.66,6.6.07,16.23-.4,22.84-.35,4.28,0,4.46.26,4.48,4.47,0,.4,0,.79,0,1.19-.11,3.51-.29,3.73-3.93,3.78-4.36,0-10.42,0-14.77,0-3.83,0-8.67-.15-12.39.6-3.91.79-7.46,8.33-9.43,11.43-3.06,4.85-6,9.78-9.19,14.55-2.77,4.12-5.92,12.84-11.22,14.77-7.35,2.67-7.2,10-8,16.4,0,.14,0,.28,0,.43H492.77c-3.36,0-6.73.08-10.06-.23-4.35-.4-6.55-3.4-7-7.4a7.3,7.3,0,0,1,4.88-8,67,67,0,0,1,9.66-2.7c11.59-2.72,23.29-5.06,34.79-8.12,9.74-2.59,15.53-10.94,14.69-19.8A18.73,18.73,0,0,0,521,799.26c-24.4-.3-91.39-.16-121.25-.11a16.48,16.48,0,0,1,0-3.58q0-6.06.28-12.08s0-.06,0-.09a2.26,2.26,0,0,1,0-.26c.08-1.7.19-3.4.32-5.1l-.06,0a268.69,268.69,0,0,1,6.29-42.91l.26-.19c.67-2.83,1.33-5.67,1.92-8.52.68-3.35,2.55-4.74,5.87-4.55,1.67.09,3.35,0,5,0H916c5.29,0,7.66,0,9.1,1.57a269.72,269.72,0,0,1,1.36,139.44C924.66,862.85,922.85,862.82,921,862.82Z"/><path class="cls-1" d="M813.26,782.23c-.81,0-1.63,0-2.45,0l-3.14-.05c-.46-.94-1.13-3.28,2.39-5.23,2.27-1.25,1.73-3.28-2-2.72-4.57.67-7.36,6-8.17,7.79l-6.81-.16c-.42-1.08-.65-3.15,2.52-4.91,2.27-1.25,1.73-3.28-2-2.72-4.32.63-7,5.43-8,7.46l-3.22-.07c-3.92-.1-64.4-1.46-64,2.65.14,1.71.45,2,2.67,2.05,9.37.11,18.74-.5,28.11-.51,20.65,0,41.73.77,62.53.84.92,0,1.84,0,2.76-.06,1.1-.06,1.57-.69,1.7-1.76C816.29,782.4,815.76,782.31,813.26,782.23Z"/><path class="cls-1" d="M712.63,896.73a5,5,0,0,0,4.84-4.76,4.72,4.72,0,0,0-4.88-5,4.89,4.89,0,0,0-4.89,4.66A5,5,0,0,0,712.63,896.73Z"/><path class="cls-1" d="M823.17,887a4.61,4.61,0,0,0-4.93,4.55,4.85,4.85,0,0,0,4.78,5.2,4.74,4.74,0,0,0,4.72-4.84A4.6,4.6,0,0,0,823.17,887Z"/></svg>