<svg id="Layer_1" data-name="Layer 1" xmlns="http://www.w3.org/2000/svg" viewBox="0 0 1364.37 1612.83"><defs><style>.cls-1{fill:#231f20;}.cls-2{fill:#fff;}</style></defs><rect class="cls-1" width="1364.37" height="1612.83"/><rect class="cls-2" x="474.67" y="1250.1" width="433.02" height="86.65"/><path class="cls-2" d="M338.5,643.42Q333,634,321.9,626.89a81.62,81.62,0,0,0-54.47-10.54q-12.9,2.45-21.57,9.14a57.56,57.56,0,0,0-14.23,15.88,61.35,61.35,0,0,0-7.7,20.28l-7.36,38L338,723.14l7.35-38a61,61,0,0,0,.42-21.7A57.42,57.42,0,0,0,338.5,643.42Zm-15.33,44.81-1.61,8.33-79.8-15.44,1.61-8.33q3.09-16,13.11-25.9,11.43-11.64,34.68-7.15t29.51,19.57Q326.27,672.27,323.17,688.23Z"/><polygon class="cls-2" points="390.24 524.21 362.38 571.99 332.92 554.81 354.55 517.72 336.23 507.04 314.6 544.13 292.16 531.05 319.13 484.8 300.81 474.12 262.27 540.22 369.14 602.51 408.56 534.88 390.24 524.21"/><path class="cls-2" d="M430.93,407.7a30,30,0,0,0,13.17,4.67,67.2,67.2,0,0,0,12.64.4q5.4-.4,12.83-1.6,19.67-3.36,24.81,4.67,8.67,13.53-4.86,22.21-14.73,9.43-34.22-7.88L446,450a43.4,43.4,0,0,0,25.69,12.92,42.18,42.18,0,0,0,28.85-6.73q15.32-9.82,18.75-24.29t-6.2-29.5a31.45,31.45,0,0,0-9.85-10A28.78,28.78,0,0,0,490,388.33a103,103,0,0,0-12.67-.28,123.16,123.16,0,0,0-13.14,1.6q-20.39,2.57-25.53-5.46a10.72,10.72,0,0,1-1.56-8.66,11.83,11.83,0,0,1,5.43-7.25q8.78-5.62,21.48,1.76l9.24-20q-21-13.17-42.16.36-12.21,7.81-15.14,21.24a32.78,32.78,0,0,0,4.83,25.24A33.3,33.3,0,0,0,430.93,407.7Z"/><path class="cls-2" d="M566.67,408.63q14.88,9.19,35.83,4.08t29.91-20.13q9-15,3.4-37.85l-18.19-74.5-22.31,5.45,18.27,74.84q6.38,26.1-16.11,31.59t-28.86-20.6l-18.28-74.85L528,302.11l18.19,74.5Q551.79,399.44,566.67,408.63Z"/><path class="cls-2" d="M705.05,348.36l12,1.2L744.71,406l25.49,2.57-28.57-58.46a30.82,30.82,0,0,0,18.27-10.33q6.86-8.1,8.09-20.41,1.62-16-7.28-26.48T734.07,280.6l-44.84-4.52L676.85,399.15l22.85,2.3ZM710,299.48l22.15,2.23q14.42,1.46,13,15.34t-15.82,12.44l-22.15-2.23Z"/><polygon class="cls-2" points="836.17 378.76 876.8 396.97 885.47 377.62 844.84 359.41 856.4 333.61 906.87 356.23 915.54 336.88 844.11 304.87 793.52 417.74 814.49 427.13 836.17 378.76"/><path class="cls-2" d="M922.31,497.75q14.12,13.1,28.63,13.3t26.65-12.89q15.25-16.46,6.93-34.77a20.74,20.74,0,0,0,12.8-.55A29.17,29.17,0,0,0,1009,455Q1020,443,1019,430.38t-13.22-23.94l-33.18-30.75L888.48,466.4Zm52.7-90.9,15,13.94q5.7,5.28,6.19,10.08t-4.31,10q-4.8,5.17-9.56,5.11t-10.19-5.11l-15.42-14.3ZM957.75,456.4q14.64,13.58,3.35,25.75t-25.93-1.39l-15.42-14.29,22.58-24.37Z"/><path class="cls-2" d="M1052.3,607.43l68.16-35.15-10.53-20.42-68.47,35.31q-23.88,12.32-34.48-8.26T1020.24,546l68.47-35.32-10.53-20.41L1010,525.45q-20.89,10.77-26.33,27.4t4.43,35.78Q998,607.79,1014.72,613T1052.3,607.43Z"/><path class="cls-2" d="M1147.21,674.39Q1145,660.05,1134,651.91a32.8,32.8,0,0,0-25-5.85,33.2,33.2,0,0,0-14,4.9,30,30,0,0,0-9.63,10.13,67.24,67.24,0,0,0-5.51,11.38q-1.82,5.1-3.75,12.37-4.93,19.33-14.36,20.77-15.9,2.42-18.32-13.48-2.62-17.29,21.12-28l-14.31-16.6a43.49,43.49,0,0,0-22.26,18.22,42.15,42.15,0,0,0-5.59,29.09q2.73,18,14.56,27t29.47,6.33a31.18,31.18,0,0,0,13.1-4.94,28.59,28.59,0,0,0,9.14-10.41,102.55,102.55,0,0,0,5.41-11.46,120.32,120.32,0,0,0,3.89-12.65q5.94-19.67,15.38-21.11a10.74,10.74,0,0,1,8.54,2.1,11.85,11.85,0,0,1,4.42,7.91q1.56,10.3-10.35,18.91l14.49,16.57Q1151,699.19,1147.21,674.39Z"/><polygon class="cls-2" points="520.1 1088.09 506.4 1051.79 494.27 1051.79 494.27 1109.93 505.07 1109.93 505.07 1074.05 516.2 1104.61 524.01 1104.61 535.13 1074.05 535.13 1109.93 545.93 1109.93 545.93 1051.79 533.81 1051.79 520.1 1088.09"/><path class="cls-2" d="M595.26,1051.13a29.43,29.43,0,0,0-13.62,3.15,23.44,23.44,0,0,0-10,10.14,34,34,0,0,0-3.78,16.44q0,9.8,3.82,16.61,7.47,13.13,23.58,13.12a29.67,29.67,0,0,0,13.62-3.07,24.43,24.43,0,0,0,10-10.26,33.76,33.76,0,0,0,3.78-16.4q0-9.72-3.9-16.61Q611.54,1051.13,595.26,1051.13ZM607,1095.64a15.15,15.15,0,0,1-11.71,5,15.59,15.59,0,0,1-11.79-5q-4.65-5.06-4.65-14.78t4.65-14.78a15.62,15.62,0,0,1,11.79-5,15.18,15.18,0,0,1,11.71,5q4.74,5,4.74,14.78T607,1095.64Z"/><path class="cls-2" d="M680.39,1073.93a13.68,13.68,0,0,0,1.49-6.44q0-7.63-4.4-11.67t-12.21-4H644v58.14h21.68q9,0,14.12-4.57t5.06-13q0-10.55-8.72-14.2A9.72,9.72,0,0,0,680.39,1073.93Zm-25.58-12.17h9.63q3.66,0,5.36,1.49t1.7,4.82c0,2.22-.55,3.82-1.66,4.82s-2.82,1.49-5.15,1.49h-9.88Zm9.88,38.2h-9.88v-15.61h9.88q9.39,0,9.39,7.81T664.69,1100Z"/><rect class="cls-2" x="705.89" y="1051.79" width="10.8" height="58.14"/><polygon class="cls-2" points="776.15 1061.76 776.15 1051.79 740.18 1051.79 740.18 1109.93 776.98 1109.93 776.98 1099.96 750.98 1099.96 750.98 1083.93 771.16 1083.93 771.16 1073.97 750.98 1073.97 750.98 1061.76 776.15 1061.76"/><polygon class="cls-2" points="798.49 1051.79 798.49 1109.93 833.95 1109.93 833.95 1099.96 809.28 1099.96 809.28 1051.79 798.49 1051.79"/><polygon class="cls-2" points="891.25 1061.76 891.25 1051.79 855.29 1051.79 855.29 1109.93 892.08 1109.93 892.08 1099.96 866.09 1099.96 866.09 1083.93 886.27 1083.93 886.27 1073.97 866.09 1073.97 866.09 1061.76 891.25 1061.76"/><path class="cls-2" d="M412.14,1177.37a48,48,0,0,0-4.94-3.32,58.39,58.39,0,0,0-5.61-2.7q-8.71-4.15-8.72-8.64a5,5,0,0,1,1.58-3.82,5.59,5.59,0,0,1,4-1.49q4.89,0,8.05,6.14l8.72-5.56q-5-10.55-16.77-10.55a15.48,15.48,0,0,0-15.87,15.78,15.72,15.72,0,0,0,1.29,6.85,14.1,14.1,0,0,0,4,5.19,32.1,32.1,0,0,0,4.9,3.37q2.23,1.2,5.48,2.61,8.64,3.66,8.64,8.14,0,7.56-7.56,7.56-8.22,0-11.54-11.79l-8.72,5.48a20.36,20.36,0,0,0,6.89,11.62,19.77,19.77,0,0,0,13.12,4.66q8.55,0,13.58-4.86t5-13.25a14.66,14.66,0,0,0-1.37-6.44A13.46,13.46,0,0,0,412.14,1177.37Z"/><path class="cls-2" d="M481.32,1184.14v-36h-10.8v36.21q0,12.62-10.88,12.62t-10.88-12.62V1148.1H438v36q0,11,5.77,16.9t15.9,5.86q10.14,0,15.91-5.86T481.32,1184.14Z"/><path class="cls-2" d="M539.2,1174.55a17.06,17.06,0,0,0,2.83-9.93q0-7.55-4.65-12t-13-4.48H503.16v58.13H514v-25.08h5.64l15.62,25.08h12l-16.11-26A14.5,14.5,0,0,0,539.2,1174.55Zm-14.78-3.37H514v-13.12h10.46q6.81,0,6.81,6.56T524.42,1171.18Z"/><polygon class="cls-2" points="566.53 1206.23 577.33 1206.23 577.33 1181.32 598.25 1181.32 598.25 1171.35 577.33 1171.35 577.33 1158.06 603.32 1158.06 603.32 1148.1 566.53 1148.1 566.53 1206.23"/><path class="cls-2" d="M640.36,1196.93q-8.22,0-11.54-11.79l-8.72,5.48a20.36,20.36,0,0,0,6.89,11.62,19.77,19.77,0,0,0,13.12,4.66q8.55,0,13.58-4.86t5-13.25a14.66,14.66,0,0,0-1.37-6.44,13.46,13.46,0,0,0-4.19-5,48,48,0,0,0-4.94-3.32,58.39,58.39,0,0,0-5.61-2.7q-8.72-4.15-8.72-8.64a5,5,0,0,1,1.58-3.82,5.59,5.59,0,0,1,4-1.49q4.89,0,8,6.14l8.72-5.56q-5-10.55-16.77-10.55a15.48,15.48,0,0,0-15.87,15.78,15.72,15.72,0,0,0,1.29,6.85,14.1,14.1,0,0,0,4,5.19,32.1,32.1,0,0,0,4.9,3.37q2.24,1.2,5.48,2.61,8.64,3.66,8.64,8.14Q647.92,1196.93,640.36,1196.93Z"/><path class="cls-2" d="M686,1155.32q-8,7.82-8,21.84t8,21.85a26.87,26.87,0,0,0,19.52,7.89q9.46,0,15.74-4.61a22.1,22.1,0,0,0,8.34-13l-9.71-2.49q-3.92,10.13-14.37,10.13a15.58,15.58,0,0,1-11.88-5.07q-4.65-5.14-4.65-14.7t4.65-14.7a15.61,15.61,0,0,1,11.88-5.06q10.47,0,14.37,10.13l9.71-2.49a22.07,22.07,0,0,0-8.34-13q-6.27-4.61-15.74-4.61A26.87,26.87,0,0,0,686,1155.32Z"/><polygon class="cls-2" points="795.5 1206.23 795.5 1148.1 784.7 1148.1 784.7 1170.19 761.45 1170.19 761.45 1148.1 750.65 1148.1 750.65 1206.23 761.45 1206.23 761.45 1180.15 784.7 1180.15 784.7 1206.23 795.5 1206.23"/><path class="cls-2" d="M831.79,1150.59a23.43,23.43,0,0,0-10,10.13,34,34,0,0,0-3.78,16.44q0,9.81,3.82,16.61,7.48,13.13,23.59,13.13a29.67,29.67,0,0,0,13.62-3.08,24.52,24.52,0,0,0,10-10.25,33.83,33.83,0,0,0,3.78-16.41,33.26,33.26,0,0,0-3.91-16.61q-7.21-13.11-23.5-13.12A29.32,29.32,0,0,0,831.79,1150.59Zm30.06,26.57q0,9.81-4.73,14.79a15.19,15.19,0,0,1-11.71,5,15.58,15.58,0,0,1-11.79-5q-4.67-5.07-4.65-14.79t4.65-14.78a15.58,15.58,0,0,1,11.79-5,15.19,15.19,0,0,1,11.71,5Q861.86,1167.36,861.85,1177.16Z"/><path class="cls-2" d="M920.82,1147.43a29.26,29.26,0,0,0-13.62,3.16,23.38,23.38,0,0,0-10,10.13,34,34,0,0,0-3.78,16.44q0,9.81,3.82,16.61,7.47,13.13,23.59,13.13a29.7,29.7,0,0,0,13.62-3.08,24.52,24.52,0,0,0,10-10.25,33.94,33.94,0,0,0,3.77-16.41q0-9.71-3.9-16.61Q937.09,1147.44,920.82,1147.43ZM932.53,1192a15.19,15.19,0,0,1-11.71,5,15.62,15.62,0,0,1-11.8-5q-4.65-5.07-4.65-14.79t4.65-14.78a15.62,15.62,0,0,1,11.8-5,15.19,15.19,0,0,1,11.71,5q4.72,5,4.73,14.78T932.53,1192Z"/><polygon class="cls-2" points="980.36 1148.1 969.57 1148.1 969.57 1206.23 1005.03 1206.23 1005.03 1196.27 980.36 1196.27 980.36 1148.1"/><path class="cls-1" d="M507.45,1279a14.36,14.36,0,0,1,22.89,0q4,5.65,4,15.77t-4,15.83q-4,5.63-11.45,5.63t-11.44-5.63q-4-5.64-4-15.83T507.45,1279Zm11.44,30.28q8,0,8-14.51t-8-14.5q-8,0-8,14.5T518.89,1309.23Z"/><path class="cls-1" d="M564.15,1273.26,555,1288.85h1a13.22,13.22,0,0,1,13.55,13.67,12.93,12.93,0,0,1-4,9.77,14.82,14.82,0,0,1-20,0,12.93,12.93,0,0,1-4-9.77,14.46,14.46,0,0,1,2-7.38l12.23-21.88Zm-15.1,29.26a6.59,6.59,0,0,0,1.86,4.82,6.18,6.18,0,0,0,4.61,1.89,6.27,6.27,0,0,0,4.62-1.86,6.56,6.56,0,0,0,1.85-4.85,6.66,6.66,0,0,0-1.79-4.89,6.89,6.89,0,0,0-9.35,0A6.67,6.67,0,0,0,549.05,1302.52Z"/><path class="cls-1" d="M591.78,1280.94l12.29-7.2h3.3v42h-7.56v-31.41l-8,4.8Z"/><path class="cls-1" d="M614.92,1273.74h25.41v3.12l-15.82,38.84h-7.43l14.32-35H614.92Z"/><path class="cls-1" d="M660.71,1280.94l12.29-7.2h3.3v42h-7.56v-31.41l-8,4.8Z"/><path class="cls-1" d="M709.27,1315.7h-7.56v-7.79h-18v-3.84l17.68-30.33h7.92V1301h4.67v7h-4.67ZM701.71,1285l-8.87,16h8.87Z"/><path class="cls-1" d="M735.22,1304.07l7.25-1q1.5,6.11,6.77,6.11a6.39,6.39,0,0,0,4.8-1.92,7,7,0,0,0,1.86-5.1,7.69,7.69,0,0,0-1.8-5.42,6.22,6.22,0,0,0-4.8-2,7.62,7.62,0,0,0-3.65.9l-3-4.2,7.91-10.84H737.19v-7h24v2.64l-9.89,13.36c1-.07,1.52-.11,1.68-.11a9.33,9.33,0,0,1,7.61,3.41,13.79,13.79,0,0,1,2.82,9.06,13.52,13.52,0,0,1-4,10.25,15.5,15.5,0,0,1-19.84.47A12.9,12.9,0,0,1,735.22,1304.07Z"/><path class="cls-1" d="M770,1304.07l7.25-1q1.5,6.11,6.78,6.11a6.37,6.37,0,0,0,4.79-1.92,7,7,0,0,0,1.86-5.1,7.69,7.69,0,0,0-1.8-5.42,6.2,6.2,0,0,0-4.79-2,7.63,7.63,0,0,0-3.66.9l-3-4.2,7.91-10.84H772v-7h24v2.64l-9.89,13.36,1.67-.11a9.35,9.35,0,0,1,7.62,3.41,13.85,13.85,0,0,1,2.82,9.06,13.55,13.55,0,0,1-4,10.25,15.5,15.5,0,0,1-19.84.47A12.87,12.87,0,0,1,770,1304.07Z"/><path class="cls-1" d="M846.7,1284.71a10.24,10.24,0,0,1-4,8.39q5.58,3.18,5.57,10.07a11.88,11.88,0,0,1-4,9.47,14.11,14.11,0,0,1-9.65,3.54,14.3,14.3,0,0,1-9.71-3.54,12.05,12.05,0,0,1-4-9.47q0-6.89,5.51-10.07a10.08,10.08,0,0,1-3.89-8.39,11,11,0,0,1,3.36-8.09,12,12,0,0,1,8.69-3.36,11.69,11.69,0,0,1,8.63,3.36A10.91,10.91,0,0,1,846.7,1284.71Zm-7.67,14a6.72,6.72,0,0,0-8.75,0,6.52,6.52,0,0,0,0,8.87,6.72,6.72,0,0,0,8.75,0,6.52,6.52,0,0,0,0-8.87Zm-9.41-13.91a5.42,5.42,0,0,0,1.38,3.87,5.31,5.31,0,0,0,7.31,0,5.42,5.42,0,0,0,1.38-3.87,5.19,5.19,0,0,0-1.38-3.77,5.36,5.36,0,0,0-7.31,0A5.19,5.19,0,0,0,829.62,1284.83Z"/><path class="cls-1" d="M855.46,1304.73l7.13-1.32q1.14,5.82,6.29,5.82a5.69,5.69,0,0,0,4.65-1.92,8.45,8.45,0,0,0,1.58-5.52,7.74,7.74,0,0,0-1.7-5.39,6.31,6.31,0,0,0-4.89-1.86q-4.08,0-7.43,3.78l-4.74-1,2.34-23.62h21.58v7h-15.4l-1,8.75a11.48,11.48,0,0,1,5.94-1.56q6.24,0,9.53,3.68t3.3,10.22a14.71,14.71,0,0,1-3.78,10.43,13.19,13.19,0,0,1-10,4,13.79,13.79,0,0,1-9.17-3.12A12.12,12.12,0,0,1,855.46,1304.73Z"/><path class="cls-2" d="M686.45,456.19h-1.63c-152.73,0-276.55,123.82-276.55,276.56S532.09,1009.3,684.82,1009.3h.25c152.14,0,276.58-123.52,276.77-274.78C962,580.82,838.82,456.29,686.45,456.19ZM905.26,580.93a264.4,264.4,0,0,1,34.25,69.29c-2.6.14-4.49.32-6.36.32q-89.39,0-178.77,0a8.91,8.91,0,0,1-8.33-11.82c.53-1.47,2.91-2.61,4.68-3.26q35.35-13.05,70.79-25.91c25.89-9.43,51.8-18.76,77.63-28.35C901.7,580.26,903.59,580.06,905.26,580.93Zm-54.57-58.22a270.94,270.94,0,0,1,47.71,48.75l.27.6c-1.83.88-3.39,1.81-5.07,2.42C845,592.15,796.28,609.65,747.75,627.6c-6.51,2.41-6.89-2.2-9.32-5.29-2.86-3.64-1.3-5.7,1.7-8.21Q793.24,569.66,846.2,525C847.68,523.78,849,522.58,850.69,522.71ZM733.21,650.56q-24,0-48,0c-16,0-32-.12-48,.08-4.59,0-5.72-1.42-5-5.92C636,620.14,660,600.16,685.74,600.4S735,621,738.38,645.8C739,650.6,736.42,650.56,733.21,650.56Zm55.13-164.73q5.2,2.18,10.32,4.58,18.63,10.68,37.24,21.39c2.09,1.43,4.17,2.9,6.22,4.4.18.25.37.52.61.83-11,9.3-21.68,18.29-32.36,27.25Q772.71,575.87,735,607.44c-3.85,3.21-12.84.23-13.87-4.77-.25-1.22.62-2.83,1.33-4.06q31.47-54.72,63-109.39C786.31,487.83,787.1,486.36,788.34,485.83ZM723.9,468c4,.58,7.94,1.26,11.88,2q16.44,4.29,32.9,8.51c3.18,1,6.33,2.16,9.46,3.33.89,1.13.63,2.72-.7,5q-31.34,53.85-62.39,107.86c-1.55,2.69-3.31,4.18-6.19,2.35s-8.43-.54-8.34-5.32c3.42-19.44,6.67-37.77,9.89-56.1,3.67-20.9,7.38-41.79,10.89-62.72C721.72,470.4,722.41,468.67,723.9,468Zm-66.07-1.48q13.38-1.34,27-1.34a271.93,271.93,0,0,1,27.91,1.44c.87,1,1.12,2.54.66,5.09q-10.56,57.87-20.45,115.87c-.7,4.08-2.54,5.36-6.36,4.89s-7.91,1.65-9-5C671,548.76,664,510.16,657,471.57,656.55,469.1,656.82,467.49,657.83,466.48ZM646,467.93c1.65.58,2.57,2.17,3,5,4.73,27.72,9.7,55.39,14.58,83.07,1.93,11,3.8,22,5.8,33,.55,3,.73,5.83-3.18,6.32-3.63.46-7.33,5.67-11-.64q-31.41-54.75-63.11-109.36A22.8,22.8,0,0,1,591,482,265.76,265.76,0,0,1,646,467.93Zm-99.83,35.83c8.07-4.51,16.25-8.82,24.41-13.16q5.29-2.5,10.69-4.76c1.27.19,2.33,1.1,3.35,2.87Q616.3,543.92,648.21,599c1.47,2.55,1.35,4.27-1.06,6.17-8.95,7-6.1,6.92-13.87.43q-51-42.58-101.88-85.38L527,516.57Q536.34,509.73,546.17,503.76Zm-72,63.92c1.27-1.6,2.55-3.2,3.85-4.78.35-.4.69-.81,1.06-1.18,11.82-12,23.81-23.75,35.71-35.62,1.22-1,2.46-2,3.7-3,1.72-.68,3.39-.12,5.35,1.53q53.35,45,106.87,89.83c2.65,2.22,4.18,4.26,1.48,7.35-2.44,2.81-2.25,8.39-9.08,5.87C574,609.6,524.83,591.89,475.68,574c-1.19-.43-2.29-1.11-4.64-2.27C472.17,570.35,473.17,569,474.15,567.68ZM435.9,634.17c.27-.58.5-1.19.79-1.76,8.29-16.23,17-32.24,25.54-48.34.58-.87,1.18-1.72,1.77-2.58,1.48-1.45,3.35-1.65,6.16-.62q74.15,27.2,148.42,54.1c6,2.19,7.91,8.65,4.15,14a4.91,4.91,0,0,1-2.76,1.46,14.26,14.26,0,0,1-3.34.12q-89.64,0-179.27,0c-2,0-3.94-.22-7.19-.42Q432.78,642.05,435.9,634.17ZM418.61,758.64c-.44-4-.64-8-.86-12,23.75,0,88.79,0,109.26,0,3,0,6-.13,9,.06,6.74.43,10.25,3.05,10.33,7.78.08,5.36-3.08,8.07-8,9.12-2.92.62-5.8,1.35-8.71,2-10.88,2.5-21.85,4.67-32.62,7.57-9.76,2.62-15.05,10.57-14.28,20s7.75,16.32,17.46,17.27c3,.29,6,.14,8.94.14H674.49c0,5.34.14,10.69,0,16-.07,4.57,1,5.6,5.59,5.63,6.47.05,20.49.15,27,.05,2.65-.05,4.22.57,5.33,3.38a18.22,18.22,0,0,0,8,9.55H442.16Q423.82,805.62,418.61,758.64Zm436.44-10.19A21.82,21.82,0,0,1,870,753.72c1.06.91,2.37,1.74,2.5,3.35a1.7,1.7,0,0,1-1.38.75q-79.2,0-158.4,0a2.15,2.15,0,0,1-1.9-.91c1-2.78,3-5.05,4.75-7.46a2.54,2.54,0,0,1,2.08-1c1.06,0,2.11-.06,3.17-.06Q787.93,748.47,855.05,748.45Zm-104.11-9.27c0-1.45,0-2.9,0-4.35a2,2,0,0,1,2.18-2.25c1.05-.05,2.11-.07,3.16-.07q30.86,0,61.69,0c5.14,0,5.33.23,5.15,5.36-.12,3.34-.33,3.64-3.66,3.66-10.81,0-23.31,0-34.12,0H756.6c-1.05,0-2.11,0-3.16,0C751.87,741.53,751,740.83,750.94,739.18ZM717.7,828.7a12.45,12.45,0,0,1,12.16-12.14,12,12,0,0,1,12.46,12.09,12.46,12.46,0,0,1-12.23,12.48A12.69,12.69,0,0,1,717.7,828.7Zm30,7c1.12-2.81,2.67-3.41,5.32-3.39,13.07.07,26.14,0,39.22,0,8.45,0,16.9.07,25.35,0,2.69,0,4.4.54,5.25,3.45a15.82,15.82,0,0,0,5.75,7.89,19.15,19.15,0,0,0,2.39,1.6H739.8A18.33,18.33,0,0,0,747.69,835.72Zm92.79,5.38a12.33,12.33,0,0,1-12.19-12,12,12,0,0,1,12-12.5,12.36,12.36,0,0,1,12.54,12.11A12.6,12.6,0,0,1,840.48,841.1Zm5.67-30.51A18.94,18.94,0,0,0,823.08,821c-.43,1-.75,2-1.14,3a2.17,2.17,0,0,1-2.1,1.51c-1.06,0-2.11.08-3.17.08H754.48c-5.37,0-5.38,0-5.39-5.53q0-13.66,0-27.32c0-5.17,0-5.2,5.37-5.2H871.71c5.9,0,5.91,0,5.91,5.93q0,13.47,0,26.93c0,5.17,0,5.17-5.35,5.19-3.17,0-6.34-.1-9.51,0-2.32.09-3.53-.78-4.32-3A18.27,18.27,0,0,0,846.15,810.59Zm-97.06-41.38c0-4.69.08-4.74,5-4.77,4,0,7.9,0,11.85,0,9.09,0,18.18,0,27.26,0,4.24,0,4.41.22,4.46,4.49q0,3.76,0,7.51c0,4.4-.19,4.56-4.79,4.58q-9.68,0-19.35,0c-6.72,0-13.43,0-20.15,0-4,0-4.19-.27-4.24-4.31C749.06,774.21,749.07,771.71,749.09,769.21Zm55.07-.94c.1-3.44.44-3.78,4-3.81,7.65-.05,15.3,0,23,0,5.94,0,11.87,0,17.81,0,3.55,0,3.9.38,4,3.83.09,3,.09,6.07,0,9.1s-.53,3.58-3.81,3.62c-7,.06-14,0-21,0-6.59,0-13.19,0-19.79,0-3.76,0-4.1-.38-4.19-4C804.08,774.08,804.07,771.17,804.16,768.27Zm73.37,10.36c0,1.62-1.1,2.31-2.61,2.33-2.24,0-4.48,0-6.72,0v0h-5.92c-1.7,0-2.78-.71-2.78-2.55,0-3.82,0-7.63,0-11.45,0-1.85,1.09-2.53,2.8-2.53,4,0,7.9,0,11.84,0a2.82,2.82,0,0,1,3.18,2.75A68.06,68.06,0,0,1,877.53,778.63ZM739,764.48c2.87,0,3.2.41,3.28,3.22.09,3.28.08,6.58,0,9.87-.07,3-.4,3.39-3.49,3.43-6.71.07-13.43,0-20.14,0v0H700.05a25.37,25.37,0,0,1-2.76-.1c-1.31-.14-1.95-.83-1.32-2.14a78.6,78.6,0,0,1,8.53-13.26c.8-1.06,2-1.07,3.25-1.07C718.15,764.45,728.55,764.41,739,764.48Zm-43.06,23,21.36,0c7,0,14,0,21,0,1.38,0,4.06-.49,4.06,1.38,0,6.72-.2,13.28,0,19.74,0,1.24,0,3.24-.56,3.82-1.41,1.41-3.27-1-4.92-1.58a18.75,18.75,0,0,0-24.19,10.58c-1.31,3.39-3,4.33-6.39,4.15-4.73-.25-17-.15-21.79-.13-1.84,0-3.08-.56-3.05-2.67.18-10.61-.12-20.76,2-31C684.09,788.41,690.34,787.52,695.89,787.52ZM832.72,955.86q-10.85,7.21-22.27,13.31c-32,17.05-68.55,26.44-104.57,29.11a279.91,279.91,0,0,1-108.17-13.12,253.43,253.43,0,0,1-66.46-33.25h302.2C835.81,951.91,839.69,951.6,832.72,955.86Zm51.81-45A304.3,304.3,0,0,1,849.9,943.3H520.41a296.25,296.25,0,0,1-40.22-38.84H890C888.2,906.61,886.41,908.77,884.53,910.87Zm12.4-15H473.14a257.72,257.72,0,0,1-26.78-42H923.52A265.71,265.71,0,0,1,896.93,895.84Zm30.77-50.58H849.88A18.92,18.92,0,0,0,858,836c1.15-2.77,2.53-3.85,5.5-3.73,5.15.22,10.3.11,15.45,0,4.22-.06,5.16-1,5.17-5.17,0-5.52,0-11,0-16.55h7.35c10.08,0,35.47-.08,49.47,0A264.17,264.17,0,0,1,927.7,845.26Zm10.8-45.47H884.09q0-15.63,0-31.25a23,23,0,0,0-2.06-9.61c-5-11-13.78-16.78-25.8-17.24-7.91-.31-14.14-.05-22.07-.09-4,0-4.16-.23-4.19-4.33v-.79c.09-3.64.25-3.76,3.78-4,6.07-.38,12.14.42,18.21.44,1.19,0,2.38,0,3.56-.08,1.43-.07,2-.89,2.21-2.28.39-3.15-.3-3.26-3.54-3.37-1,0-2.11,0-3.16,0l-3.34-.05c-.72-1.37-2-5.13,3.65-8.24,3.52-1.95,2.69-5.11-3.18-4.24-7.23,1.06-11.57,9.59-12.75,12.22L814,726.41c-20.73-.07-41.46,0-62.19,0-10.69,0-5.54,0-16.23.07-3.16,0-22.6.33-22.34,3.37.18,2.21.58,2.62,3.46,2.66,6.6.07,16.23-.41,22.84-.36,4.28,0,4.46.27,4.48,4.48,0,.4,0,.79,0,1.19-.11,3.51-.29,3.73-3.93,3.77-4.36.06-10.41,0-14.77,0-3.83,0-8.67-.15-12.39.6-3.91.79-7.46,8.33-9.42,11.43-3.07,4.85-6,9.78-9.2,14.55-2.77,4.12-5.92,12.84-11.22,14.77-7.35,2.67-7.2,10-8,16.4,0,.14,0,.28,0,.42H510.23c-3.35,0-6.73.08-10.06-.23-4.35-.4-6.55-3.4-7-7.4a7.3,7.3,0,0,1,4.88-8,65.76,65.76,0,0,1,9.66-2.7c11.59-2.72,23.29-5.06,34.79-8.12,9.74-2.59,15.53-10.94,14.69-19.8a18.73,18.73,0,0,0-18.68-17.31c-24.4-.3-91.39-.16-121.25-.11a17.13,17.13,0,0,1,0-3.58c0-4,.11-8.07.29-12.09,0,0,0-.06,0-.08a2.26,2.26,0,0,1,0-.26q.12-2.55.33-5.1l-.07,0a268.69,268.69,0,0,1,6.29-42.91l.26-.19c.67-2.83,1.33-5.67,1.92-8.52.68-3.35,2.55-4.74,5.87-4.55,1.67.09,3.35,0,5,0H933.47c5.29,0,7.66,0,9.1,1.57a269.72,269.72,0,0,1,1.36,139.44C942.12,799.82,940.31,799.79,938.5,799.79Z"/><path class="cls-2" d="M830.72,719.2c-.81,0-1.63,0-2.44,0l-3.15-.05c-.46-.94-1.13-3.28,2.39-5.23,2.27-1.25,1.73-3.28-2-2.72-4.57.67-7.36,6-8.16,7.78l-6.82-.15c-.42-1.08-.65-3.15,2.53-4.91,2.26-1.25,1.72-3.28-2-2.72-4.33.63-7.05,5.43-8,7.46l-3.22-.07c-3.92-.1-64.4-1.46-64.05,2.65.14,1.71.45,2,2.67,2,9.37.11,18.74-.5,28.11-.51,20.65,0,41.73.77,62.54.84.91,0,1.83,0,2.75-.06,1.1-.06,1.57-.69,1.7-1.76C833.75,719.37,833.22,719.28,830.72,719.2Z"/><path class="cls-2" d="M730.09,833.7a5,5,0,0,0,4.84-4.76,4.72,4.72,0,0,0-4.88-5,4.9,4.9,0,0,0-4.89,4.66A5,5,0,0,0,730.09,833.7Z"/><path class="cls-2" d="M840.63,824a4.61,4.61,0,0,0-4.93,4.55,4.83,4.83,0,0,0,4.78,5.19,4.74,4.74,0,0,0,4.73-4.83A4.61,4.61,0,0,0,840.63,824Z"/></svg>