<svg id="Layer_1" data-name="Layer 1" xmlns="http://www.w3.org/2000/svg" viewBox="0 0 1325.14 1612.83"><defs><style>.cls-1{fill:#231f20;}.cls-2{fill:#fff;}</style></defs><rect class="cls-1" x="455.06" y="1230.52" width="433.02" height="86.65"/><path class="cls-1" d="M318.89,623.84q-5.55-9.45-16.6-16.53a81.66,81.66,0,0,0-54.48-10.54q-12.88,2.46-21.56,9.14A57.38,57.38,0,0,0,212,621.79a61.23,61.23,0,0,0-7.71,20.28l-7.35,38,121.44,23.5,7.35-38a61.44,61.44,0,0,0,.42-21.69A57.67,57.67,0,0,0,318.89,623.84Zm-15.34,44.82L301.94,677l-79.8-15.44,1.61-8.32q3.09-16,13.11-25.9,11.43-11.66,34.68-7.15t29.51,19.57Q306.65,652.7,303.55,668.66Z"/><polygon class="cls-1" points="370.62 504.63 342.77 552.41 313.31 535.24 334.93 498.14 316.61 487.46 294.99 524.56 272.55 511.48 299.51 465.22 281.19 454.54 242.66 520.64 349.52 582.93 388.94 515.31 370.62 504.63"/><path class="cls-1" d="M411.32,388.12a29.9,29.9,0,0,0,13.17,4.67,68.12,68.12,0,0,0,12.64.41q5.4-.42,12.82-1.61,19.67-3.36,24.81,4.67,8.69,13.55-4.86,22.21-14.73,9.43-34.22-7.87l-9.33,19.82a43.43,43.43,0,0,0,25.7,12.92,42.1,42.1,0,0,0,28.84-6.73q15.33-9.81,18.75-24.29t-6.2-29.5a31.29,31.29,0,0,0-9.84-9.95,28.68,28.68,0,0,0-13.24-4.12,104.88,104.88,0,0,0-12.66-.28,125.51,125.51,0,0,0-13.14,1.6q-20.38,2.58-25.54-5.46a10.71,10.71,0,0,1-1.56-8.66,11.83,11.83,0,0,1,5.43-7.25q8.78-5.62,21.49,1.76l9.23-20q-21-13.19-42.16.36-12.19,7.81-15.14,21.24a32.75,32.75,0,0,0,4.83,25.23A33.22,33.22,0,0,0,411.32,388.12Z"/><path class="cls-1" d="M547.05,389.05q14.88,9.19,35.83,4.08T612.8,373q9-15,3.4-37.84L598,260.66l-22.32,5.44L594,341q6.38,26.08-16.12,31.58T549,351.93l-18.27-74.84-22.32,5.44L526.59,357Q532.17,379.88,547.05,389.05Z"/><path class="cls-1" d="M685.43,328.78l12,1.2,27.7,56.43,25.5,2.56L722,330.51a30.76,30.76,0,0,0,18.26-10.33q6.86-8.1,8.1-20.4,1.61-16-7.28-26.49T714.45,261l-44.83-4.51L657.23,379.58l22.86,2.3Zm4.92-48.87,22.15,2.23q14.41,1.44,13,15.34t-15.81,12.43l-22.15-2.23Z"/><polygon class="cls-1" points="816.55 359.18 857.19 377.39 865.86 358.05 825.22 339.83 836.79 314.03 887.26 336.65 895.93 317.3 824.5 285.29 773.91 398.16 794.87 407.56 816.55 359.18"/><path class="cls-1" d="M902.69,478.18q14.13,13.08,28.64,13.29T958,478.58q15.25-16.45,6.94-34.77a20.71,20.71,0,0,0,12.79-.55,29.16,29.16,0,0,0,11.65-7.88q11-11.92,10-24.57t-13.23-23.95L953,356.11l-84.09,90.71Zm52.7-90.9,15,13.93c3.8,3.52,5.87,6.89,6.2,10.08s-1.11,6.53-4.31,10-6.39,5.16-9.56,5.12-6.57-1.76-10.2-5.12L937.13,407Zm-17.25,49.54q14.64,13.57,3.35,25.76t-25.94-1.4l-15.42-14.29,22.59-24.36Z"/><path class="cls-1" d="M1032.69,587.85l68.16-35.15-10.53-20.42-68.47,35.32q-23.88,12.31-34.49-8.27t13.26-32.88l68.48-35.31-10.53-20.42-68.16,35.15q-20.89,10.77-26.33,27.4t4.44,35.78q9.88,19.17,26.58,24.37T1032.69,587.85Z"/><path class="cls-1" d="M1127.6,654.81q-2.19-14.32-13.25-22.47a32.76,32.76,0,0,0-25-5.86,33.39,33.39,0,0,0-14,4.9,30.06,30.06,0,0,0-9.63,10.13,68.08,68.08,0,0,0-5.51,11.39q-1.82,5.1-3.75,12.36-4.92,19.34-14.36,20.77-15.9,2.41-18.31-13.48-2.62-17.29,21.12-28l-14.32-16.59a43.47,43.47,0,0,0-22.26,18.21,42.21,42.21,0,0,0-5.58,29.09q2.73,18,14.56,27t29.47,6.34a31.42,31.42,0,0,0,13.1-4.94A28.8,28.8,0,0,0,1069,693.2a103.35,103.35,0,0,0,5.41-11.45,124.15,124.15,0,0,0,3.88-12.66q6-19.67,15.38-21.1a10.67,10.67,0,0,1,8.54,2.1,11.77,11.77,0,0,1,4.42,7.9q1.57,10.31-10.35,18.91l14.49,16.57Q1131.37,679.61,1127.6,654.81Z"/><polygon class="cls-1" points="500.49 1068.51 486.79 1032.22 474.66 1032.22 474.66 1090.35 485.46 1090.35 485.46 1054.47 496.58 1085.04 504.39 1085.04 515.52 1054.47 515.52 1090.35 526.32 1090.35 526.32 1032.22 514.19 1032.22 500.49 1068.51"/><path class="cls-1" d="M575.65,1031.55a29.26,29.26,0,0,0-13.62,3.16,23.38,23.38,0,0,0-10,10.13,34,34,0,0,0-3.78,16.44q0,9.81,3.82,16.61,7.47,13.13,23.59,13.13a29.7,29.7,0,0,0,13.62-3.08,24.52,24.52,0,0,0,10-10.25,33.91,33.91,0,0,0,3.77-16.41q0-9.71-3.9-16.61Q591.92,1031.56,575.65,1031.55Zm11.71,44.52a15.19,15.19,0,0,1-11.71,5,15.62,15.62,0,0,1-11.8-5q-4.65-5.07-4.65-14.79t4.65-14.78a15.62,15.62,0,0,1,11.8-5,15.19,15.19,0,0,1,11.71,5q4.73,5,4.73,14.78T587.36,1076.07Z"/><path class="cls-1" d="M660.77,1054.35a13.68,13.68,0,0,0,1.5-6.44q0-7.64-4.4-11.67t-12.21-4H624.4v58.13h21.67q9.06,0,14.12-4.57t5.07-13q0-10.55-8.72-14.2A9.72,9.72,0,0,0,660.77,1054.35Zm-25.58-12.17h9.64q3.64,0,5.36,1.5c1.13,1,1.7,2.6,1.7,4.81s-.56,3.82-1.66,4.82-2.83,1.5-5.15,1.5h-9.89Zm9.89,38.21h-9.89v-15.62h9.89q9.38,0,9.38,7.81T645.08,1080.39Z"/><rect class="cls-1" x="686.27" y="1032.22" width="10.8" height="58.14"/><polygon class="cls-1" points="756.53 1042.18 756.53 1032.22 720.57 1032.22 720.57 1090.35 757.36 1090.35 757.36 1080.38 731.37 1080.38 731.37 1064.36 751.55 1064.36 751.55 1054.39 731.37 1054.39 731.37 1042.18 756.53 1042.18"/><polygon class="cls-1" points="778.87 1032.22 778.87 1090.35 814.33 1090.35 814.33 1080.38 789.67 1080.38 789.67 1032.22 778.87 1032.22"/><polygon class="cls-1" points="871.64 1042.18 871.64 1032.22 835.68 1032.22 835.68 1090.35 872.47 1090.35 872.47 1080.38 846.47 1080.38 846.47 1064.36 866.65 1064.36 866.65 1054.39 846.47 1054.39 846.47 1042.18 871.64 1042.18"/><path class="cls-1" d="M392.52,1157.79a49.7,49.7,0,0,0-4.94-3.32,59.23,59.23,0,0,0-5.6-2.7q-8.73-4.15-8.72-8.63a5,5,0,0,1,1.57-3.82,5.57,5.57,0,0,1,4-1.5q4.9,0,8.06,6.15l8.72-5.57q-5-10.55-16.78-10.55a16.28,16.28,0,0,0-14.57,22.64,14.07,14.07,0,0,0,4,5.19,32.22,32.22,0,0,0,4.9,3.36q2.25,1.2,5.48,2.62,8.64,3.64,8.64,8.13,0,7.56-7.56,7.56-8.22,0-11.54-11.79l-8.72,5.48a20.44,20.44,0,0,0,6.89,11.63,19.84,19.84,0,0,0,13.13,4.65q8.55,0,13.57-4.86t5-13.25a14.75,14.75,0,0,0-1.37-6.43A13.59,13.59,0,0,0,392.52,1157.79Z"/><path class="cls-1" d="M461.7,1164.56v-36H450.91v36.21q0,12.63-10.88,12.62t-10.88-12.62v-36.21h-10.8v36q0,11.06,5.77,16.9t15.91,5.86q10.13,0,15.9-5.86T461.7,1164.56Z"/><path class="cls-1" d="M519.59,1155a17.11,17.11,0,0,0,2.82-9.92q0-7.56-4.65-12t-13-4.48H483.55v58.13h10.79v-25.08H500l15.61,25.08h12l-16.11-26A14.48,14.48,0,0,0,519.59,1155Zm-14.78-3.36H494.34v-13.13h10.47q6.81,0,6.81,6.57T504.81,1151.61Z"/><polygon class="cls-1" points="546.91 1186.65 557.71 1186.65 557.71 1161.74 578.64 1161.74 578.64 1151.77 557.71 1151.77 557.71 1138.48 583.7 1138.48 583.7 1128.52 546.91 1128.52 546.91 1186.65"/><path class="cls-1" d="M620.74,1177.35q-8.22,0-11.54-11.79l-8.72,5.48a20.44,20.44,0,0,0,6.89,11.63,19.84,19.84,0,0,0,13.13,4.65q8.55,0,13.57-4.86t5-13.25a14.75,14.75,0,0,0-1.37-6.43,13.59,13.59,0,0,0-4.2-5,49.7,49.7,0,0,0-4.94-3.32,59.23,59.23,0,0,0-5.6-2.7q-8.73-4.15-8.72-8.63a5,5,0,0,1,1.57-3.82,5.57,5.57,0,0,1,4-1.5q4.9,0,8.06,6.15l8.72-5.57q-5-10.55-16.78-10.55a16.28,16.28,0,0,0-14.57,22.64,14.07,14.07,0,0,0,4,5.19,31.74,31.74,0,0,0,4.9,3.36q2.25,1.2,5.48,2.62,8.64,3.64,8.64,8.13Q628.3,1177.35,620.74,1177.35Z"/><path class="cls-1" d="M666.34,1135.74q-8,7.82-8,21.85t8,21.84a26.85,26.85,0,0,0,19.51,7.89q9.46,0,15.74-4.61a22.13,22.13,0,0,0,8.35-13l-9.72-2.49q-3.9,10.14-14.37,10.13a15.57,15.57,0,0,1-11.87-5.06q-4.65-5.16-4.65-14.7t4.65-14.7a15.55,15.55,0,0,1,11.87-5.07q10.47,0,14.37,10.13l9.72-2.49a22.16,22.16,0,0,0-8.35-13q-6.27-4.61-15.74-4.61A26.85,26.85,0,0,0,666.34,1135.74Z"/><polygon class="cls-1" points="775.88 1186.65 775.88 1128.52 765.08 1128.52 765.08 1150.61 741.83 1150.61 741.83 1128.52 731.03 1128.52 731.03 1186.65 741.83 1186.65 741.83 1160.58 765.08 1160.58 765.08 1186.65 775.88 1186.65"/><path class="cls-1" d="M812.17,1131a23.41,23.41,0,0,0-10,10.13,34,34,0,0,0-3.78,16.45q0,9.79,3.82,16.61,7.47,13.13,23.58,13.12a29.79,29.79,0,0,0,13.62-3.07,24.55,24.55,0,0,0,10-10.26,33.76,33.76,0,0,0,3.78-16.4q0-9.72-3.9-16.61-7.23-13.12-23.51-13.13A29.44,29.44,0,0,0,812.17,1131Zm30.07,26.58q0,9.79-4.74,14.78a15.17,15.17,0,0,1-11.71,5,15.61,15.61,0,0,1-11.79-5q-4.65-5.07-4.65-14.78T814,1142.8a15.61,15.61,0,0,1,11.79-5,15.17,15.17,0,0,1,11.71,5Q842.24,1147.8,842.24,1157.59Z"/><path class="cls-1" d="M901.2,1127.85a29.44,29.44,0,0,0-13.62,3.16,23.48,23.48,0,0,0-10,10.13,34,34,0,0,0-3.77,16.45q0,9.79,3.82,16.61,7.47,13.13,23.58,13.12a29.79,29.79,0,0,0,13.62-3.07,24.55,24.55,0,0,0,10-10.26,33.76,33.76,0,0,0,3.78-16.4q0-9.72-3.9-16.61Q917.48,1127.86,901.2,1127.85Zm11.71,44.52a15.17,15.17,0,0,1-11.71,5,15.6,15.6,0,0,1-11.79-5q-4.65-5.07-4.65-14.78t4.65-14.79a15.6,15.6,0,0,1,11.79-5,15.17,15.17,0,0,1,11.71,5q4.74,5,4.74,14.79T912.91,1172.37Z"/><polygon class="cls-1" points="960.75 1128.52 949.95 1128.52 949.95 1186.65 985.41 1186.65 985.41 1176.69 960.75 1176.69 960.75 1128.52"/><path class="cls-2" d="M487.83,1259.38a14.37,14.37,0,0,1,22.9,0q4,5.64,4,15.76t-4,15.83q-4,5.63-11.45,5.63a13.24,13.24,0,0,1-11.45-5.63q-4-5.64-4-15.83T487.83,1259.38Zm11.45,30.27q8,0,8-14.51t-8-14.5q-8,0-8,14.5T499.28,1289.65Z"/><path class="cls-2" d="M544.54,1253.69l-9.11,15.58h1a13.2,13.2,0,0,1,13.54,13.67,13,13,0,0,1-4,9.77,14.82,14.82,0,0,1-20,0,12.93,12.93,0,0,1-4-9.77,14.36,14.36,0,0,1,2-7.38l12.22-21.87Zm-15.11,29.25a6.59,6.59,0,0,0,1.86,4.82,6.62,6.62,0,0,0,9.23,0,6.57,6.57,0,0,0,1.86-4.85,6.67,6.67,0,0,0-1.8-4.89,6.89,6.89,0,0,0-9.35,0A6.67,6.67,0,0,0,529.43,1282.94Z"/><path class="cls-2" d="M572.17,1261.36l12.28-7.2h3.3v42H580.2v-31.41l-8,4.8Z"/><path class="cls-2" d="M595.3,1254.16h25.42v3.12l-15.83,38.84h-7.43l14.33-35H595.3Z"/><path class="cls-2" d="M641.1,1261.36l12.28-7.2h3.3v42h-7.55v-31.41l-8,4.8Z"/><path class="cls-2" d="M689.65,1296.12H682.1v-7.79H664.05v-3.84l17.69-30.33h7.91v27.22h4.68v6.95h-4.68Zm-7.55-30.75-8.87,16h8.87Z"/><path class="cls-2" d="M715.6,1284.49l7.25-1q1.5,6.11,6.78,6.11a6.37,6.37,0,0,0,4.79-1.92,7,7,0,0,0,1.86-5.09,7.7,7.7,0,0,0-1.8-5.43,6.19,6.19,0,0,0-4.79-1.94,7.62,7.62,0,0,0-3.66.89l-3-4.19,7.91-10.85H717.58v-7h24v2.64l-9.89,13.37c.95-.08,1.52-.12,1.67-.12a9.36,9.36,0,0,1,7.62,3.42,13.8,13.8,0,0,1,2.82,9,13.55,13.55,0,0,1-4,10.25,15.52,15.52,0,0,1-19.84.48A12.89,12.89,0,0,1,715.6,1284.49Z"/><path class="cls-2" d="M750.43,1284.49l7.25-1q1.5,6.11,6.77,6.11a6.39,6.39,0,0,0,4.8-1.92,7,7,0,0,0,1.86-5.09,7.7,7.7,0,0,0-1.8-5.43,6.21,6.21,0,0,0-4.8-1.94,7.62,7.62,0,0,0-3.66.89l-3-4.19,7.91-10.85H752.4v-7h24v2.64l-9.89,13.37q1.44-.12,1.68-.12a9.34,9.34,0,0,1,7.61,3.42,13.74,13.74,0,0,1,2.82,9,13.52,13.52,0,0,1-4,10.25,15.52,15.52,0,0,1-19.84.48A12.92,12.92,0,0,1,750.43,1284.49Z"/><path class="cls-2" d="M827.08,1265.13a10.2,10.2,0,0,1-4,8.39c3.72,2.13,5.57,5.48,5.57,10.08a11.87,11.87,0,0,1-4,9.47,14.08,14.08,0,0,1-9.65,3.53,14.31,14.31,0,0,1-9.71-3.53,12.08,12.08,0,0,1-4-9.47c0-4.6,1.84-7.95,5.52-10.08a10.06,10.06,0,0,1-3.9-8.39,11,11,0,0,1,3.36-8.09,12,12,0,0,1,8.69-3.35,11.69,11.69,0,0,1,8.63,3.35A10.93,10.93,0,0,1,827.08,1265.13Zm-7.66,14a6.73,6.73,0,0,0-8.76,0,6.55,6.55,0,0,0,0,8.87,6.73,6.73,0,0,0,8.76,0,6.55,6.55,0,0,0,0-8.87Zm-9.41-13.9a5.41,5.41,0,0,0,1.37,3.86,5.29,5.29,0,0,0,7.32,0,5.41,5.41,0,0,0,1.37-3.86,5.21,5.21,0,0,0-1.37-3.78,5.37,5.37,0,0,0-7.32,0A5.21,5.21,0,0,0,810,1265.26Z"/><path class="cls-2" d="M835.84,1285.15l7.13-1.31q1.14,5.81,6.29,5.81a5.69,5.69,0,0,0,4.65-1.92,8.4,8.4,0,0,0,1.59-5.51,7.71,7.71,0,0,0-1.71-5.4,6.27,6.27,0,0,0-4.88-1.86q-4.08,0-7.44,3.78l-4.73-1,2.33-23.62h21.59v7H845.25l-1,8.75a11.45,11.45,0,0,1,5.94-1.56q6.22,0,9.53,3.69t3.29,10.22a14.73,14.73,0,0,1-3.78,10.43,13.17,13.17,0,0,1-10,3.95,13.84,13.84,0,0,1-9.17-3.11A12.24,12.24,0,0,1,835.84,1285.15Z"/><path class="cls-1" d="M666.83,436.61h-1.62c-152.74,0-276.56,123.82-276.56,276.56S512.47,989.73,665.21,989.73h.24C817.59,989.75,942,866.2,942.22,715,942.42,561.24,819.2,436.71,666.83,436.61ZM885.65,561.35a264.53,264.53,0,0,1,34.24,69.29c-2.59.15-4.49.32-6.36.33H734.76a8.89,8.89,0,0,1-8.32-11.81c.52-1.48,2.91-2.61,4.68-3.27q35.36-13,70.79-25.9c25.88-9.44,51.8-18.77,77.62-28.36C882.08,560.68,884,560.48,885.65,561.35Zm-54.58-58.21a270.51,270.51,0,0,1,47.72,48.75c.08.19.17.38.27.59-1.84.89-3.4,1.81-5.07,2.42-48.63,17.67-97.33,35.17-145.85,53.12-6.51,2.41-6.89-2.2-9.33-5.29-2.86-3.63-1.3-5.7,1.7-8.21q53.12-44.44,106.08-89.08C828.06,504.2,829.39,503,831.07,503.14ZM713.6,631h-48c-16,0-32-.11-48,.08-4.59.06-5.72-1.42-5-5.92,3.8-24.57,27.81-44.55,53.56-44.3s49.21,20.63,52.63,45.39C719.42,631,716.81,631,713.6,631Zm55.13-164.73q5.21,2.19,10.31,4.58,18.63,10.68,37.24,21.39c2.1,1.44,4.17,2.9,6.23,4.4.17.25.37.52.61.83-11,9.3-21.68,18.3-32.36,27.25q-37.68,31.6-75.37,63.16c-3.84,3.22-12.83.24-13.87-4.76-.25-1.22.62-2.84,1.33-4.06q31.49-54.72,63-109.4C766.69,468.25,767.49,466.78,768.73,466.25Zm-64.44-17.87c4,.58,7.94,1.26,11.87,2q16.46,4.29,32.91,8.51c3.17,1.05,6.32,2.17,9.45,3.33.9,1.14.64,2.73-.7,5q-31.32,53.85-62.38,107.85c-1.56,2.69-3.31,4.18-6.19,2.35s-8.43-.54-8.35-5.32c3.43-19.44,6.68-37.76,9.89-56.1,3.67-20.9,7.39-41.79,10.89-62.71C702.1,450.82,702.8,449.09,704.29,448.38Zm-66.07-1.48q13.37-1.32,27-1.34A274.79,274.79,0,0,1,693.12,447c.87,1,1.12,2.55.65,5.09-7,38.59-13.78,77.22-20.45,115.87-.7,4.08-2.53,5.37-6.36,4.9s-7.91,1.64-9-5c-6.57-38.67-13.54-77.27-20.55-115.86C636.94,449.53,637.21,447.91,638.22,446.9Zm-11.84,1.45c1.66.58,2.58,2.18,3.06,5,4.73,27.71,9.69,55.38,14.57,83.07,1.94,11,3.81,22,5.8,33,.56,3,.73,5.83-3.17,6.32-3.63.46-7.34,5.67-10.95-.63q-31.43-54.76-63.12-109.36a23.83,23.83,0,0,1-1.24-3.29A265.15,265.15,0,0,1,626.38,448.35Zm-99.83,35.83c8.07-4.51,16.25-8.81,24.41-13.16q5.29-2.5,10.7-4.76c1.27.19,2.33,1.1,3.34,2.87q31.69,55.22,63.59,110.31c1.48,2.55,1.36,4.28-1.05,6.17-9,7-6.1,6.92-13.87.44q-51-42.6-101.89-85.38L507.39,497Q516.72,490.16,526.55,484.18Zm-72,63.93q1.89-2.42,3.85-4.79c.35-.39.69-.8,1.06-1.18,11.81-11.95,23.8-23.74,35.7-35.62,1.23-1,2.47-2,3.7-3,1.72-.68,3.39-.12,5.36,1.54q53.35,45,106.87,89.83c2.64,2.21,4.18,4.25,1.48,7.35-2.45,2.8-2.25,8.38-9.09,5.86-49.06-18.09-98.26-35.8-147.41-53.65-1.19-.43-2.29-1.11-4.63-2.26C452.55,550.77,453.55,549.42,454.54,548.11ZM416.28,614.6c.27-.59.51-1.19.8-1.76,8.28-16.23,17-32.25,25.53-48.35.58-.86,1.18-1.72,1.77-2.57,1.49-1.45,3.36-1.66,6.16-.63Q524.7,588.48,599,615.39c6,2.2,7.91,8.65,4.15,14a4.92,4.92,0,0,1-2.76,1.45A14.26,14.26,0,0,1,597,631q-89.62,0-179.27,0c-2,0-3.93-.22-7.19-.41Q413.16,622.48,416.28,614.6ZM399,739.07c-.44-4-.63-8-.85-12.05,23.75,0,88.79,0,109.26,0,3,0,6-.14,8.94.05,6.75.44,10.26,3,10.33,7.79.08,5.36-3.07,8.06-8,9.12-2.91.62-5.8,1.35-8.7,2-10.89,2.5-21.85,4.68-32.63,7.57-9.75,2.62-15.05,10.58-14.28,20s7.75,16.33,17.46,17.27c3,.29,6,.14,8.95.14H654.88c0,5.35.13,10.7,0,16.05-.07,4.56,1,5.59,5.59,5.63,6.47,0,20.49.15,27,0,2.65,0,4.23.57,5.33,3.39a18.23,18.23,0,0,0,8,9.54H422.54Q404.21,786,399,739.07Zm436.45-10.2a21.82,21.82,0,0,1,14.93,5.27c1,.92,2.37,1.74,2.49,3.35a1.69,1.69,0,0,1-1.38.75l-158.4.06a2.15,2.15,0,0,1-1.89-.92c1-2.78,3-5,4.74-7.46a2.59,2.59,0,0,1,2.09-1c1.05,0,2.11-.06,3.16-.06Q768.31,728.9,835.44,728.87ZM731.33,719.6c0-1.45,0-2.9,0-4.35a2.05,2.05,0,0,1,2.18-2.25c1.06,0,2.11-.07,3.17-.07l61.69,0c5.14,0,5.33.23,5.14,5.37-.12,3.33-.32,3.63-3.65,3.65-10.81,0-23.32,0-34.13,0H737c-1.06,0-2.11,0-3.17,0C732.25,722,731.33,721.26,731.33,719.6Zm-33.25,89.52A12.47,12.47,0,0,1,710.25,797a12,12,0,0,1,12.45,12.09,12.44,12.44,0,0,1-12.23,12.48A12.69,12.69,0,0,1,698.08,809.12Zm30,7c1.12-2.81,2.67-3.41,5.33-3.39,13.07.08,26.14,0,39.21,0,8.45,0,16.9.08,25.35,0,2.7,0,4.4.54,5.26,3.46a15.78,15.78,0,0,0,5.74,7.88,18.11,18.11,0,0,0,2.39,1.6H720.19A18.36,18.36,0,0,0,728.07,816.14Zm92.79,5.39a12.34,12.34,0,0,1-12.19-12,12,12,0,0,1,12-12.5,12.37,12.37,0,0,1,12.54,12.12A12.62,12.62,0,0,1,820.86,821.53ZM826.54,791a19,19,0,0,0-23.07,10.43c-.43,1-.76,2-1.14,2.95a2.19,2.19,0,0,1-2.11,1.51c-1.05,0-2.11.07-3.16.07H734.87c-5.38,0-5.39,0-5.39-5.52q0-13.66,0-27.33c0-5.17,0-5.2,5.37-5.2H852.09c5.9,0,5.91,0,5.92,5.94q0,13.46,0,26.93c0,5.16,0,5.17-5.35,5.18-3.17,0-6.34-.1-9.5,0-2.33.09-3.54-.78-4.32-3A18.29,18.29,0,0,0,826.54,791Zm-97.06-41.38c0-4.68.08-4.73,5-4.76,3.95,0,7.9,0,11.85,0,9.09,0,18.17,0,27.26,0,4.23,0,4.4.23,4.45,4.5q0,3.75,0,7.5c0,4.41-.19,4.56-4.78,4.58-6.45,0-12.91,0-19.36,0-6.71,0-13.43,0-20.15,0-4,0-4.19-.26-4.24-4.3C729.45,754.63,729.46,752.13,729.48,749.63Zm55.06-.94c.11-3.44.44-3.78,4-3.81,7.65,0,15.3,0,23,0,5.93,0,11.87,0,17.81,0,3.54,0,3.89.39,4,3.83.08,3,.09,6.07,0,9.1s-.52,3.59-3.8,3.62c-7,.06-14,0-21,0-6.6,0-13.19,0-19.79,0-3.77,0-4.11-.38-4.2-4C784.46,754.5,784.45,751.59,784.54,748.69Zm73.37,10.36c0,1.63-1.1,2.32-2.61,2.34-2.24,0-4.47,0-6.71,0v0h-5.92c-1.71,0-2.78-.71-2.79-2.55q0-5.72,0-11.45c0-1.85,1.1-2.53,2.8-2.53,4,0,7.9,0,11.85,0a2.82,2.82,0,0,1,3.17,2.75A68.06,68.06,0,0,1,857.91,759.05ZM719.33,744.9c2.87,0,3.2.41,3.28,3.22.09,3.29.08,6.58,0,9.87-.07,3-.4,3.39-3.48,3.43-6.72.08-13.43,0-20.14,0v0H680.43c-.92,0-1.84,0-2.76-.09-1.31-.14-1.95-.84-1.32-2.15A79.64,79.64,0,0,1,684.88,746c.8-1.05,2.06-1.07,3.25-1.07C698.53,744.88,708.93,744.84,719.33,744.9Zm-43.06,23,21.37,0c7,0,14,0,21,0,1.38,0,4.07-.48,4.07,1.38,0,6.72-.21,13.28,0,19.74,0,1.24,0,3.24-.57,3.82-1.41,1.41-3.26-1-4.92-1.57A18.72,18.72,0,0,0,693,801.89c-1.31,3.39-3,4.32-6.39,4.14-4.74-.25-17-.15-21.8-.13-1.84,0-3.08-.55-3-2.67.17-10.61-.13-20.76,2-31C664.47,768.84,670.73,767.94,676.27,767.94ZM813.1,936.29q-10.83,7.22-22.27,13.3c-32,17-68.54,26.44-104.57,29.11A279.86,279.86,0,0,1,578.1,965.58a253.46,253.46,0,0,1-66.47-33.24h302.2C816.19,932.34,820.07,932,813.1,936.29Zm51.81-45a304.14,304.14,0,0,1-34.62,32.43H500.8a295.09,295.09,0,0,1-40.22-38.84H870.39C868.58,887,866.79,889.19,864.91,891.29Zm12.41-15H453.53a257.13,257.13,0,0,1-26.78-42H903.9A266.19,266.19,0,0,1,877.32,876.27Zm30.76-50.59H830.27a18.92,18.92,0,0,0,8.09-9.23c1.15-2.76,2.52-3.85,5.5-3.73,5.14.22,10.3.11,15.45,0,4.21-.06,5.16-1,5.16-5.18q0-8.26,0-16.55h7.35c10.08,0,35.46-.08,49.46,0A263.5,263.5,0,0,1,908.08,825.68Zm10.81-45.47H864.48l0-31.24a22.84,22.84,0,0,0-2.06-9.61c-5-11.05-13.77-16.79-25.79-17.25-7.91-.31-14.15-.05-22.07-.09-4,0-4.16-.22-4.2-4.33,0-.26,0-.52,0-.79.08-3.64.25-3.76,3.77-4,6.07-.38,12.14.41,18.21.43,1.19,0,2.38,0,3.57-.08,1.42-.07,2-.89,2.21-2.28.38-3.14-.31-3.26-3.54-3.37-1.06,0-2.11,0-3.17,0l-3.33,0c-.72-1.37-2-5.13,3.65-8.24,3.52-2,2.68-5.1-3.19-4.24-7.22,1.06-11.57,9.59-12.75,12.23l-21.36-.49c-20.72-.06-41.45,0-62.18,0-10.7,0-5.54,0-16.24.07-3.16,0-22.59.33-22.34,3.37.19,2.21.59,2.63,3.47,2.66,6.6.07,16.23-.4,22.83-.35,4.28,0,4.46.26,4.49,4.47,0,.4,0,.8,0,1.19-.11,3.51-.29,3.73-3.93,3.78-4.36.05-10.41,0-14.77,0-3.83,0-8.66-.15-12.38.6-3.91.79-7.47,8.33-9.43,11.43-3.07,4.85-6,9.79-9.2,14.55-2.76,4.12-5.92,12.85-11.21,14.77-7.35,2.68-7.2,10-8,16.4,0,.14,0,.28,0,.43H490.61c-3.35,0-6.72.08-10.05-.22-4.36-.41-6.56-3.41-7-7.41a7.31,7.31,0,0,1,4.87-8,67.74,67.74,0,0,1,9.66-2.7c11.6-2.72,23.29-5,34.79-8.12,9.74-2.59,15.53-10.93,14.69-19.8a18.72,18.72,0,0,0-18.67-17.31c-24.41-.3-91.4-.16-121.25-.11a16.48,16.48,0,0,1,0-3.58q0-6.06.28-12.08l0-.09c0-.09,0-.17,0-.26.08-1.7.2-3.4.33-5.1l-.06,0a268.57,268.57,0,0,1,6.29-42.9,1.79,1.79,0,0,1,.26-.2c.66-2.83,1.33-5.67,1.91-8.52.69-3.35,2.55-4.73,5.87-4.55,1.67.09,3.35,0,5,0h496.3c5.29,0,7.66,0,9.1,1.57a269.86,269.86,0,0,1,1.35,139.44C922.51,780.24,920.7,780.21,918.89,780.21Z"/><path class="cls-1" d="M811.11,699.62c-.82,0-1.63,0-2.45,0l-3.14,0c-.47-.94-1.13-3.28,2.39-5.22,2.26-1.26,1.73-3.29-2-2.73-4.58.67-7.36,6-8.17,7.79l-6.82-.15c-.41-1.08-.64-3.16,2.53-4.91,2.26-1.26,1.73-3.29-2-2.73-4.32.63-7,5.43-8,7.46l-3.23-.07c-3.92-.09-64.39-1.45-64.05,2.65.14,1.71.45,2,2.68,2.06,9.37.11,18.74-.51,28.11-.52,20.64,0,41.73.77,62.53.84.92,0,1.84,0,2.75-.06,1.1-.05,1.58-.69,1.71-1.76C814.13,699.79,813.6,699.7,811.11,699.62Z"/><path class="cls-1" d="M710.48,814.12a5,5,0,0,0,4.83-4.76,4.71,4.71,0,0,0-4.88-5,4.87,4.87,0,0,0-4.88,4.66A5,5,0,0,0,710.48,814.12Z"/><path class="cls-1" d="M821,804.37a4.61,4.61,0,0,0-4.94,4.55,4.85,4.85,0,0,0,4.78,5.2,4.74,4.74,0,0,0,4.73-4.84A4.61,4.61,0,0,0,821,804.37Z"/></svg>