<svg id="Layer_1" data-name="Layer 1" xmlns="http://www.w3.org/2000/svg" viewBox="0 0 1325.14 1612.83"><defs><style>.cls-1{fill:#231f20;}.cls-2{fill:#fff;}</style></defs><polyline class="cls-1" points="-1.12 0 1332.76 0 1332.76 1612.83 -1.12 1612.83"/><rect class="cls-2" x="458.31" y="1250.1" width="433.02" height="86.65"/><path class="cls-2" d="M322.14,643.42q-5.55-9.45-16.6-16.53a81.66,81.66,0,0,0-54.48-10.54q-12.88,2.45-21.56,9.14a57.4,57.4,0,0,0-14.23,15.88,61.15,61.15,0,0,0-7.71,20.28l-7.35,38,121.44,23.5,7.35-38a61.5,61.5,0,0,0,.42-21.7A57.42,57.42,0,0,0,322.14,643.42Zm-15.33,44.81-1.62,8.33-79.8-15.44,1.61-8.33q3.09-16,13.11-25.9,11.44-11.64,34.68-7.15t29.51,19.57Q309.9,672.27,306.81,688.23Z"/><polygon class="cls-2" points="373.87 524.21 346.02 571.99 316.56 554.81 338.18 517.72 319.86 507.04 298.24 544.13 275.8 531.05 302.76 484.8 284.44 474.12 245.91 540.22 352.77 602.51 392.19 534.88 373.87 524.21"/><path class="cls-2" d="M414.57,407.7a29.9,29.9,0,0,0,13.17,4.67,67.2,67.2,0,0,0,12.64.4q5.4-.4,12.82-1.6,19.67-3.36,24.82,4.67,8.67,13.53-4.87,22.21-14.73,9.43-34.21-7.88L429.6,450a43.43,43.43,0,0,0,25.7,12.92,42.15,42.15,0,0,0,28.84-6.73q15.33-9.82,18.75-24.29t-6.2-29.5a31.43,31.43,0,0,0-9.84-10,28.78,28.78,0,0,0-13.23-4.11,103,103,0,0,0-12.67-.28,122.86,122.86,0,0,0-13.14,1.6q-20.38,2.57-25.54-5.46a10.72,10.72,0,0,1-1.55-8.66,11.77,11.77,0,0,1,5.42-7.25q8.78-5.62,21.49,1.76l9.23-20q-21-13.17-42.16.36-12.19,7.81-15.14,21.24a32.74,32.74,0,0,0,4.84,25.24A33.19,33.19,0,0,0,414.57,407.7Z"/><path class="cls-2" d="M550.3,408.63q14.9,9.19,35.83,4.08t29.92-20.13q9-15,3.4-37.85l-18.19-74.5-22.32,5.45,18.28,74.84q6.38,26.1-16.12,31.59t-28.86-20.6L534,296.66l-22.32,5.45,18.19,74.5Q535.42,399.44,550.3,408.63Z"/><path class="cls-2" d="M688.68,348.36l12,1.2L728.35,406l25.49,2.57-28.57-58.46a30.82,30.82,0,0,0,18.27-10.33q6.84-8.1,8.09-20.41,1.61-16-7.28-26.48T717.7,280.6l-44.83-4.52L660.48,399.15l22.86,2.3Zm4.92-48.88,22.15,2.23q14.41,1.46,13,15.34T713,329.49l-22.15-2.23Z"/><polygon class="cls-2" points="819.8 378.76 860.44 396.97 869.11 377.62 828.47 359.41 840.04 333.61 890.51 356.23 899.18 336.88 827.75 304.87 777.16 417.74 798.12 427.13 819.8 378.76"/><path class="cls-2" d="M905.94,497.75q14.13,13.1,28.64,13.3t26.64-12.89q15.25-16.46,6.94-34.77a20.75,20.75,0,0,0,12.8-.55A29.31,29.31,0,0,0,992.6,455q11-11.93,10-24.58t-13.23-23.94l-33.17-30.75L872.12,466.4Zm52.7-90.9,15,13.94q5.7,5.28,6.2,10.08t-4.31,10Q970.75,446,966,446t-10.2-5.11l-15.42-14.3ZM941.39,456.4Q956,470,944.74,482.15t-25.94-1.39l-15.42-14.29L926,442.1Z"/><path class="cls-2" d="M1035.94,607.43l68.16-35.15-10.53-20.42-68.47,35.31q-23.88,12.32-34.49-8.26T1003.88,546l68.47-35.32-10.53-20.41-68.16,35.15q-20.89,10.77-26.33,27.4t4.44,35.78q9.88,19.15,26.58,24.37T1035.94,607.43Z"/><path class="cls-2" d="M1130.85,674.39q-2.17-14.34-13.25-22.48a32.78,32.78,0,0,0-25-5.85,33.25,33.25,0,0,0-14,4.9,30,30,0,0,0-9.63,10.13,68,68,0,0,0-5.51,11.38q-1.82,5.1-3.75,12.37-4.92,19.33-14.36,20.77-15.9,2.42-18.31-13.48-2.62-17.29,21.12-28l-14.32-16.6a43.47,43.47,0,0,0-22.25,18.22,42.15,42.15,0,0,0-5.59,29.09q2.73,18,14.56,27t29.47,6.33a31.28,31.28,0,0,0,13.1-4.94,28.77,28.77,0,0,0,9.14-10.41,102.55,102.55,0,0,0,5.41-11.46,123.07,123.07,0,0,0,3.88-12.65q6-19.67,15.38-21.11a10.74,10.74,0,0,1,8.54,2.1,11.81,11.81,0,0,1,4.42,7.91q1.57,10.3-10.35,18.91L1114,713.05Q1134.62,699.19,1130.85,674.39Z"/><polygon class="cls-2" points="503.74 1088.09 490.04 1051.79 477.91 1051.79 477.91 1109.93 488.71 1109.93 488.71 1074.05 499.83 1104.61 507.64 1104.61 518.77 1074.05 518.77 1109.93 529.57 1109.93 529.57 1051.79 517.44 1051.79 503.74 1088.09"/><path class="cls-2" d="M578.9,1051.13a29.43,29.43,0,0,0-13.62,3.15,23.51,23.51,0,0,0-10,10.14,34,34,0,0,0-3.78,16.44q0,9.8,3.82,16.61,7.49,13.13,23.59,13.12a29.67,29.67,0,0,0,13.62-3.07,24.49,24.49,0,0,0,10-10.26,33.76,33.76,0,0,0,3.78-16.4,33.23,33.23,0,0,0-3.91-16.61Q595.17,1051.13,578.9,1051.13Zm11.71,44.51a15.16,15.16,0,0,1-11.71,5,15.56,15.56,0,0,1-11.79-5q-4.67-5.06-4.66-14.78t4.66-14.78a15.59,15.59,0,0,1,11.79-5,15.2,15.2,0,0,1,11.71,5q4.74,5,4.73,14.78T590.61,1095.64Z"/><path class="cls-2" d="M664,1073.93a13.68,13.68,0,0,0,1.5-6.44q0-7.63-4.4-11.67t-12.21-4H627.65v58.14h21.68q9,0,14.11-4.57t5.07-13q0-10.55-8.72-14.2A9.65,9.65,0,0,0,664,1073.93Zm-25.57-12.17h9.63c2.44,0,4.22.5,5.36,1.49s1.7,2.61,1.7,4.82-.56,3.82-1.66,4.82-2.83,1.49-5.15,1.49h-9.88Zm9.88,38.2h-9.88v-15.61h9.88q9.38,0,9.38,7.81T648.33,1100Z"/><rect class="cls-2" x="689.52" y="1051.79" width="10.8" height="58.14"/><polygon class="cls-2" points="759.78 1061.76 759.78 1051.79 723.82 1051.79 723.82 1109.93 760.61 1109.93 760.61 1099.96 734.62 1099.96 734.62 1083.93 754.8 1083.93 754.8 1073.97 734.62 1073.97 734.62 1061.76 759.78 1061.76"/><polygon class="cls-2" points="782.12 1051.79 782.12 1109.93 817.59 1109.93 817.59 1099.96 792.92 1099.96 792.92 1051.79 782.12 1051.79"/><polygon class="cls-2" points="874.89 1061.76 874.89 1051.79 838.93 1051.79 838.93 1109.93 875.72 1109.93 875.72 1099.96 849.72 1099.96 849.72 1083.93 869.91 1083.93 869.91 1073.97 849.72 1073.97 849.72 1061.76 874.89 1061.76"/><path class="cls-2" d="M395.78,1177.37a48,48,0,0,0-4.95-3.32,59.23,59.23,0,0,0-5.6-2.7q-8.73-4.15-8.72-8.64a5,5,0,0,1,1.58-3.82,5.58,5.58,0,0,1,4-1.49q4.9,0,8.06,6.14l8.72-5.56q-5-10.55-16.78-10.55a16.27,16.27,0,0,0-14.57,22.63,14.07,14.07,0,0,0,4,5.19,33.11,33.11,0,0,0,4.9,3.37q2.25,1.2,5.49,2.61,8.63,3.66,8.63,8.14,0,7.56-7.55,7.56-8.24,0-11.55-11.79l-8.72,5.48a20.42,20.42,0,0,0,6.89,11.62,19.8,19.8,0,0,0,13.13,4.66q8.55,0,13.58-4.86t5-13.25a14.8,14.8,0,0,0-1.37-6.44A13.46,13.46,0,0,0,395.78,1177.37Z"/><path class="cls-2" d="M465,1184.14v-36h-10.8v36.21q0,12.62-10.88,12.62t-10.88-12.62V1148.1H421.6v36q0,11,5.77,16.9t15.91,5.86q10.13,0,15.9-5.86T465,1184.14Z"/><path class="cls-2" d="M522.84,1174.55a17.12,17.12,0,0,0,2.82-9.93q0-7.55-4.65-12t-13-4.48H486.8v58.13h10.79v-25.08h5.65l15.61,25.08h12l-16.12-26A14.52,14.52,0,0,0,522.84,1174.55Zm-14.78-3.37H497.59v-13.12h10.47q6.81,0,6.81,6.56T508.06,1171.18Z"/><polygon class="cls-2" points="550.16 1206.23 560.96 1206.23 560.96 1181.32 581.89 1181.32 581.89 1171.35 560.96 1171.35 560.96 1158.06 586.96 1158.06 586.96 1148.1 550.16 1148.1 550.16 1206.23"/><path class="cls-2" d="M624,1196.93q-8.24,0-11.55-11.79l-8.72,5.48a20.42,20.42,0,0,0,6.89,11.62,19.8,19.8,0,0,0,13.13,4.66q8.55,0,13.58-4.86t5-13.25a14.8,14.8,0,0,0-1.37-6.44,13.46,13.46,0,0,0-4.19-5,48,48,0,0,0-4.95-3.32,59.23,59.23,0,0,0-5.6-2.7q-8.73-4.15-8.72-8.64a5,5,0,0,1,1.58-3.82,5.58,5.58,0,0,1,4-1.49q4.9,0,8.06,6.14l8.72-5.56q-5-10.55-16.78-10.55a16.27,16.27,0,0,0-14.57,22.63,14.07,14.07,0,0,0,4,5.19,33.11,33.11,0,0,0,4.9,3.37q2.25,1.2,5.49,2.61,8.63,3.66,8.63,8.14Q631.55,1196.93,624,1196.93Z"/><path class="cls-2" d="M669.59,1155.32q-8,7.82-8,21.84t8,21.85a26.85,26.85,0,0,0,19.51,7.89q9.48,0,15.74-4.61a22.16,22.16,0,0,0,8.35-13l-9.72-2.49q-3.9,10.13-14.37,10.13a15.55,15.55,0,0,1-11.87-5.07q-4.65-5.14-4.65-14.7t4.65-14.7a15.57,15.57,0,0,1,11.87-5.06q10.47,0,14.37,10.13l9.72-2.49a22.13,22.13,0,0,0-8.35-13q-6.27-4.61-15.74-4.61A26.85,26.85,0,0,0,669.59,1155.32Z"/><polygon class="cls-2" points="779.13 1206.23 779.13 1148.1 768.34 1148.1 768.34 1170.19 745.08 1170.19 745.08 1148.1 734.28 1148.1 734.28 1206.23 745.08 1206.23 745.08 1180.15 768.34 1180.15 768.34 1206.23 779.13 1206.23"/><path class="cls-2" d="M815.42,1150.59a23.41,23.41,0,0,0-10,10.13,34,34,0,0,0-3.78,16.44q0,9.81,3.82,16.61,7.47,13.13,23.58,13.13a29.74,29.74,0,0,0,13.63-3.08,24.5,24.5,0,0,0,10-10.25,33.83,33.83,0,0,0,3.78-16.41q0-9.71-3.9-16.61-7.23-13.11-23.51-13.12A29.32,29.32,0,0,0,815.42,1150.59Zm30.07,26.57q0,9.81-4.74,14.79a15.16,15.16,0,0,1-11.71,5,15.61,15.61,0,0,1-11.79-5q-4.65-5.07-4.65-14.79t4.65-14.78a15.61,15.61,0,0,1,11.79-5,15.16,15.16,0,0,1,11.71,5Q845.49,1167.36,845.49,1177.16Z"/><path class="cls-2" d="M904.45,1147.43a29.32,29.32,0,0,0-13.62,3.16,23.36,23.36,0,0,0-10,10.13,34,34,0,0,0-3.78,16.44q0,9.81,3.82,16.61,7.47,13.13,23.58,13.13a29.67,29.67,0,0,0,13.62-3.08,24.46,24.46,0,0,0,10-10.25,33.83,33.83,0,0,0,3.78-16.41q0-9.71-3.9-16.61Q920.73,1147.44,904.45,1147.43ZM916.16,1192a15.17,15.17,0,0,1-11.71,5,15.61,15.61,0,0,1-11.79-5q-4.65-5.07-4.65-14.79t4.65-14.78a15.61,15.61,0,0,1,11.79-5,15.17,15.17,0,0,1,11.71,5q4.74,5,4.74,14.78T916.16,1192Z"/><polygon class="cls-2" points="964 1148.1 953.2 1148.1 953.2 1206.23 988.67 1206.23 988.67 1196.27 964 1196.27 964 1148.1"/><path class="cls-2" d="M670.08,456.19h-1.62C515.72,456.19,391.9,580,391.9,732.75S515.72,1009.3,668.46,1009.3h.25c152.13,0,276.58-123.52,276.76-274.78C945.67,580.82,822.45,456.29,670.08,456.19ZM888.9,580.93a264.71,264.71,0,0,1,34.25,69.29c-2.6.14-4.5.32-6.37.32q-89.38,0-178.77,0a8.9,8.9,0,0,1-8.32-11.82c.52-1.47,2.91-2.61,4.68-3.26q35.36-13.05,70.79-25.91c25.88-9.43,51.8-18.76,77.62-28.35C885.33,580.26,887.22,580.06,888.9,580.93Zm-54.58-58.22A270.51,270.51,0,0,1,882,571.46c.08.2.17.38.27.6-1.84.88-3.4,1.81-5.07,2.42-48.63,17.67-97.33,35.17-145.85,53.12-6.51,2.41-6.89-2.2-9.33-5.29-2.86-3.64-1.3-5.7,1.7-8.21Q776.89,569.66,829.84,525C831.31,523.78,832.64,522.58,834.32,522.71ZM716.85,650.56q-24,0-48,0c-16,0-32-.12-48,.08-4.6,0-5.73-1.42-5-5.92,3.8-24.57,27.81-44.55,53.56-44.31S718.59,621,722,645.8C722.68,650.6,720.06,650.56,716.85,650.56ZM772,485.83q5.21,2.18,10.31,4.58,18.65,10.68,37.24,21.39c2.1,1.43,4.17,2.9,6.23,4.4.17.25.37.52.61.83-11,9.3-21.68,18.29-32.36,27.25l-75.37,63.16c-3.84,3.21-12.83.23-13.87-4.77-.25-1.22.63-2.83,1.33-4.06q31.49-54.72,63-109.39C770,487.83,770.74,486.36,772,485.83ZM707.54,468c4,.58,7.94,1.26,11.87,2q16.46,4.29,32.91,8.51c3.17,1,6.32,2.16,9.45,3.33.9,1.13.64,2.72-.7,5q-31.32,53.85-62.38,107.86c-1.55,2.69-3.31,4.18-6.19,2.35s-8.43-.54-8.35-5.32c3.43-19.44,6.68-37.77,9.89-56.1,3.67-20.9,7.39-41.79,10.89-62.72C705.35,470.4,706.05,468.67,707.54,468Zm-66.07-1.48q13.37-1.34,27-1.34a271.93,271.93,0,0,1,27.91,1.44c.87,1,1.12,2.54.65,5.09q-10.56,57.87-20.44,115.87c-.71,4.08-2.54,5.36-6.37,4.89s-7.9,1.65-9-5c-6.56-38.67-13.54-77.27-20.55-115.86C640.19,469.1,640.46,467.49,641.47,466.48Zm-11.84,1.45c1.66.58,2.58,2.17,3.06,5,4.73,27.72,9.69,55.39,14.57,83.07,1.94,11,3.81,22,5.8,33,.56,3,.73,5.83-3.17,6.32-3.63.46-7.34,5.67-10.95-.64q-31.43-54.75-63.12-109.36a22.8,22.8,0,0,1-1.24-3.29A265.76,265.76,0,0,1,629.63,467.93ZM529.8,503.76c8.07-4.51,16.25-8.82,24.41-13.16q5.29-2.5,10.7-4.76c1.27.19,2.33,1.1,3.34,2.87Q599.94,543.92,631.84,599c1.48,2.55,1.36,4.27-1.05,6.17-8.95,7-6.1,6.92-13.87.43Q565.91,563,515,520.24c-1.1-.92-2.22-1.85-4.38-3.67Q520,509.73,529.8,503.76Zm-72,63.92c1.26-1.6,2.54-3.2,3.85-4.78.35-.4.69-.81,1.06-1.18,11.81-12,23.8-23.75,35.7-35.62,1.23-1,2.47-2,3.71-3,1.71-.68,3.39-.12,5.35,1.53q53.35,45,106.87,89.83c2.64,2.22,4.18,4.26,1.48,7.35-2.44,2.81-2.25,8.39-9.09,5.87-49.06-18.09-98.26-35.8-147.4-53.65-1.2-.43-2.3-1.11-4.64-2.27C455.8,570.35,456.81,569,457.79,567.68Zm-38.26,66.49c.27-.58.51-1.19.8-1.76,8.28-16.23,17-32.24,25.53-48.34.58-.87,1.18-1.72,1.77-2.58,1.49-1.45,3.36-1.65,6.16-.62Q528,608.07,602.22,635c6,2.19,7.9,8.65,4.14,14a4.88,4.88,0,0,1-2.76,1.46,14.26,14.26,0,0,1-3.34.12q-89.62,0-179.27,0c-2,0-3.93-.22-7.19-.42Q416.41,642.05,419.53,634.17ZM402.24,758.64c-.44-4-.63-8-.85-12,23.75,0,88.79,0,109.26,0,3,0,6-.13,8.94.06,6.75.43,10.26,3.05,10.33,7.78.08,5.36-3.07,8.07-8,9.12-2.91.62-5.8,1.35-8.7,2-10.88,2.5-21.85,4.67-32.63,7.57-9.75,2.62-15.05,10.57-14.28,20s7.75,16.32,17.47,17.27c2.95.29,6,.14,8.94.14H658.13c0,5.34.13,10.69,0,16-.07,4.57,1,5.6,5.59,5.63,6.47.05,20.49.15,27,.05,2.64-.05,4.22.57,5.32,3.38a18.19,18.19,0,0,0,8,9.55H425.79Q407.46,805.62,402.24,758.64Zm436.45-10.19a21.82,21.82,0,0,1,14.93,5.27c1,.91,2.37,1.74,2.5,3.35a1.72,1.72,0,0,1-1.39.75q-79.2,0-158.4,0a2.13,2.13,0,0,1-1.89-.91c1-2.78,3-5.05,4.74-7.46a2.56,2.56,0,0,1,2.09-1c1.05,0,2.11-.06,3.16-.06Q771.56,748.47,838.69,748.45Zm-104.11-9.27c0-1.45,0-2.9,0-4.35a2.05,2.05,0,0,1,2.19-2.25c1.05-.05,2.1-.07,3.16-.07q30.84,0,61.69,0c5.14,0,5.33.23,5.14,5.36-.12,3.34-.32,3.64-3.65,3.66-10.81,0-23.32,0-34.13,0H740.24c-1.06,0-2.11,0-3.16,0C735.5,741.53,734.58,740.83,734.58,739.18ZM701.33,828.7a12.46,12.46,0,0,1,12.17-12.14A12,12,0,0,1,726,828.65a12.45,12.45,0,0,1-12.23,12.48A12.69,12.69,0,0,1,701.33,828.7Zm30,7c1.12-2.81,2.67-3.41,5.33-3.39,13.07.07,26.14,0,39.21,0,8.45,0,16.9.07,25.35,0,2.7,0,4.41.54,5.26,3.45a15.81,15.81,0,0,0,5.74,7.89,19.25,19.25,0,0,0,2.4,1.6H723.44A18.36,18.36,0,0,0,731.32,835.72Zm92.79,5.38a12.33,12.33,0,0,1-12.19-12,12,12,0,0,1,12-12.5,12.36,12.36,0,0,1,12.54,12.11A12.6,12.6,0,0,1,824.11,841.1Zm5.68-30.51A18.94,18.94,0,0,0,806.72,821c-.43,1-.76,2-1.14,3a2.18,2.18,0,0,1-2.11,1.51c-1.05,0-2.11.08-3.16.08H738.12c-5.38,0-5.39,0-5.39-5.53q0-13.66,0-27.32c0-5.17,0-5.2,5.37-5.2H855.34c5.9,0,5.91,0,5.92,5.93q0,13.47,0,26.93c0,5.17,0,5.17-5.35,5.19-3.17,0-6.34-.1-9.5,0-2.33.09-3.54-.78-4.32-3A18.29,18.29,0,0,0,829.79,810.59Zm-97.06-41.38c0-4.69.08-4.74,5-4.77,3.95,0,7.9,0,11.85,0,9.09,0,18.17,0,27.26,0,4.23,0,4.41.22,4.45,4.49q0,3.76,0,7.51c0,4.4-.19,4.56-4.78,4.58q-9.68,0-19.36,0c-6.71,0-13.43,0-20.14,0-4,0-4.2-.27-4.25-4.31C732.7,774.21,732.71,771.71,732.73,769.21Zm55.06-.94c.11-3.44.45-3.78,4-3.81,7.65-.05,15.3,0,23,0,5.93,0,11.87,0,17.81,0,3.54,0,3.89.38,4,3.83.09,3,.09,6.07,0,9.1S836,781,832.75,781c-7,.06-14,0-21,0-6.6,0-13.19,0-19.79,0-3.77,0-4.11-.38-4.2-4C787.72,774.08,787.71,771.17,787.79,768.27Zm73.37,10.36c0,1.62-1.09,2.31-2.61,2.33-2.24,0-4.47,0-6.71,0v0h-5.92c-1.71,0-2.78-.71-2.79-2.55,0-3.82,0-7.63,0-11.45,0-1.85,1.1-2.53,2.8-2.53,4,0,7.9,0,11.85,0a2.81,2.81,0,0,1,3.17,2.75A67,67,0,0,1,861.16,778.63ZM722.58,764.48c2.87,0,3.2.41,3.28,3.22.09,3.28.08,6.58,0,9.87-.07,3-.4,3.39-3.48,3.43-6.72.07-13.43,0-20.14,0v0H683.68a25.46,25.46,0,0,1-2.76-.1c-1.31-.14-1.95-.83-1.32-2.14a79.23,79.23,0,0,1,8.53-13.26c.8-1.06,2.06-1.07,3.25-1.07C701.78,764.45,712.18,764.41,722.58,764.48Zm-43.06,23,21.37,0c7,0,14,0,21,0,1.39,0,4.07-.49,4.07,1.38,0,6.72-.21,13.28,0,19.74,0,1.24,0,3.24-.57,3.82-1.41,1.41-3.26-1-4.92-1.58a18.74,18.74,0,0,0-24.18,10.58c-1.31,3.39-3,4.33-6.39,4.15-4.74-.25-17-.15-21.79-.13-1.85,0-3.09-.56-3.05-2.67.18-10.61-.13-20.76,2-31C667.72,788.41,674,787.52,679.52,787.52ZM816.35,955.86q-10.83,7.21-22.26,13.31c-32,17.05-68.55,26.44-104.58,29.11a279.86,279.86,0,0,1-108.16-13.12,253.5,253.5,0,0,1-66.47-33.25h302.2C819.44,951.91,823.32,951.6,816.35,955.86Zm51.81-45a305,305,0,0,1-34.62,32.43H504.05a295.67,295.67,0,0,1-40.22-38.84H873.64C871.83,906.61,870,908.77,868.16,910.87Zm12.41-15H456.78a257,257,0,0,1-26.78-42H907.16A266.43,266.43,0,0,1,880.57,895.84Zm30.76-50.58H833.52a19,19,0,0,0,8.09-9.23c1.15-2.77,2.52-3.85,5.5-3.73,5.14.22,10.3.11,15.45,0,4.21-.06,5.16-1,5.16-5.17q0-8.28,0-16.55h7.35c10.08,0,35.46-.08,49.46,0A264.17,264.17,0,0,1,911.33,845.26Zm10.81-45.47H867.73q0-15.63,0-31.25a23,23,0,0,0-2.07-9.61c-5-11-13.77-16.78-25.79-17.24-7.91-.31-14.15-.05-22.07-.09-4,0-4.16-.23-4.19-4.33,0-.26,0-.53,0-.79.08-3.64.25-3.76,3.78-4,6.06-.38,12.13.42,18.2.44,1.19,0,2.38,0,3.57-.08,1.42-.07,2-.89,2.21-2.28.38-3.15-.31-3.26-3.54-3.37-1.06,0-2.11,0-3.17,0l-3.33-.05c-.72-1.37-2-5.13,3.65-8.24,3.52-1.95,2.68-5.11-3.19-4.24-7.22,1.06-11.56,9.59-12.75,12.22l-21.36-.48c-20.72-.07-41.45,0-62.18,0-10.7,0-5.54,0-16.24.07-3.15,0-22.59.33-22.34,3.37.19,2.21.59,2.62,3.47,2.66,6.6.07,16.23-.41,22.83-.36,4.28,0,4.46.27,4.49,4.48,0,.4,0,.79,0,1.19-.11,3.51-.29,3.73-3.93,3.77-4.35.06-10.41,0-14.77,0-3.83,0-8.66-.15-12.38.6-3.91.79-7.47,8.33-9.43,11.43-3.07,4.85-6,9.78-9.2,14.55-2.76,4.12-5.92,12.84-11.21,14.77-7.35,2.67-7.2,10-8,16.4,0,.14,0,.28,0,.42H493.86c-3.35,0-6.72.08-10.05-.23-4.36-.4-6.56-3.4-7-7.4a7.31,7.31,0,0,1,4.87-8,66.45,66.45,0,0,1,9.66-2.7c11.6-2.72,23.29-5.06,34.8-8.12,9.73-2.59,15.52-10.94,14.68-19.8a18.71,18.71,0,0,0-18.67-17.31c-24.41-.3-91.4-.16-121.25-.11a16.48,16.48,0,0,1,0-3.58c0-4,.1-8.07.28-12.09l0-.08a2.26,2.26,0,0,0,0-.26c.08-1.7.2-3.4.33-5.1l-.06,0a268.69,268.69,0,0,1,6.29-42.91l.26-.19c.66-2.83,1.33-5.67,1.91-8.52.69-3.35,2.55-4.74,5.87-4.55,1.67.09,3.35,0,5,0h496.3c5.29,0,7.66,0,9.1,1.57a269.86,269.86,0,0,1,1.35,139.44C925.76,799.82,924,799.79,922.14,799.79Z"/><path class="cls-2" d="M814.36,719.2c-.82,0-1.63,0-2.45,0l-3.14-.05c-.47-.94-1.13-3.28,2.39-5.23,2.26-1.25,1.73-3.28-2-2.72-4.58.67-7.36,6-8.17,7.78l-6.82-.15c-.41-1.08-.64-3.15,2.53-4.91,2.27-1.25,1.73-3.28-2-2.72-4.32.63-7,5.43-8,7.46l-3.23-.07c-3.91-.1-64.39-1.46-64.05,2.65.14,1.71.45,2,2.68,2,9.37.11,18.74-.5,28.11-.51,20.64,0,41.73.77,62.53.84.92,0,1.84,0,2.75-.06,1.1-.06,1.58-.69,1.71-1.76C817.39,719.37,816.85,719.28,814.36,719.2Z"/><path class="cls-2" d="M713.73,833.7a5,5,0,0,0,4.83-4.76,4.71,4.71,0,0,0-4.88-5,4.89,4.89,0,0,0-4.88,4.66A5,5,0,0,0,713.73,833.7Z"/><path class="cls-2" d="M824.27,824a4.62,4.62,0,0,0-4.94,4.55,4.84,4.84,0,0,0,4.78,5.19,4.72,4.72,0,0,0,4.73-4.83A4.6,4.6,0,0,0,824.27,824Z"/><path class="cls-1" d="M503,1310.92H492.08v-35H503a17.33,17.33,0,0,1,6.05,1,16.42,16.42,0,0,1,5.18,3.1,14.22,14.22,0,0,1,3.7,5.5,23.17,23.17,0,0,1,0,15.7,14.15,14.15,0,0,1-3.7,5.5,16.24,16.24,0,0,1-5.18,3.1A17.33,17.33,0,0,1,503,1310.92Zm-4.45-29v23H501a13.68,13.68,0,0,0,7.9-2.25q3.86-2.55,3.85-9.25t-3.85-9.25a13.68,13.68,0,0,0-7.9-2.25Z"/><path class="cls-1" d="M528.18,1310.92v-35h21.65v6H534.68v7.35h12.15v6H534.68v9.65h15.65v6Z"/><path class="cls-1" d="M578.93,1281.87l-5.25,3.35c-1.26-2.46-2.88-3.7-4.85-3.7a3.37,3.37,0,0,0-2.4.9,3,3,0,0,0-.95,2.3c0,1.8,1.75,3.54,5.25,5.2a35.48,35.48,0,0,1,3.38,1.63,28.18,28.18,0,0,1,3,2,8.08,8.08,0,0,1,2.53,3,8.85,8.85,0,0,1,.82,3.87,10.6,10.6,0,0,1-3,8,11.27,11.27,0,0,1-8.18,2.92,11.93,11.93,0,0,1-7.9-2.8,12.3,12.3,0,0,1-4.15-7l5.25-3.3q2,7.11,7,7.1c3,0,4.55-1.51,4.55-4.55q0-2.7-5.2-4.9c-1.3-.56-2.4-1.09-3.3-1.57a18.94,18.94,0,0,1-2.95-2,8.45,8.45,0,0,1-2.42-3.12,9.46,9.46,0,0,1-.78-4.13,9.31,9.31,0,0,1,9.55-9.5A10.36,10.36,0,0,1,578.93,1281.87Z"/><path class="cls-1" d="M608.23,1275.92h6.5v21.7q0,6.66-3.47,10.18t-9.58,3.52c-4.06,0-7.26-1.17-9.57-3.52s-3.48-5.74-3.48-10.18v-21.7h6.5v21.8q0,7.6,6.55,7.6t6.55-7.6Z"/><path class="cls-1" d="M647.28,1285.87a10.25,10.25,0,0,1-1.7,6,8.69,8.69,0,0,1-4.85,3.42l9.7,15.65h-7.25l-9.4-15.1h-3.4v15.1h-6.5v-35h12.75q5.05,0,7.85,2.7A9.6,9.6,0,0,1,647.28,1285.87Zm-16.9,4h6.3c2.73,0,4.1-1.31,4.1-4s-1.37-3.95-4.1-3.95h-6.3Z"/><path class="cls-1" d="M658,1310.92v-35h22.15v6H664.53v8h12.6v6h-12.6v15Z"/><path class="cls-1" d="M688.93,1310.92v-35h12.8a10.48,10.48,0,0,1,7.35,2.43c1.77,1.61,2.65,4,2.65,7a8.25,8.25,0,0,1-.9,3.88,5.81,5.81,0,0,1-2.55,2.57q5.25,2.21,5.25,8.55,0,5.06-3,7.8c-2,1.84-4.87,2.75-8.5,2.75Zm12.3-29h-5.8v7.6h6a4.54,4.54,0,0,0,3.1-.9,4.67,4.67,0,0,0,0-5.8A4.83,4.83,0,0,0,701.23,1281.92Zm.15,13.6h-6v9.4h6c3.77,0,5.65-1.56,5.65-4.7S705.15,1295.52,701.38,1295.52Z"/><path class="cls-1" d="M741.43,1275.92h6.5v21.7q0,6.66-3.47,10.18t-9.58,3.52q-6.11,0-9.57-3.52t-3.48-10.18v-21.7h6.5v21.8q0,7.6,6.55,7.6t6.55-7.6Z"/><path class="cls-1" d="M777.18,1281.87l-5.25,3.35c-1.27-2.46-2.88-3.7-4.85-3.7a3.34,3.34,0,0,0-2.4.9,3,3,0,0,0-.95,2.3c0,1.8,1.75,3.54,5.25,5.2a35.48,35.48,0,0,1,3.38,1.63,28.18,28.18,0,0,1,3,2,8.18,8.18,0,0,1,2.53,3,8.85,8.85,0,0,1,.82,3.87,10.6,10.6,0,0,1-3,8,11.28,11.28,0,0,1-8.18,2.92,11.92,11.92,0,0,1-7.9-2.8,12.3,12.3,0,0,1-4.15-7l5.25-3.3q2,7.11,7,7.1c3,0,4.55-1.51,4.55-4.55q0-2.7-5.2-4.9c-1.3-.56-2.4-1.09-3.3-1.57a18.94,18.94,0,0,1-2.95-2,8.35,8.35,0,0,1-2.42-3.12,9.46,9.46,0,0,1-.78-4.13,9.31,9.31,0,0,1,9.55-9.5A10.37,10.37,0,0,1,777.18,1281.87Z"/><path class="cls-1" d="M791.23,1311.22a4.1,4.1,0,1,1,3-1.2A4.07,4.07,0,0,1,791.23,1311.22Z"/><path class="cls-1" d="M826.63,1299v-23.1h6.5v35h-6.85l-12.85-23.1v23.1h-6.5v-35h6.85Z"/><path class="cls-1" d="M843.28,1310.92v-35h6.5v29h14.85v6Z"/></svg>