<svg id="Layer_1" data-name="Layer 1" xmlns="http://www.w3.org/2000/svg" viewBox="0 0 1325.14 1612.83"><defs><style>.cls-1{fill:#a4c5c9;}.cls-2{fill:#ed8440;}.cls-3{fill:#f8df67;}.cls-4{fill:#faf1b0;}.cls-5{fill:#231f20;}.cls-6{fill:#fff;}.cls-7{fill:#be202e;}</style></defs><polygon class="cls-1" points="939.91 738.41 929.97 801.08 475.2 799.79 473 780.46 525.95 766.94 535.52 752.26 519.45 738.41 396.53 738.41 397.83 695.25 409.32 652.4 927.13 652.4 938.37 693.6 939.91 738.41"/><polygon class="cls-2" points="407.1 651.91 448.36 564.9 508.3 509.77 575.1 472.84 637.77 462.3 706.44 462.3 771.83 479.43 832.02 512.33 889.83 570.78 929.75 651.91 407.1 651.91"/><path class="cls-3" d="M728.24,652.4c0-32.87-26.65-57-59.52-57s-59.52,24.09-59.52,57Z"/><path class="cls-4" d="M399.17,741.56c22.91-2.09,55.36-3.15,55.36-3.15l64.92,1.86,16.07,12L526,766.94l-53,13.52-4.32,14,14.91,12.15,448.72.19-52.14,96.36L808.91,967l-70.77,27.42-78.33,10.38L557.19,983.33,466.44,916l-54.95-88.35-15.16-84.56Z"/><path class="cls-5" d="M322,642.13q-5.55-9.43-16.6-16.53a81.66,81.66,0,0,0-54.48-10.54q-12.89,2.46-21.56,9.15a57.5,57.5,0,0,0-14.23,15.87,61.29,61.29,0,0,0-7.71,20.29l-7.35,38,121.44,23.5,7.35-38a61.5,61.5,0,0,0,.42-21.7A57.54,57.54,0,0,0,322,642.13ZM306.66,687,305,695.28l-79.8-15.44,1.61-8.33q3.09-16,13.11-25.9,11.44-11.64,34.68-7.15T304.15,658Q309.75,671,306.66,687Z"/><polygon class="cls-5" points="373.72 522.92 345.87 570.71 316.41 553.53 338.03 516.43 319.71 505.76 298.09 542.85 275.65 529.77 302.61 483.52 284.29 472.84 245.76 538.94 352.62 601.23 392.04 533.6 373.72 522.92"/><path class="cls-5" d="M414.42,406.41a29.79,29.79,0,0,0,13.17,4.68,67.2,67.2,0,0,0,12.64.4q5.4-.42,12.82-1.6,19.67-3.37,24.82,4.66,8.67,13.54-4.87,22.22-14.73,9.44-34.21-7.88l-9.34,19.83a43.49,43.49,0,0,0,25.7,12.92A42.15,42.15,0,0,0,484,454.91q15.33-9.82,18.75-24.29t-6.2-29.5a31.43,31.43,0,0,0-9.84-10,28.78,28.78,0,0,0-13.23-4.11,103,103,0,0,0-12.67-.28,120.32,120.32,0,0,0-13.14,1.6q-20.39,2.56-25.54-5.47a10.69,10.69,0,0,1-1.55-8.65A11.82,11.82,0,0,1,426,367q8.77-5.61,21.49,1.77l9.23-20q-21-13.17-42.16.36-12.19,7.82-15.14,21.24a32.74,32.74,0,0,0,4.84,25.24A33.16,33.16,0,0,0,414.42,406.41Z"/><path class="cls-5" d="M550.15,407.35q14.9,9.18,35.83,4.07T615.9,391.3q9-15,3.4-37.85L601.11,279l-22.32,5.45,18.28,74.84q6.38,26.1-16.12,31.59t-28.86-20.61l-18.27-74.84-22.32,5.45,18.19,74.5Q535.27,398.16,550.15,407.35Z"/><path class="cls-5" d="M688.53,347.08l12,1.2L728.2,404.7l25.49,2.57-28.57-58.46a30.87,30.87,0,0,0,18.27-10.33q6.84-8.1,8.09-20.41,1.6-16-7.28-26.48t-26.65-12.28l-44.83-4.51L660.33,397.87l22.86,2.3Zm4.92-48.88,22.16,2.23q14.4,1.45,13,15.34t-15.81,12.44L690.66,326Z"/><polygon class="cls-5" points="819.65 377.48 860.29 395.69 868.96 376.34 828.32 358.13 839.89 332.33 890.36 354.95 899.03 335.6 827.6 303.58 777.01 416.46 797.97 425.85 819.65 377.48"/><path class="cls-5" d="M905.79,496.47q14.13,13.09,28.64,13.29t26.64-12.88q15.25-16.45,6.94-34.78a20.74,20.74,0,0,0,12.8-.54,29.23,29.23,0,0,0,11.64-7.89q11-11.91,10-24.57t-13.23-23.94L956.06,374.4,872,465.12Zm52.7-90.9,15,13.94q5.7,5.28,6.2,10.08t-4.31,10q-4.81,5.18-9.56,5.11t-10.2-5.12l-15.42-14.29Zm-17.25,49.55q14.64,13.56,3.35,25.75t-25.94-1.39l-15.42-14.3,22.59-24.36Z"/><path class="cls-5" d="M1035.79,606.15,1104,571l-10.53-20.41L1025,585.89q-23.88,12.32-34.49-8.26t13.27-32.88l68.47-35.32L1061.67,489l-68.16,35.15q-20.89,10.77-26.33,27.39t4.44,35.79q9.89,19.15,26.58,24.36T1035.79,606.15Z"/><path class="cls-5" d="M1130.7,673.1q-2.17-14.33-13.25-22.47a32.69,32.69,0,0,0-25-5.85,33.25,33.25,0,0,0-14,4.9,29.87,29.87,0,0,0-9.63,10.13,68,68,0,0,0-5.51,11.38q-1.82,5.1-3.75,12.37-4.92,19.34-14.36,20.77-15.9,2.42-18.31-13.48-2.62-17.29,21.12-28.06l-14.32-16.59a43.42,43.42,0,0,0-22.25,18.22,42.15,42.15,0,0,0-5.59,29.09q2.73,18,14.56,27t29.47,6.33a31.42,31.42,0,0,0,13.1-4.94,28.77,28.77,0,0,0,9.14-10.41,102.55,102.55,0,0,0,5.41-11.46,123.86,123.86,0,0,0,3.88-12.65q6-19.68,15.38-21.11a10.77,10.77,0,0,1,8.55,2.1,11.82,11.82,0,0,1,4.41,7.91q1.57,10.31-10.35,18.91l14.49,16.56Q1134.46,697.92,1130.7,673.1Z"/><polygon class="cls-5" points="503.59 1086.8 489.89 1050.51 477.76 1050.51 477.76 1108.65 488.56 1108.65 488.56 1072.77 499.69 1103.33 507.49 1103.33 518.62 1072.77 518.62 1108.65 529.42 1108.65 529.42 1050.51 517.29 1050.51 503.59 1086.8"/><path class="cls-5" d="M578.75,1049.85a29.43,29.43,0,0,0-13.62,3.15,23.48,23.48,0,0,0-10,10.13,34,34,0,0,0-3.78,16.45q0,9.8,3.82,16.61,7.49,13.13,23.59,13.12a29.67,29.67,0,0,0,13.62-3.07,24.6,24.6,0,0,0,10-10.26,33.76,33.76,0,0,0,3.78-16.4q0-9.72-3.91-16.61Q595,1049.85,578.75,1049.85Zm11.71,44.51a15.19,15.19,0,0,1-11.71,5,15.58,15.58,0,0,1-11.79-5q-4.66-5.07-4.65-14.78t4.65-14.79a15.58,15.58,0,0,1,11.79-5,15.19,15.19,0,0,1,11.71,5q4.74,5,4.73,14.79T590.46,1094.36Z"/><path class="cls-5" d="M663.88,1072.64a13.76,13.76,0,0,0,1.49-6.43q0-7.65-4.4-11.67t-12.21-4H627.5v58.14h21.68q9,0,14.11-4.57t5.07-13q0-10.55-8.72-14.2A9.75,9.75,0,0,0,663.88,1072.64Zm-25.58-12.16h9.63c2.44,0,4.22.49,5.36,1.49s1.7,2.6,1.7,4.82-.55,3.82-1.66,4.82-2.83,1.49-5.15,1.49H638.3Zm9.88,38.2H638.3v-15.61h9.88q9.39,0,9.38,7.8T648.18,1098.68Z"/><rect class="cls-5" x="689.37" y="1050.51" width="10.8" height="58.14"/><polygon class="cls-5" points="759.63 1060.48 759.63 1050.51 723.67 1050.51 723.67 1108.65 760.46 1108.65 760.46 1098.68 734.47 1098.68 734.47 1082.65 754.65 1082.65 754.65 1072.68 734.47 1072.68 734.47 1060.48 759.63 1060.48"/><polygon class="cls-5" points="781.97 1050.51 781.97 1108.65 817.44 1108.65 817.44 1098.68 792.77 1098.68 792.77 1050.51 781.97 1050.51"/><polygon class="cls-5" points="874.74 1060.48 874.74 1050.51 838.78 1050.51 838.78 1108.65 875.57 1108.65 875.57 1098.68 849.57 1098.68 849.57 1082.65 869.76 1082.65 869.76 1072.68 849.57 1072.68 849.57 1060.48 874.74 1060.48"/><path class="cls-5" d="M395.63,1176.09a48,48,0,0,0-4.95-3.32,54.67,54.67,0,0,0-5.6-2.7q-8.73-4.15-8.72-8.64a5,5,0,0,1,1.58-3.82,5.54,5.54,0,0,1,4-1.49q4.9,0,8.06,6.14l8.72-5.56q-5-10.54-16.78-10.55a16.27,16.27,0,0,0-14.57,22.63,14,14,0,0,0,4,5.19,31.7,31.7,0,0,0,4.89,3.36q2.25,1.22,5.49,2.62,8.63,3.66,8.63,8.14,0,7.56-7.55,7.56-8.23,0-11.55-11.8l-8.72,5.48a20.41,20.41,0,0,0,6.89,11.63,19.84,19.84,0,0,0,13.13,4.65q8.55,0,13.58-4.86t5-13.24a14.8,14.8,0,0,0-1.37-6.44A13.46,13.46,0,0,0,395.63,1176.09Z"/><path class="cls-5" d="M464.81,1182.86v-36H454V1183q0,12.63-10.88,12.63T432.25,1183v-36.21h-10.8v36q0,11,5.78,16.9t15.9,5.85q10.13,0,15.9-5.85T464.81,1182.86Z"/><path class="cls-5" d="M522.69,1173.27a17.15,17.15,0,0,0,2.82-9.93q0-7.56-4.65-12t-13-4.49H486.65V1205h10.79v-25.08h5.65L518.7,1205h12l-16.12-26A14.46,14.46,0,0,0,522.69,1173.27Zm-14.78-3.37H497.44v-13.12h10.47q6.81,0,6.81,6.56T507.91,1169.9Z"/><polygon class="cls-5" points="550.01 1204.95 560.81 1204.95 560.81 1180.03 581.74 1180.03 581.74 1170.07 560.81 1170.07 560.81 1156.78 586.8 1156.78 586.8 1146.81 550.01 1146.81 550.01 1204.95"/><path class="cls-5" d="M623.85,1195.65q-8.24,0-11.55-11.8l-8.72,5.48a20.41,20.41,0,0,0,6.89,11.63,19.84,19.84,0,0,0,13.13,4.65q8.55,0,13.58-4.86t5-13.24a14.8,14.8,0,0,0-1.37-6.44,13.46,13.46,0,0,0-4.19-5,48,48,0,0,0-4.95-3.32,54.67,54.67,0,0,0-5.6-2.7q-8.73-4.15-8.72-8.64a5,5,0,0,1,1.58-3.82,5.54,5.54,0,0,1,4-1.49q4.91,0,8.06,6.14l8.72-5.56q-5-10.54-16.78-10.55a16.27,16.27,0,0,0-14.57,22.63,14.07,14.07,0,0,0,4,5.19,32.22,32.22,0,0,0,4.9,3.36q2.25,1.22,5.49,2.62,8.63,3.66,8.63,8.14Q631.4,1195.65,623.85,1195.65Z"/><path class="cls-5" d="M669.44,1154q-8,7.8-8,21.84t8,21.84a26.85,26.85,0,0,0,19.51,7.89q9.48,0,15.74-4.61a22.11,22.11,0,0,0,8.35-13l-9.72-2.5q-3.9,10.14-14.37,10.14a15.55,15.55,0,0,1-11.87-5.07q-4.65-5.14-4.65-14.7t4.65-14.7a15.54,15.54,0,0,1,11.87-5.06q10.47,0,14.37,10.13l9.72-2.49a22.1,22.1,0,0,0-8.35-13q-6.27-4.6-15.74-4.61A26.85,26.85,0,0,0,669.44,1154Z"/><polygon class="cls-5" points="778.98 1204.95 778.98 1146.81 768.19 1146.81 768.19 1168.9 744.93 1168.9 744.93 1146.81 734.13 1146.81 734.13 1204.95 744.93 1204.95 744.93 1178.87 768.19 1178.87 768.19 1204.95 778.98 1204.95"/><path class="cls-5" d="M815.27,1149.3a23.49,23.49,0,0,0-10,10.14,34,34,0,0,0-3.78,16.44q0,9.8,3.82,16.61,7.47,13.13,23.59,13.12a29.72,29.72,0,0,0,13.62-3.07,24.47,24.47,0,0,0,10-10.26,33.76,33.76,0,0,0,3.78-16.4q0-9.72-3.9-16.61-7.23-13.12-23.5-13.12A29.45,29.45,0,0,0,815.27,1149.3Zm30.07,26.58q0,9.8-4.73,14.78a15.16,15.16,0,0,1-11.71,5,15.59,15.59,0,0,1-11.8-5q-4.65-5.06-4.65-14.78t4.65-14.78a15.62,15.62,0,0,1,11.8-5,15.19,15.19,0,0,1,11.71,5Q845.34,1166.08,845.34,1175.88Z"/><path class="cls-5" d="M904.3,1146.15a29.43,29.43,0,0,0-13.62,3.15,23.44,23.44,0,0,0-10,10.14,34,34,0,0,0-3.78,16.44q0,9.8,3.82,16.61,7.47,13.13,23.58,13.12a29.67,29.67,0,0,0,13.62-3.07,24.43,24.43,0,0,0,10-10.26,33.76,33.76,0,0,0,3.78-16.4q0-9.72-3.9-16.61Q920.58,1146.15,904.3,1146.15ZM916,1190.66a15.15,15.15,0,0,1-11.71,5,15.59,15.59,0,0,1-11.79-5q-4.65-5.06-4.65-14.78t4.65-14.78a15.61,15.61,0,0,1,11.79-5,15.17,15.17,0,0,1,11.71,5q4.74,5,4.74,14.78T916,1190.66Z"/><polygon class="cls-5" points="963.85 1146.81 953.05 1146.81 953.05 1204.95 988.52 1204.95 988.52 1194.98 963.85 1194.98 963.85 1146.81"/><polygon class="cls-6" points="865.3 783.83 670.23 783.83 685.35 761.17 865.3 761.17 865.3 783.83"/><path class="cls-7" d="M849.33,743.92l-2.11-.35a7.58,7.58,0,0,0-2-.32c-6.68-1.12-5.8.79-12.48-.32a13.73,13.73,0,0,0-4.43,0l-2.53-.18a11.09,11.09,0,0,0-2.33-.33c-13.87-.46-27.74-.94-41.58.07-26.79-1.56-53.85-2-80.66-1.37a10.75,10.75,0,0,0-2.06.25c-4.56,1.51-8.11,5.08-13,13.34-2.69,4.54,4.37,8,10.21,7.69a689.54,689.54,0,0,1,81.07-.23,33.34,33.34,0,0,0,5.4.38c2.53,2.69,6.54.75,10.39-1.25l5.17.3c.08.5.15-1.25.23-.8,0-.45,0,1.31,0,.81l4.17.24c1,1.16,2,0,3,0,1.39,0,12.32-1.17,14-1.68l.72,0a63,63,0,0,0,8.66.5c1.69,0,3.29,2.23,4.71,1.47a32.41,32.41,0,0,0,5,1.07c3.75.47,8.28-1.39,12.13-1.7l.55,0,2.6.16c5,.31,4.93-1.85,5.49-6.58S854.4,744.77,849.33,743.92Z"/><path class="cls-7" d="M863.34,801.29c0-4.74-.19-9.48-.48-14.21a5.05,5.05,0,0,0-8.74-3.47,4.17,4.17,0,0,0-.74.41c-1.93,1.34-3.28,1.33-5.53.8A67.77,67.77,0,0,1,840,782c-4.66-1.67-10-1.5-14.83-.89-5.49.69-10.87,1.89-16.27,3.1-2.14.48-4.39,1-6.51,1.3a30.23,30.23,0,0,1-4,.21q-1,0-2-.09l-.85-.07a2.2,2.2,0,0,1-.6-.07c-6.18-.87-12.12-3-18.32-3.85a5.46,5.46,0,0,0-5.5,2.07l-32.27,1.86-.29,0a8.14,8.14,0,0,0-5.16.71,4.76,4.76,0,0,0-5.51,2.05,4.48,4.48,0,0,0-3-2.39,132.64,132.64,0,0,0-45.34-2c-2.05.27-11.36,1.05-12.19,3.12-.2.49,7.24-2.78,7.19-2.28-1.83.34-10.84,5.45-11.5,7.36a52.58,52.58,0,0,0-2.51,11.63c-.37,3.36-.87,7.69.79,10.77a7,7,0,0,0,1.1,1.52l0,4.07a5.16,5.16,0,0,0,.27,1.56,4.75,4.75,0,0,0-.2,1.38c0,2.19,9.13,4.36,11.28,4.89a18.92,18.92,0,0,0,8.72.1l.09.05c6.37,3.48,12.37-1.86,13.67-8l.33-.32c.94-.92,1.83-1.91,2.7-2.91,1.7,0,3.68-.83,4.37-2.46a10.15,10.15,0,0,1,1.8-2.92l.26,0,10.16.73c2.36.23,4.71,3.43,7.08,3.54,1.74.08,3.32-3.95,4.24-5.38a48.57,48.57,0,0,0,2.38,12.34,5.22,5.22,0,0,0,4.89,3.73c2.37-.08,4.74-.13,7.1-.18a5.33,5.33,0,0,0,4.75,1.46,5.15,5.15,0,0,0,2.44.59,29.29,29.29,0,0,0,10.12-1.77c.91,0,1.83-.05,2.76,0a4.37,4.37,0,0,0,2.11-.46q19.71.1,39.41,1.15a5.14,5.14,0,0,0,5.08-5.08,4.83,4.83,0,0,0-.36-1.84c5-2.64,10.33-8,15.85-8.36a22.12,22.12,0,0,1,4.15.08c-.06,0,1,.2,1.22.24.79.18,1.55,3.14,2.32,3.37l.5.17.74.35a17.78,17.78,0,0,1,1.59.92l.55.38.49.42c.26.24.51.48.75.74.07.06.56.63.5.54,1.9,2.49,2.72,5.53,5.22,7.63A11.5,11.5,0,0,0,852,829.07c3.34-.81,9.79-.34,11.61-2.79,1.87-.75-1-5-.72-7.06.19-1.59.33-3.17.43-4.76.08-.57.14-1.15.18-1.72A101.78,101.78,0,0,0,863.34,801.29Z"/><path class="cls-6" d="M838.29,819.85c-3.16-6.1-7.63-10.14-14.52-7.93a15.69,15.69,0,0,0-2.27.94,14.48,14.48,0,0,0-7.9,2.45c-9.57,6.27-8.87,19.41,1.1,25.49,4.28,2.61,8.28,5.2,12.74,4l.57,0c5.58,0,8-3.46,10.47-8.34A18.63,18.63,0,0,0,838.29,819.85Z"/><path class="cls-6" d="M708,810.12a14.1,14.1,0,0,0-9.31,8.65c-3.27,3.89-1.68,9.24-.13,14.41a16.07,16.07,0,0,0,.89,2.3,15.79,15.79,0,0,0,4.47,6.61c6.76,5.95,16.29,5.47,21.6-2.16,4.83-4.63,6-12.27,2.89-18.82C724.79,813.42,716.62,807.61,708,810.12Z"/><path class="cls-5" d="M669.94,454.9h-1.63c-152.74,0-276.56,123.82-276.56,276.56S515.57,1008,668.31,1008h.25c152.13,0,276.58-123.52,276.76-274.78C945.52,579.54,822.3,455,669.94,454.9ZM888.75,579.64A265,265,0,0,1,923,648.93c-2.6.15-4.5.33-6.37.33q-89.39,0-178.77,0a8.9,8.9,0,0,1-8.32-11.82c.52-1.47,2.91-2.61,4.68-3.26q35.35-13.07,70.79-25.91c25.88-9.43,51.8-18.77,77.62-28.36C885.18,579,887.07,578.77,888.75,579.64Zm-54.58-58.21a270.51,270.51,0,0,1,47.72,48.75l.27.6c-1.84.88-3.4,1.81-5.07,2.41-48.63,17.68-97.33,35.18-145.85,53.13-6.51,2.41-6.89-2.2-9.33-5.3-2.86-3.63-1.3-5.69,1.7-8.2q53.13-44.45,106.08-89.08C831.16,522.5,832.49,521.3,834.17,521.43ZM716.7,649.27h-48c-16,0-32-.12-48,.08-4.6,0-5.73-1.42-5-5.93,3.8-24.56,27.81-44.54,53.56-44.3s49.21,20.63,52.63,45.39C722.53,649.32,719.91,649.28,716.7,649.27Zm55.13-164.72q5.2,2.18,10.32,4.58,18.63,10.67,37.23,21.38c2.1,1.44,4.17,2.91,6.23,4.41.17.25.37.52.61.82-11,9.3-21.68,18.3-32.36,27.26q-37.67,31.59-75.37,63.15c-3.84,3.22-12.83.24-13.86-4.76-.26-1.22.62-2.83,1.32-4.06q31.49-54.72,63-109.39C769.8,486.55,770.59,485.08,771.83,484.55Zm-64.44-17.87q6,.87,11.87,2,16.46,4.28,32.91,8.51c3.17,1,6.32,2.16,9.45,3.32.9,1.14.64,2.73-.7,5Q729.6,539.4,698.54,593.4c-1.55,2.7-3.31,4.19-6.19,2.36s-8.43-.55-8.35-5.32c3.43-19.44,6.68-37.77,9.89-56.1,3.67-20.9,7.39-41.79,10.89-62.72C705.2,469.12,705.9,467.39,707.39,466.68Zm-66.07-1.48q13.36-1.33,27-1.34a271.93,271.93,0,0,1,27.91,1.44c.87,1,1.12,2.54.65,5.09q-10.56,57.87-20.44,115.87c-.71,4.08-2.54,5.36-6.36,4.89s-7.91,1.65-9-5c-6.56-38.66-13.54-77.26-20.54-115.85C640,467.82,640.31,466.21,641.32,465.2Zm-11.83,1.44c1.65.59,2.57,2.18,3,5,4.73,27.71,9.69,55.39,14.57,83.07,1.94,11,3.81,22,5.81,33,.55,3,.72,5.83-3.18,6.32-3.63.45-7.34,5.66-11-.64Q607.37,538.63,575.67,484a24.68,24.68,0,0,1-1.24-3.29A265.71,265.71,0,0,1,629.49,466.64Zm-99.84,35.83c8.07-4.5,16.25-8.81,24.41-13.15q5.3-2.51,10.7-4.76c1.27.19,2.33,1.1,3.34,2.86q31.7,55.23,63.59,110.32c1.48,2.55,1.36,4.27-1.05,6.17-8.95,7.05-6.1,6.92-13.87.43q-51-42.6-101.89-85.38l-4.38-3.67Q519.83,508.45,529.65,502.47Zm-72,63.93c1.26-1.61,2.54-3.2,3.85-4.79.35-.39.69-.8,1.06-1.17,11.81-12,23.8-23.75,35.7-35.63q1.85-1.51,3.71-3c1.71-.68,3.39-.13,5.35,1.53q53.35,45,106.87,89.83c2.64,2.22,4.18,4.26,1.48,7.35-2.44,2.8-2.25,8.39-9.09,5.87-49.06-18.09-98.26-35.8-147.4-53.65-1.2-.43-2.3-1.11-4.64-2.27C455.65,569.07,456.66,567.71,457.64,566.4Zm-38.26,66.49c.27-.58.51-1.19.8-1.76,8.28-16.23,17-32.24,25.53-48.34.58-.87,1.18-1.72,1.77-2.58,1.49-1.45,3.36-1.65,6.16-.63q74.16,27.21,148.43,54.11c6,2.19,7.9,8.65,4.14,14a4.88,4.88,0,0,1-2.76,1.46,14.26,14.26,0,0,1-3.34.12q-89.62,0-179.27,0c-2,0-3.93-.22-7.19-.42Q416.26,640.77,419.38,632.89ZM402.09,757.36c-.44-4-.63-8-.85-12,23.75,0,88.79,0,109.26,0,3,0,6-.13,8.94.06,6.75.43,10.26,3.05,10.33,7.78.08,5.36-3.07,8.07-8,9.12-2.91.62-5.8,1.35-8.7,2-10.88,2.49-21.85,4.67-32.63,7.57-9.75,2.62-15,10.57-14.28,20s7.75,16.32,17.47,17.27c3,.29,6,.14,8.94.14H658c-.05,5.35.13,10.7,0,16-.07,4.57,1,5.59,5.59,5.63,6.47,0,20.49.15,27,0,2.64,0,4.22.58,5.32,3.39a18.2,18.2,0,0,0,8,9.54H425.64Q407.31,804.33,402.09,757.36Zm436.45-10.2a21.83,21.83,0,0,1,14.93,5.28c1.06.91,2.37,1.73,2.5,3.34a1.7,1.7,0,0,1-1.39.76l-158.4.05a2.12,2.12,0,0,1-1.89-.92c1-2.77,3-5,4.74-7.45a2.53,2.53,0,0,1,2.09-1c1,0,2.11-.07,3.16-.07Q771.42,747.19,838.54,747.16ZM734.43,737.9c0-1.45,0-2.9,0-4.35a2.06,2.06,0,0,1,2.19-2.26c1,0,2.1-.07,3.16-.07l61.69,0c5.14,0,5.33.23,5.14,5.36-.12,3.33-.32,3.64-3.65,3.65-10.81.05-23.32,0-34.13,0H740.09c-1.06,0-2.11,0-3.16,0C735.35,740.25,734.43,739.55,734.43,737.9Zm-33.25,89.51a12.47,12.47,0,0,1,12.17-12.14,12.05,12.05,0,0,1,12.45,12.09,12.45,12.45,0,0,1-12.23,12.49A12.7,12.7,0,0,1,701.18,827.41Zm30,7c1.12-2.81,2.67-3.41,5.33-3.4,13.07.08,26.14,0,39.21,0,8.45,0,16.9.07,25.35,0,2.7,0,4.41.54,5.26,3.45a15.81,15.81,0,0,0,5.74,7.89,19.17,19.17,0,0,0,2.4,1.59H723.29A18.29,18.29,0,0,0,731.17,834.44ZM824,839.82a12.35,12.35,0,0,1-12.19-12,12,12,0,0,1,12-12.51,12.38,12.38,0,0,1,12.54,12.12A12.6,12.6,0,0,1,824,839.82Zm5.68-30.52a19,19,0,0,0-23.07,10.43c-.43,1-.76,2-1.14,2.95a2.18,2.18,0,0,1-2.11,1.51c-1.05,0-2.11.07-3.16.07H738c-5.38,0-5.39,0-5.39-5.52q0-13.66,0-27.33c0-5.16,0-5.19,5.37-5.19q29.5,0,59,0h58.22c5.9,0,5.91,0,5.92,5.94q0,13.47,0,26.93c0,5.17,0,5.17-5.36,5.18-3.17,0-6.34-.1-9.5,0-2.33.1-3.54-.77-4.32-3A18.31,18.31,0,0,0,829.64,809.3Zm-97.06-41.37c0-4.69.08-4.74,5-4.77,4,0,7.9,0,11.85,0,9.09,0,18.17,0,27.26,0,4.23,0,4.41.22,4.45,4.49,0,2.5,0,5,0,7.51,0,4.4-.19,4.56-4.78,4.58-6.45,0-12.9,0-19.36,0-6.71,0-13.43,0-20.14,0-4,0-4.2-.26-4.25-4.3C732.55,772.93,732.56,770.43,732.58,767.93Zm55.06-.94c.11-3.44.45-3.79,4-3.81,7.65-.06,15.3,0,23,0,5.93,0,11.87,0,17.81,0,3.54,0,3.89.38,4,3.83.09,3,.09,6.07,0,9.1s-.52,3.58-3.8,3.61c-7,.07-14,0-21,0-6.6,0-13.19,0-19.79,0-3.77,0-4.11-.38-4.2-4C787.57,772.79,787.56,769.89,787.64,767ZM861,777.35c0,1.62-1.09,2.31-2.61,2.33-2.23,0-4.47,0-6.71,0v0h-5.92c-1.71,0-2.78-.71-2.79-2.55q0-5.73,0-11.45c0-1.85,1.1-2.53,2.8-2.53,4,0,7.9,0,11.85,0a2.82,2.82,0,0,1,3.17,2.75A67.15,67.15,0,0,1,861,777.35ZM722.43,763.2c2.87,0,3.2.4,3.28,3.21.09,3.29.09,6.59,0,9.88-.07,3-.4,3.39-3.48,3.42-6.71.08-13.43,0-20.14,0H683.53a25.46,25.46,0,0,1-2.76-.1c-1.31-.14-1.95-.84-1.32-2.15A79.14,79.14,0,0,1,688,764.25c.8-1.06,2.06-1.07,3.25-1.07C701.63,763.17,712,763.13,722.43,763.2Zm-43.06,23h21.37c7,0,14,0,21,0,1.39,0,4.07-.49,4.07,1.38,0,6.72-.21,13.28,0,19.74,0,1.23,0,3.24-.57,3.81-1.41,1.42-3.26-.95-4.92-1.57a18.73,18.73,0,0,0-24.18,10.58c-1.31,3.39-3.05,4.32-6.39,4.15-4.74-.25-17.05-.15-21.79-.14-1.85,0-3.09-.55-3-2.66.18-10.61-.13-20.76,2-31C667.57,787.13,673.83,786.23,679.37,786.23ZM816.2,954.58q-10.83,7.21-22.26,13.31c-32,17.05-68.55,26.43-104.58,29.1A279.67,279.67,0,0,1,581.2,983.88a253.8,253.8,0,0,1-66.47-33.25h302.2C819.29,950.63,823.18,950.31,816.2,954.58Zm51.81-45A305,305,0,0,1,833.39,942H503.9a295.73,295.73,0,0,1-40.22-38.85H873.49C871.68,905.32,869.89,907.48,868,909.59Zm12.41-15H456.63a257,257,0,0,1-26.78-42H907A266.43,266.43,0,0,1,880.42,894.56ZM911.18,844H833.37a18.85,18.85,0,0,0,8.09-9.22c1.15-2.77,2.53-3.86,5.5-3.73,5.14.21,10.3.11,15.45,0,4.21-.06,5.16-1,5.16-5.17q0-8.28,0-16.56h7.35c10.08,0,35.47-.07,49.46,0A263.5,263.5,0,0,1,911.18,844ZM922,798.5H867.58q0-15.62,0-31.24a23,23,0,0,0-2.07-9.61c-5-11-13.77-16.78-25.79-17.25-7.91-.3-14.15,0-22.07-.09-4,0-4.16-.22-4.19-4.32,0-.26,0-.53,0-.79.08-3.64.25-3.77,3.78-4,6.06-.38,12.13.41,18.2.43,1.19,0,2.38,0,3.57-.07,1.42-.07,2-.9,2.21-2.29.38-3.14-.31-3.26-3.54-3.36-1,0-2.11,0-3.17,0l-3.33,0c-.72-1.37-2-5.13,3.65-8.25,3.52-1.94,2.68-5.1-3.19-4.23-7.22,1.06-11.56,9.59-12.74,12.22l-21.36-.48c-20.73-.07-41.46,0-62.19,0-10.7,0-5.54,0-16.24.06-3.15,0-22.59.34-22.34,3.37.19,2.21.59,2.63,3.47,2.66,6.6.08,16.23-.4,22.83-.35,4.28,0,4.46.26,4.49,4.48,0,.39,0,.79,0,1.19-.12,3.51-.3,3.73-3.94,3.77-4.35.06-10.41,0-14.77,0-3.83,0-8.66-.15-12.38.6-3.91.78-7.46,8.33-9.43,11.43-3.07,4.85-6,9.78-9.2,14.55-2.76,4.11-5.92,12.84-11.21,14.77-7.35,2.67-7.2,10-8,16.39,0,.15,0,.29,0,.43H493.71c-3.35,0-6.72.09-10-.22-4.36-.4-6.56-3.4-7-7.41a7.3,7.3,0,0,1,4.87-8,67.77,67.77,0,0,1,9.66-2.71c11.6-2.71,23.29-5,34.8-8.11,9.73-2.59,15.52-10.94,14.68-19.8A18.73,18.73,0,0,0,522,734.94c-24.41-.29-91.4-.15-121.25-.1a16.57,16.57,0,0,1,0-3.59q0-6.06.28-12.08s0-.06,0-.08a2.26,2.26,0,0,0,0-.26c.08-1.7.2-3.41.33-5.11l-.06,0a268.73,268.73,0,0,1,6.29-42.9c.09-.06.17-.14.26-.19.66-2.84,1.33-5.67,1.91-8.52.69-3.35,2.56-4.74,5.87-4.56,1.67.1,3.35,0,5,0H917c5.29,0,7.66,0,9.1,1.56a269.61,269.61,0,0,1,1.35,139.45C925.61,798.54,923.8,798.5,922,798.5Z"/><path class="cls-5" d="M814.21,717.91c-.82,0-1.63,0-2.45,0-.43,0-1.59,0-3.14,0-.47-.94-1.13-3.28,2.39-5.23,2.26-1.25,1.73-3.28-2-2.73-4.58.68-7.36,6-8.17,7.79l-6.82-.15c-.41-1.08-.64-3.15,2.53-4.91,2.27-1.25,1.73-3.28-2-2.73-4.32.64-7,5.44-8,7.47l-3.23-.08c-3.91-.09-64.39-1.45-64.05,2.66.14,1.71.45,2,2.68,2,9.37.11,18.74-.5,28.11-.51,20.64,0,41.73.77,62.53.84.92,0,1.84,0,2.75-.06,1.1-.06,1.58-.69,1.71-1.77C817.24,718.09,816.7,718,814.21,717.91Z"/><path class="cls-5" d="M713.58,832.42a5,5,0,0,0,4.84-4.76,4.73,4.73,0,0,0-4.89-5,4.89,4.89,0,0,0-4.88,4.66A5,5,0,0,0,713.58,832.42Z"/><path class="cls-5" d="M824.12,822.67a4.62,4.62,0,0,0-4.94,4.55,4.84,4.84,0,0,0,4.78,5.19,4.72,4.72,0,0,0,4.73-4.83A4.59,4.59,0,0,0,824.12,822.67Z"/><rect class="cls-5" x="449.16" y="1248.56" width="433.02" height="86.65"/><path class="cls-6" d="M491.35,1309.38h-11v-35h11a17.37,17.37,0,0,1,6,1,16.38,16.38,0,0,1,5.17,3.1,14.22,14.22,0,0,1,3.7,5.5,23,23,0,0,1,0,15.7,14.15,14.15,0,0,1-3.7,5.5,16.19,16.19,0,0,1-5.17,3.1A17.37,17.37,0,0,1,491.35,1309.38Zm-4.45-29v23h2.4a13.7,13.7,0,0,0,7.9-2.25q3.84-2.55,3.85-9.25t-3.85-9.25a13.7,13.7,0,0,0-7.9-2.25Z"/><path class="cls-6" d="M516.5,1309.38v-35h21.65v6H523v7.35h12.15v6H523v9.65h15.65v6Z"/><path class="cls-6" d="M567.25,1280.33l-5.25,3.35c-1.27-2.46-2.89-3.7-4.85-3.7a3.34,3.34,0,0,0-2.4.9,3,3,0,0,0-1,2.3c0,1.8,1.75,3.54,5.25,5.2a32.89,32.89,0,0,1,3.37,1.63,29.26,29.26,0,0,1,3,2,8.15,8.15,0,0,1,2.52,3,8.86,8.86,0,0,1,.83,3.87,10.57,10.57,0,0,1-3,8,11.26,11.26,0,0,1-8.17,2.92,11.9,11.9,0,0,1-7.9-2.8,12.25,12.25,0,0,1-4.15-7l5.25-3.3q2,7.11,7,7.1c3,0,4.55-1.51,4.55-4.55,0-1.8-1.74-3.43-5.2-4.9-1.3-.56-2.4-1.09-3.3-1.57a19.17,19.17,0,0,1-3-2,8.45,8.45,0,0,1-2.43-3.12,9.55,9.55,0,0,1,8.78-13.63A10.37,10.37,0,0,1,567.25,1280.33Z"/><path class="cls-6" d="M596.55,1274.38h6.5v21.7q0,6.66-3.48,10.18t-9.57,3.52q-6.11,0-9.58-3.52T577,1296.08v-21.7h6.5v21.8q0,7.6,6.55,7.6t6.55-7.6Z"/><path class="cls-6" d="M635.6,1284.33a10.32,10.32,0,0,1-1.7,6,8.72,8.72,0,0,1-4.85,3.42l9.7,15.65H631.5l-9.4-15.1h-3.4v15.1h-6.5v-35H625q5,0,7.85,2.7A9.63,9.63,0,0,1,635.6,1284.33Zm-16.9,4H625c2.73,0,4.1-1.31,4.1-4s-1.37-3.95-4.1-3.95h-6.3Z"/><path class="cls-6" d="M646.35,1309.38v-35H668.5v6H652.85v8h12.6v6h-12.6v15Z"/><path class="cls-6" d="M677.25,1309.38v-35h12.8a10.48,10.48,0,0,1,7.35,2.43c1.76,1.61,2.65,4,2.65,7a8.25,8.25,0,0,1-.9,3.88,5.81,5.81,0,0,1-2.55,2.57q5.25,2.21,5.25,8.55,0,5.06-3.05,7.8c-2,1.84-4.87,2.75-8.5,2.75Zm12.3-29h-5.8v7.6h6a4.54,4.54,0,0,0,3.1-.9,3.74,3.74,0,0,0,1-2.9,3.69,3.69,0,0,0-1-2.9A4.8,4.8,0,0,0,689.55,1280.38Zm.15,13.6h-6v9.4h6c3.76,0,5.65-1.56,5.65-4.7S693.46,1294,689.7,1294Z"/><path class="cls-6" d="M729.75,1274.38h6.5v21.7q0,6.66-3.48,10.18t-9.57,3.52q-6.11,0-9.58-3.52t-3.47-10.18v-21.7h6.5v21.8q0,7.6,6.55,7.6t6.55-7.6Z"/><path class="cls-6" d="M765.5,1280.33l-5.25,3.35c-1.27-2.46-2.89-3.7-4.86-3.7a3.33,3.33,0,0,0-2.39.9,3,3,0,0,0-1,2.3c0,1.8,1.75,3.54,5.25,5.2a32.19,32.19,0,0,1,3.38,1.63,28.18,28.18,0,0,1,3,2,8.08,8.08,0,0,1,2.53,3,8.86,8.86,0,0,1,.83,3.87,10.57,10.57,0,0,1-3,8,11.27,11.27,0,0,1-8.18,2.92,11.93,11.93,0,0,1-7.9-2.8,12.29,12.29,0,0,1-4.14-7l5.25-3.3q2,7.11,7,7.1c3,0,4.55-1.51,4.55-4.55q0-2.7-5.21-4.9c-1.29-.56-2.4-1.09-3.29-1.57a19.7,19.7,0,0,1-3-2,8.53,8.53,0,0,1-2.42-3.12,9.54,9.54,0,0,1,8.77-13.63A10.37,10.37,0,0,1,765.5,1280.33Z"/><path class="cls-6" d="M779.55,1309.68a4.1,4.1,0,1,1,3-1.2A4.07,4.07,0,0,1,779.55,1309.68Z"/><path class="cls-6" d="M814.94,1297.48v-23.1h6.5v35h-6.85l-12.85-23.1v23.1h-6.5v-35h6.85Z"/><path class="cls-6" d="M831.59,1309.38v-35h6.5v29h14.85v6Z"/></svg>