<svg id="Layer_1" data-name="Layer 1" xmlns="http://www.w3.org/2000/svg" viewBox="0 0 1325.14 1612.83"><defs><style>.cls-1{fill:#a4c5c9;}.cls-2{fill:#ed8440;}.cls-3{fill:#f8df67;}.cls-4{fill:#faf1b0;}.cls-5{fill:#231f20;}.cls-6{fill:#fff;}.cls-7{fill:#be202e;}</style></defs><polygon class="cls-1" points="930.01 747.35 920.06 810.02 465.29 808.72 463.09 789.39 516.04 775.88 525.61 761.19 509.54 747.35 386.62 747.35 387.92 704.18 399.41 661.34 917.22 661.34 928.46 702.53 930.01 747.35"/><polygon class="cls-2" points="397.19 660.84 438.45 573.83 498.39 518.7 565.19 481.77 627.86 471.23 696.53 471.23 761.92 488.37 822.11 521.26 879.92 579.71 919.84 660.84 397.19 660.84"/><path class="cls-3" d="M718.33,661.34c0-32.88-26.64-57-59.52-57s-59.52,24.08-59.52,57Z"/><path class="cls-4" d="M389.27,750.49c22.9-2.09,55.35-3.14,55.35-3.14l64.92,1.86,16.07,12L516,775.88l-52.95,13.51-4.32,14,14.91,12.16,448.72.18-52.14,96.37L799,976l-70.77,27.42-78.33,10.38L547.28,992.27,456.53,924.9l-54.95-88.34L386.42,752Z"/><rect class="cls-5" x="448.25" y="1257.75" width="433.02" height="86.65"/><path class="cls-5" d="M312.08,651.07q-5.55-9.45-16.6-16.53A81.62,81.62,0,0,0,241,624q-12.9,2.46-21.57,9.14A57.54,57.54,0,0,0,205.21,649a61.23,61.23,0,0,0-7.71,20.28l-7.35,38,121.44,23.5,7.35-38a61.44,61.44,0,0,0,.42-21.69A57.47,57.47,0,0,0,312.08,651.07Zm-15.33,44.82-1.61,8.32-79.81-15.44,1.61-8.32q3.09-16,13.12-25.9,11.43-11.65,34.67-7.15T294.25,667Q299.83,679.93,296.75,695.89Z"/><polygon class="cls-5" points="363.81 531.86 335.96 579.64 306.5 562.47 328.12 525.37 309.8 514.69 288.18 551.79 265.74 538.71 292.7 492.45 274.38 481.77 235.85 547.87 342.71 610.16 382.13 542.54 363.81 531.86"/><path class="cls-5" d="M404.51,415.35A29.94,29.94,0,0,0,417.68,420a68.14,68.14,0,0,0,12.64.41q5.4-.42,12.82-1.61,19.67-3.36,24.82,4.67,8.67,13.54-4.87,22.21-14.73,9.44-34.21-7.87l-9.33,19.82a43.4,43.4,0,0,0,25.69,12.92,42.14,42.14,0,0,0,28.85-6.73q15.32-9.81,18.75-24.29t-6.21-29.5a31.29,31.29,0,0,0-9.84-9.95A28.67,28.67,0,0,0,463.56,396a105.07,105.07,0,0,0-12.67-.28,125.51,125.51,0,0,0-13.14,1.6q-20.38,2.58-25.54-5.46a10.75,10.75,0,0,1-1.55-8.66,11.81,11.81,0,0,1,5.42-7.25q8.78-5.62,21.49,1.76l9.23-20q-21-13.19-42.16.36-12.19,7.82-15.14,21.24a32.71,32.71,0,0,0,4.84,25.23A33.09,33.09,0,0,0,404.51,415.35Z"/><path class="cls-5" d="M540.24,416.28q14.89,9.2,35.83,4.08T606,400.23q9-15,3.4-37.84l-18.19-74.5-22.31,5.44,18.27,74.85q6.38,26.08-16.12,31.58t-28.86-20.6l-18.27-74.84-22.32,5.44,18.19,74.5Q525.36,407.11,540.24,416.28Z"/><path class="cls-5" d="M678.62,356l12,1.2,27.71,56.43,25.49,2.56-28.57-58.46a30.82,30.82,0,0,0,18.27-10.33q6.84-8.1,8.09-20.4,1.6-16-7.28-26.49t-26.65-12.27l-44.83-4.51L650.42,406.81l22.86,2.3Zm4.92-48.87,22.16,2.23q14.41,1.44,13,15.34T702.9,337.14l-22.15-2.23Z"/><polygon class="cls-5" points="809.74 386.41 850.38 404.63 859.05 385.27 818.41 367.06 829.98 341.26 880.45 363.88 889.12 344.54 817.69 312.52 767.1 425.39 788.06 434.79 809.74 386.41"/><path class="cls-5" d="M895.88,505.41Q910,518.49,924.52,518.7t26.65-12.89q15.26-16.46,6.93-34.77a20.75,20.75,0,0,0,12.8-.55,29.2,29.2,0,0,0,11.64-7.88q11.06-11.92,10-24.57t-13.23-24l-33.17-30.75-84.09,90.71Zm52.7-90.9,15,13.93q5.7,5.3,6.2,10.08t-4.31,10q-4.8,5.19-9.56,5.12t-10.2-5.12l-15.42-14.3Zm-17.25,49.54q14.64,13.57,3.35,25.76t-25.94-1.4l-15.42-14.29,22.59-24.36Z"/><path class="cls-5" d="M1025.88,615.08,1094,579.93l-10.53-20.42L1015,594.83q-23.88,12.31-34.48-8.27t13.26-32.88l68.47-35.31L1051.76,498,983.6,533.1q-20.88,10.77-26.33,27.4t4.44,35.78q9.88,19.17,26.58,24.37T1025.88,615.08Z"/><path class="cls-5" d="M1120.79,682q-2.18-14.32-13.25-22.47a32.74,32.74,0,0,0-25-5.86,33.29,33.29,0,0,0-14,4.9,30,30,0,0,0-9.64,10.13,68.08,68.08,0,0,0-5.51,11.39q-1.82,5.1-3.75,12.36-4.92,19.34-14.36,20.77-15.88,2.41-18.31-13.48-2.62-17.29,21.12-28l-14.32-16.59a43.45,43.45,0,0,0-22.25,18.21,42.16,42.16,0,0,0-5.59,29.09q2.73,18,14.56,27t29.47,6.34a31.42,31.42,0,0,0,13.1-4.94,28.71,28.71,0,0,0,9.14-10.42A103.35,103.35,0,0,0,1067.6,709a124.15,124.15,0,0,0,3.88-12.66q6-19.67,15.39-21.1a10.67,10.67,0,0,1,8.54,2.1,11.85,11.85,0,0,1,4.42,7.9q1.56,10.31-10.36,18.91L1104,720.7Q1124.56,706.84,1120.79,682Z"/><polygon class="cls-5" points="493.68 1095.74 479.98 1059.45 467.85 1059.45 467.85 1117.58 478.65 1117.58 478.65 1081.7 489.78 1112.27 497.58 1112.27 508.71 1081.7 508.71 1117.58 519.51 1117.58 519.51 1059.45 507.38 1059.45 493.68 1095.74"/><path class="cls-5" d="M568.84,1058.78a29.32,29.32,0,0,0-13.62,3.16,23.43,23.43,0,0,0-10,10.13,34,34,0,0,0-3.78,16.44q0,9.81,3.82,16.61,7.49,13.13,23.59,13.13a29.67,29.67,0,0,0,13.62-3.08,24.52,24.52,0,0,0,10-10.25,33.8,33.8,0,0,0,3.78-16.41q0-9.71-3.91-16.61Q585.13,1058.79,568.84,1058.78Zm11.71,44.52a15.19,15.19,0,0,1-11.71,5,15.58,15.58,0,0,1-11.79-5q-4.65-5.07-4.65-14.79t4.65-14.78a15.58,15.58,0,0,1,11.79-5,15.19,15.19,0,0,1,11.71,5q4.74,5,4.73,14.78T580.55,1103.3Z"/><path class="cls-5" d="M654,1081.58a13.8,13.8,0,0,0,1.49-6.44q0-7.64-4.4-11.67c-2.94-2.68-7-4-12.21-4H617.59v58.13h21.68q9,0,14.11-4.57t5.07-13q0-10.55-8.72-14.2A9.8,9.8,0,0,0,654,1081.58Zm-25.58-12.17H638c2.44,0,4.22.5,5.36,1.5s1.7,2.6,1.7,4.81-.55,3.82-1.66,4.82-2.82,1.5-5.15,1.5h-9.88Zm9.88,38.21h-9.88V1092h9.88q9.39,0,9.38,7.81T638.27,1107.62Z"/><rect class="cls-5" x="679.46" y="1059.45" width="10.8" height="58.14"/><polygon class="cls-5" points="749.72 1069.41 749.72 1059.45 713.76 1059.45 713.76 1117.58 750.55 1117.58 750.55 1107.62 724.56 1107.62 724.56 1091.59 744.74 1091.59 744.74 1081.62 724.56 1081.62 724.56 1069.41 749.72 1069.41"/><polygon class="cls-5" points="772.06 1059.45 772.06 1117.58 807.53 1117.58 807.53 1107.62 782.86 1107.62 782.86 1059.45 772.06 1059.45"/><polygon class="cls-5" points="864.83 1069.41 864.83 1059.45 828.87 1059.45 828.87 1117.58 865.66 1117.58 865.66 1107.62 839.66 1107.62 839.66 1091.59 859.85 1091.59 859.85 1081.62 839.66 1081.62 839.66 1069.41 864.83 1069.41"/><path class="cls-5" d="M385.72,1185a50.89,50.89,0,0,0-4.94-3.32,60.82,60.82,0,0,0-5.61-2.7q-8.71-4.15-8.72-8.63a5,5,0,0,1,1.58-3.82,5.55,5.55,0,0,1,4-1.5q4.9,0,8.06,6.15l8.72-5.57q-5-10.55-16.78-10.55a16.28,16.28,0,0,0-14.57,22.64,14,14,0,0,0,4,5.19,31.27,31.27,0,0,0,4.9,3.36c1.49.8,3.32,1.68,5.48,2.62q8.64,3.64,8.63,8.13,0,7.56-7.55,7.56-8.22,0-11.55-11.79l-8.72,5.48a20.4,20.4,0,0,0,6.9,11.63,19.8,19.8,0,0,0,13.12,4.65q8.55,0,13.58-4.86t5-13.25a14.75,14.75,0,0,0-1.37-6.43A13.56,13.56,0,0,0,385.72,1185Z"/><path class="cls-5" d="M454.9,1191.79v-36H444.1V1192q0,12.63-10.88,12.62T422.34,1192v-36.21h-10.8v36q0,11.06,5.78,16.9t15.9,5.86q10.13,0,15.9-5.86T454.9,1191.79Z"/><path class="cls-5" d="M512.78,1182.2a17.12,17.12,0,0,0,2.83-9.92q0-7.56-4.66-12t-13-4.48H476.74v58.13h10.79V1188.8h5.65l15.62,25.08h12l-16.11-26A14.49,14.49,0,0,0,512.78,1182.2ZM498,1178.84H487.53v-13.13H498q6.81,0,6.81,6.57T498,1178.84Z"/><polygon class="cls-5" points="540.11 1213.88 550.9 1213.88 550.9 1188.97 571.83 1188.97 571.83 1179 550.9 1179 550.9 1165.71 576.9 1165.71 576.9 1155.75 540.11 1155.75 540.11 1213.88"/><path class="cls-5" d="M613.94,1204.58q-8.22,0-11.55-11.79l-8.72,5.48a20.4,20.4,0,0,0,6.9,11.63,19.8,19.8,0,0,0,13.12,4.65q8.55,0,13.58-4.86t5-13.25a14.75,14.75,0,0,0-1.37-6.43,13.56,13.56,0,0,0-4.19-5,50.89,50.89,0,0,0-4.94-3.32,60.82,60.82,0,0,0-5.61-2.7q-8.71-4.15-8.72-8.63a5,5,0,0,1,1.58-3.82,5.55,5.55,0,0,1,4-1.5q4.9,0,8.06,6.15l8.72-5.57q-5-10.55-16.78-10.55a16.28,16.28,0,0,0-14.57,22.64,14,14,0,0,0,4,5.19,31.27,31.27,0,0,0,4.9,3.36c1.49.8,3.32,1.68,5.48,2.62q8.63,3.64,8.63,8.13Q621.49,1204.58,613.94,1204.58Z"/><path class="cls-5" d="M659.53,1163q-8,7.82-8,21.85t8,21.84a26.86,26.86,0,0,0,19.52,7.89q9.47,0,15.73-4.61a22.13,22.13,0,0,0,8.35-13l-9.72-2.49q-3.9,10.14-14.36,10.13a15.59,15.59,0,0,1-11.88-5.06q-4.65-5.16-4.65-14.7t4.65-14.7a15.57,15.57,0,0,1,11.88-5.07q10.46,0,14.36,10.13l9.72-2.49a22.16,22.16,0,0,0-8.35-13q-6.27-4.61-15.73-4.61A26.86,26.86,0,0,0,659.53,1163Z"/><polygon class="cls-5" points="769.07 1213.88 769.07 1155.75 758.28 1155.75 758.28 1177.84 735.02 1177.84 735.02 1155.75 724.23 1155.75 724.23 1213.88 735.02 1213.88 735.02 1187.81 758.28 1187.81 758.28 1213.88 769.07 1213.88"/><path class="cls-5" d="M805.37,1158.24a23.43,23.43,0,0,0-10,10.13,34,34,0,0,0-3.78,16.45q0,9.79,3.82,16.61,7.47,13.13,23.59,13.12a29.85,29.85,0,0,0,13.62-3.07,24.58,24.58,0,0,0,10-10.26,33.76,33.76,0,0,0,3.78-16.4q0-9.72-3.9-16.61-7.23-13.12-23.5-13.13A29.38,29.38,0,0,0,805.37,1158.24Zm30.06,26.58q0,9.79-4.73,14.78a15.19,15.19,0,0,1-11.71,5,15.62,15.62,0,0,1-11.8-5q-4.65-5.07-4.65-14.78t4.65-14.79a15.62,15.62,0,0,1,11.8-5,15.19,15.19,0,0,1,11.71,5Q835.43,1175,835.43,1184.82Z"/><path class="cls-5" d="M894.39,1155.08a29.44,29.44,0,0,0-13.62,3.16,23.46,23.46,0,0,0-10,10.13,34,34,0,0,0-3.78,16.45q0,9.79,3.82,16.61,7.47,13.13,23.58,13.12a29.79,29.79,0,0,0,13.62-3.07,24.55,24.55,0,0,0,10-10.26,33.76,33.76,0,0,0,3.78-16.4q0-9.72-3.9-16.61Q910.67,1155.09,894.39,1155.08Zm11.71,44.52a15.16,15.16,0,0,1-11.71,5,15.61,15.61,0,0,1-11.79-5q-4.65-5.07-4.65-14.78T882.6,1170a15.61,15.61,0,0,1,11.79-5,15.16,15.16,0,0,1,11.71,5q4.74,5,4.74,14.79T906.1,1199.6Z"/><polygon class="cls-5" points="953.94 1155.75 943.14 1155.75 943.14 1213.88 978.61 1213.88 978.61 1203.92 953.94 1203.92 953.94 1155.75"/><path class="cls-6" d="M481,1286.61a14.37,14.37,0,0,1,22.9,0q4,5.64,4,15.76t-4,15.83q-4,5.63-11.45,5.63A13.24,13.24,0,0,1,481,1318.2q-4-5.64-4-15.83T481,1286.61Zm11.45,30.27q8,0,8-14.51t-8-14.5q-8,0-8,14.5T492.47,1316.88Z"/><path class="cls-6" d="M537.73,1280.92l-9.11,15.58h1a13.2,13.2,0,0,1,13.54,13.67,12.92,12.92,0,0,1-4,9.77,14.82,14.82,0,0,1-20,0,12.93,12.93,0,0,1-4-9.77,14.36,14.36,0,0,1,2-7.38l12.23-21.87Zm-15.11,29.25a6.59,6.59,0,0,0,1.86,4.82,6.62,6.62,0,0,0,9.23,0,6.57,6.57,0,0,0,1.86-4.85,6.67,6.67,0,0,0-1.8-4.89,6.89,6.89,0,0,0-9.35,0A6.67,6.67,0,0,0,522.62,1310.17Z"/><path class="cls-6" d="M565.36,1288.59l12.29-7.2h3.29v42h-7.55v-31.41l-8,4.8Z"/><path class="cls-6" d="M588.5,1281.39h25.41v3.12l-15.82,38.84h-7.44l14.33-35H588.5Z"/><path class="cls-6" d="M634.29,1288.59l12.29-7.2h3.29v42h-7.55v-31.41l-8,4.8Z"/><path class="cls-6" d="M682.84,1323.35h-7.55v-7.79h-18v-3.84l17.68-30.33h7.91v27.22h4.68v7h-4.68Zm-7.55-30.75-8.87,16h8.87Z"/><path class="cls-6" d="M708.79,1311.72l7.26-1q1.49,6.11,6.77,6.11a6.39,6.39,0,0,0,4.8-1.92,7,7,0,0,0,1.85-5.09,7.75,7.75,0,0,0-1.79-5.43,6.21,6.21,0,0,0-4.8-1.94,7.62,7.62,0,0,0-3.66.89l-3-4.19,7.91-10.85H710.77v-7h24V1284l-9.89,13.37q1.44-.12,1.68-.12a9.35,9.35,0,0,1,7.61,3.42,13.74,13.74,0,0,1,2.82,9,13.52,13.52,0,0,1-4,10.25,15.52,15.52,0,0,1-19.84.48A12.89,12.89,0,0,1,708.79,1311.72Z"/><path class="cls-6" d="M743.62,1311.72l7.25-1q1.5,6.11,6.77,6.11a6.39,6.39,0,0,0,4.8-1.92,7,7,0,0,0,1.86-5.09,7.7,7.7,0,0,0-1.8-5.43,6.2,6.2,0,0,0-4.79-1.94,7.62,7.62,0,0,0-3.66.89l-3-4.19,7.91-10.85H745.6v-7h24V1284l-9.89,13.37q1.44-.12,1.68-.12a9.34,9.34,0,0,1,7.61,3.42,13.74,13.74,0,0,1,2.82,9,13.52,13.52,0,0,1-4,10.25,15.52,15.52,0,0,1-19.84.48A12.92,12.92,0,0,1,743.62,1311.72Z"/><path class="cls-6" d="M820.28,1292.36a10.23,10.23,0,0,1-3.95,8.39c3.71,2.13,5.57,5.48,5.57,10.08a11.91,11.91,0,0,1-4,9.47,14.13,14.13,0,0,1-9.66,3.53,14.33,14.33,0,0,1-9.71-3.53,12.07,12.07,0,0,1-3.95-9.47c0-4.6,1.83-7.95,5.51-10.08a10.06,10.06,0,0,1-3.9-8.39,11,11,0,0,1,3.36-8.09,12.05,12.05,0,0,1,8.69-3.35,11.69,11.69,0,0,1,8.63,3.35A10.94,10.94,0,0,1,820.28,1292.36Zm-7.67,14a6.72,6.72,0,0,0-8.75,0,6.52,6.52,0,0,0,0,8.87,6.72,6.72,0,0,0,8.75,0,6.55,6.55,0,0,0,0-8.87Zm-9.41-13.9a5.42,5.42,0,0,0,1.38,3.86,5.28,5.28,0,0,0,7.31,0,5.42,5.42,0,0,0,1.38-3.86,5.22,5.22,0,0,0-1.38-3.78,5.36,5.36,0,0,0-7.31,0A5.22,5.22,0,0,0,803.2,1292.49Z"/><path class="cls-6" d="M829,1312.38l7.13-1.31c.77,3.87,2.86,5.81,6.3,5.81a5.7,5.7,0,0,0,4.65-1.92,8.45,8.45,0,0,0,1.58-5.51,7.71,7.71,0,0,0-1.71-5.4,6.27,6.27,0,0,0-4.88-1.86q-4.08,0-7.43,3.78l-4.74-1,2.34-23.62h21.58v7H838.44l-1,8.75a11.45,11.45,0,0,1,5.94-1.56q6.23,0,9.53,3.69t3.29,10.22a14.77,14.77,0,0,1-3.77,10.43,13.2,13.2,0,0,1-10,3.95,13.8,13.8,0,0,1-9.17-3.11A12.21,12.21,0,0,1,829,1312.38Z"/><polygon class="cls-6" points="855.39 792.76 660.32 792.76 675.44 770.11 855.39 770.11 855.39 792.76"/><path class="cls-7" d="M839.42,752.86l-2.11-.35a7.59,7.59,0,0,0-2-.33c-6.68-1.11-5.8.8-12.48-.32a13.45,13.45,0,0,0-4.43,0l-2.53-.18a11,11,0,0,0-2.33-.34c-13.87-.45-27.74-.93-41.58.08-26.79-1.57-53.84-2-80.66-1.37a10.09,10.09,0,0,0-2.06.25c-4.56,1.51-8.11,5.07-13,13.34-2.69,4.54,4.37,8,10.21,7.69a687.38,687.38,0,0,1,81.07-.23,34.42,34.42,0,0,0,5.4.37c2.53,2.69,6.54.76,10.39-1.25l5.17.3c.08.51.15-1.25.23-.8,0-.44,0,1.32,0,.81l4.17.25c1,1.16,2,0,3,0,1.39,0,12.32-1.17,14-1.68l.72,0a63,63,0,0,0,8.67.51c1.68,0,3.29,2.23,4.71,1.47a33.22,33.22,0,0,0,5,1.07c3.75.46,8.28-1.39,12.13-1.71l.55.06,2.6.16c5,.31,4.93-1.86,5.49-6.58S844.49,753.7,839.42,752.86Z"/><path class="cls-7" d="M853.43,810.22c0-4.73-.19-9.47-.48-14.2a5.05,5.05,0,0,0-8.74-3.47,4.17,4.17,0,0,0-.74.41c-1.93,1.33-3.28,1.32-5.53.79-2.86-.67-5.19-1.89-7.83-2.84-4.66-1.68-10-1.5-14.83-.9-5.49.69-10.87,1.9-16.27,3.1-2.14.48-4.39,1-6.51,1.31a32,32,0,0,1-4,.2q-1,0-2-.09l-.85-.07a3.22,3.22,0,0,1-.6-.06c-6.18-.88-12.12-3-18.32-3.85a5.45,5.45,0,0,0-5.5,2.06l-32.27,1.87a2.85,2.85,0,0,0-.29,0,8.07,8.07,0,0,0-5.16.71,4.76,4.76,0,0,0-5.51,2,4.49,4.49,0,0,0-3-2.38,132.63,132.63,0,0,0-45.34-2c-2.05.27-11.36,1.06-12.19,3.12-.2.5,7.24-2.78,7.19-2.28-1.83.35-10.84,5.45-11.49,7.36a52.56,52.56,0,0,0-2.52,11.64c-.36,3.36-.87,7.68.79,10.76a7.1,7.1,0,0,0,1.1,1.53l0,4.07a5.22,5.22,0,0,0,.27,1.56,4.75,4.75,0,0,0-.2,1.38c0,2.19,9.13,4.35,11.28,4.89a19.05,19.05,0,0,0,8.72.09l.09.06c6.37,3.47,12.37-1.86,13.68-8l.32-.32c.94-.93,1.83-1.91,2.71-2.92,1.69,0,3.67-.83,4.36-2.45a10,10,0,0,1,1.8-2.92l.27,0,10.15.73c2.36.22,4.72,3.42,7.08,3.53,1.74.09,3.32-4,4.24-5.37a48.57,48.57,0,0,0,2.38,12.34,5.21,5.21,0,0,0,4.89,3.72l7.1-.18a5.3,5.3,0,0,0,4.75,1.46,5.15,5.15,0,0,0,2.44.6,29.48,29.48,0,0,0,10.12-1.77c.91,0,1.83,0,2.76,0a4.48,4.48,0,0,0,2.11-.45q19.71.11,39.42,1.14a5.12,5.12,0,0,0,5.07-5.07,4.84,4.84,0,0,0-.36-1.85c5-2.64,10.33-8,15.85-8.36a23,23,0,0,1,4.15.08c-.06,0,1,.2,1.22.24.79.18,1.55,3.14,2.33,3.37l.49.17c.25.11.5.23.74.36a15.64,15.64,0,0,1,1.59.92l.55.38.5.42c.25.23.5.48.74.73a6,6,0,0,0,.51.54c1.89,2.5,2.71,5.53,5.21,7.63A11.47,11.47,0,0,0,842.1,838c3.34-.8,9.79-.33,11.62-2.78,1.86-.75-1-5-.72-7.07.18-1.58.32-3.17.42-4.76q.12-.85.18-1.71A101.92,101.92,0,0,0,853.43,810.22Z"/><path class="cls-6" d="M828.38,828.78c-3.16-6.1-7.63-10.13-14.52-7.92a15.65,15.65,0,0,0-2.27.93,14.48,14.48,0,0,0-7.9,2.45c-9.56,6.28-8.87,19.42,1.1,25.5,4.29,2.61,8.28,5.19,12.74,4l.57,0c5.58.05,8-3.46,10.47-8.35A18.6,18.6,0,0,0,828.38,828.78Z"/><path class="cls-6" d="M698.08,819.05a14.15,14.15,0,0,0-9.31,8.65c-3.27,3.89-1.68,9.25-.13,14.41a16.83,16.83,0,0,0,.89,2.3A15.66,15.66,0,0,0,694,851c6.76,6,16.29,5.48,21.6-2.15,4.83-4.64,6-12.27,2.89-18.83C714.88,822.35,706.71,816.54,698.08,819.05Z"/><path class="cls-5" d="M660,463.84H658.4c-152.74,0-276.56,123.82-276.56,276.56S505.66,1017,658.4,1017h.25c152.13,0,276.58-123.53,276.77-274.78C935.61,588.47,812.4,463.94,660,463.84ZM878.84,588.58a264.56,264.56,0,0,1,34.25,69.29c-2.6.15-4.5.32-6.36.33H728a8.89,8.89,0,0,1-8.32-11.81c.52-1.48,2.91-2.61,4.68-3.27q35.36-13.05,70.79-25.9c25.88-9.44,51.8-18.77,77.63-28.36C875.28,587.91,877.17,587.71,878.84,588.58Zm-54.58-58.21A269.63,269.63,0,0,1,872,579.12l.27.59c-1.83.89-3.4,1.81-5.07,2.42-48.63,17.67-97.32,35.17-145.85,53.12-6.51,2.41-6.89-2.2-9.33-5.29-2.85-3.63-1.3-5.7,1.71-8.21q53.12-44.44,106.07-89.08C821.25,531.43,822.58,530.23,824.26,530.37ZM706.79,658.21h-48c-16,0-32-.11-48,.08-4.6.06-5.73-1.42-5-5.92,3.8-24.57,27.81-44.55,53.56-44.3s49.22,20.63,52.63,45.39C712.62,658.26,710,658.21,706.79,658.21Zm55.13-164.73q5.21,2.19,10.32,4.58,18.63,10.68,37.24,21.39c2.09,1.44,4.16,2.9,6.22,4.4.17.25.37.52.61.83-11,9.3-21.68,18.3-32.36,27.25q-37.66,31.61-75.37,63.16c-3.84,3.22-12.83.24-13.86-4.76-.26-1.22.62-2.84,1.32-4.06q31.49-54.72,63-109.4C759.89,495.48,760.68,494,761.92,493.48Zm-64.44-17.87c4,.58,7.94,1.26,11.87,2q16.46,4.29,32.91,8.51c3.18,1.05,6.32,2.17,9.45,3.33.9,1.14.64,2.73-.7,5q-31.32,53.85-62.38,107.85c-1.55,2.69-3.31,4.18-6.19,2.35s-8.43-.54-8.35-5.32c3.43-19.44,6.68-37.76,9.9-56.1,3.66-20.9,7.38-41.79,10.89-62.71C695.29,478.05,696,476.32,697.48,475.61Zm-66.07-1.48q13.37-1.32,27-1.34a274.79,274.79,0,0,1,27.91,1.44c.87,1,1.12,2.55.66,5.09-7.05,38.59-13.79,77.22-20.45,115.87-.71,4.08-2.54,5.37-6.36,4.9s-7.91,1.64-9-5c-6.56-38.67-13.54-77.27-20.54-115.86C630.13,476.76,630.4,475.14,631.41,474.13Zm-11.83,1.45c1.65.58,2.57,2.18,3,5,4.73,27.71,9.7,55.38,14.57,83.07,1.94,11,3.81,22,5.81,33,.55,3,.72,5.83-3.18,6.32-3.63.46-7.33,5.67-11-.63Q597.45,547.55,565.76,493a24.22,24.22,0,0,1-1.23-3.29A265,265,0,0,1,619.58,475.58Zm-99.83,35.83c8.06-4.51,16.24-8.81,24.41-13.16q5.28-2.5,10.69-4.76c1.27.19,2.33,1.1,3.34,2.87q31.69,55.21,63.6,110.31c1.47,2.55,1.35,4.28-1.06,6.17-9,7-6.1,6.92-13.87.44q-51-42.6-101.88-85.38l-4.39-3.67Q509.92,517.39,519.75,511.41Zm-72,63.93q1.89-2.42,3.85-4.79c.35-.39.69-.8,1.06-1.18,11.82-12,23.81-23.74,35.71-35.62,1.22-1,2.46-2,3.7-3,1.71-.68,3.39-.12,5.35,1.54q53.36,45,106.87,89.83c2.64,2.21,4.18,4.25,1.48,7.35-2.44,2.8-2.25,8.38-9.09,5.86-49.06-18.09-98.26-35.8-147.4-53.65-1.19-.43-2.3-1.11-4.64-2.26C445.74,578,446.75,576.65,447.73,575.34Zm-38.25,66.49c.26-.59.5-1.19.79-1.76,8.28-16.23,17-32.25,25.53-48.35.58-.86,1.18-1.72,1.77-2.57,1.49-1.45,3.36-1.66,6.16-.63q74.16,27.19,148.43,54.1c6,2.2,7.9,8.65,4.14,14a4.92,4.92,0,0,1-2.76,1.45,14.19,14.19,0,0,1-3.33.12q-89.64,0-179.28,0c-2,0-3.93-.22-7.18-.41Q406.35,649.71,409.48,641.83ZM392.19,766.3c-.44-4-.64-8-.86-12,23.75,0,88.79,0,109.26,0,3,0,6-.14,9,.05,6.74.44,10.25,3,10.32,7.79.09,5.36-3.07,8.06-8,9.12-2.91.62-5.8,1.35-8.7,2-10.88,2.5-21.85,4.68-32.63,7.57-9.75,2.62-15.05,10.58-14.28,20s7.75,16.33,17.47,17.27c2.95.29,6,.14,8.94.14H648.07c-.05,5.35.13,10.7,0,16-.07,4.56,1,5.59,5.59,5.63,6.47,0,20.49.15,27,0,2.65,0,4.22.57,5.32,3.39a18.25,18.25,0,0,0,8,9.54H415.74Q397.4,813.27,392.19,766.3Zm436.44-10.2a21.82,21.82,0,0,1,14.93,5.27c1.06.92,2.37,1.74,2.5,3.35a1.71,1.71,0,0,1-1.38.75l-158.41.06a2.15,2.15,0,0,1-1.89-.92c1-2.78,3-5.05,4.74-7.46a2.59,2.59,0,0,1,2.09-1c1,0,2.11-.06,3.16-.06Q761.51,756.13,828.63,756.1Zm-104.11-9.27c0-1.45,0-2.9,0-4.35a2.05,2.05,0,0,1,2.19-2.25c1,0,2.11-.07,3.16-.07q30.84,0,61.69,0c5.14,0,5.33.23,5.15,5.37-.13,3.33-.33,3.63-3.66,3.65-10.81,0-23.32,0-34.13,0H730.18c-1,0-2.11,0-3.16,0C725.44,749.18,724.52,748.49,724.52,746.83Zm-33.25,89.52a12.48,12.48,0,0,1,12.17-12.14,12,12,0,0,1,12.45,12.09,12.44,12.44,0,0,1-12.23,12.48A12.69,12.69,0,0,1,691.27,836.35Zm30,7c1.12-2.81,2.67-3.41,5.33-3.39,13.07.08,26.14,0,39.21,0,8.45,0,16.9.08,25.35,0,2.7,0,4.41.54,5.26,3.46a15.78,15.78,0,0,0,5.74,7.88,18.89,18.89,0,0,0,2.4,1.6H713.38A18.36,18.36,0,0,0,721.26,843.37Zm92.8,5.39a12.36,12.36,0,0,1-12.2-12,12,12,0,0,1,12-12.51,12.37,12.37,0,0,1,12.54,12.12A12.62,12.62,0,0,1,814.06,848.76Zm5.67-30.52a19,19,0,0,0-23.07,10.43c-.43,1-.76,2-1.14,3a2.19,2.19,0,0,1-2.11,1.51c-1,0-2.11.07-3.16.07H728.06c-5.38,0-5.39,0-5.39-5.52q0-13.66,0-27.33c0-5.17,0-5.19,5.37-5.2H845.29c5.9,0,5.9,0,5.91,5.94q0,13.45,0,26.93c0,5.16,0,5.17-5.36,5.18-3.16,0-6.34-.1-9.5,0-2.33.09-3.54-.78-4.32-3A18.27,18.27,0,0,0,819.73,818.24Zm-97.06-41.38c0-4.68.08-4.73,5-4.76,4,0,7.9,0,11.85,0,9.09,0,18.17,0,27.26,0,4.23,0,4.41.23,4.45,4.5q0,3.75,0,7.5c-.05,4.41-.2,4.56-4.79,4.58-6.45,0-12.9,0-19.36,0-6.71,0-13.43,0-20.14,0-4,0-4.2-.26-4.25-4.3C722.64,781.86,722.65,779.36,722.67,776.86Zm55.06-.94c.11-3.44.45-3.78,4-3.81,7.65-.05,15.31,0,23,0,5.93,0,11.87,0,17.81,0,3.55,0,3.89.39,4,3.83q.13,4.56,0,9.1c-.1,3.15-.53,3.59-3.81,3.62-7,.06-14,0-21,0-6.6,0-13.19,0-19.79,0-3.77,0-4.11-.38-4.19-4C777.66,781.73,777.65,778.82,777.73,775.92Zm73.37,10.36c0,1.63-1.09,2.32-2.61,2.34-2.23,0-4.47,0-6.71,0v0h-5.92c-1.71,0-2.78-.71-2.79-2.55q0-5.72,0-11.45c0-1.85,1.09-2.53,2.8-2.53,3.94,0,7.89,0,11.84,0a2.81,2.81,0,0,1,3.17,2.75A67,67,0,0,1,851.1,786.28ZM712.52,772.13c2.87,0,3.2.41,3.28,3.22q.13,4.93,0,9.87c-.07,3-.4,3.39-3.48,3.43-6.71.08-13.43,0-20.14,0v0H673.63c-.92,0-1.85,0-2.76-.09-1.32-.14-2-.84-1.33-2.15a79.64,79.64,0,0,1,8.53-13.26c.8-1,2.06-1.07,3.25-1.07C691.72,772.11,702.12,772.07,712.52,772.13Zm-43.06,23,21.37,0c7,0,14,0,21,0,1.39,0,4.07-.48,4.07,1.38,0,6.72-.21,13.28,0,19.74,0,1.24,0,3.24-.57,3.82-1.41,1.41-3.26-1-4.92-1.57a18.72,18.72,0,0,0-24.18,10.58c-1.31,3.39-3.05,4.32-6.39,4.14-4.74-.25-17-.15-21.79-.13-1.85,0-3.09-.55-3-2.67.18-10.61-.13-20.76,2-31C657.66,796.07,663.92,795.17,669.46,795.17ZM806.29,963.52q-10.83,7.22-22.26,13.3c-32,17-68.55,26.44-104.58,29.11a279.89,279.89,0,0,1-108.16-13.12,253.46,253.46,0,0,1-66.47-33.24H807C809.38,959.57,813.27,959.25,806.29,963.52Zm51.81-45A302.46,302.46,0,0,1,823.48,951H494a295.67,295.67,0,0,1-40.22-38.84H863.58C861.78,914.26,860,916.42,858.1,918.52Zm12.41-15H446.72a257.13,257.13,0,0,1-26.78-42H897.1A267,267,0,0,1,870.51,903.5Zm30.77-50.59H823.46a18.88,18.88,0,0,0,8.09-9.23c1.15-2.76,2.53-3.85,5.5-3.73,5.14.22,10.3.11,15.45,0,4.22-.06,5.16-1,5.16-5.18q0-8.26,0-16.55H865c10.08,0,35.47-.08,49.47,0A264.92,264.92,0,0,1,901.28,852.91Zm10.8-45.47H857.67q0-15.63,0-31.24a23,23,0,0,0-2.07-9.61c-5-11.05-13.77-16.79-25.79-17.25-7.91-.31-14.15-.05-22.07-.09-4,0-4.16-.22-4.19-4.33,0-.26,0-.52,0-.79.08-3.64.25-3.76,3.78-4,6.06-.38,12.13.41,18.2.43,1.19,0,2.38,0,3.57-.08,1.42-.07,2-.89,2.21-2.28.38-3.14-.31-3.26-3.54-3.37-1,0-2.11,0-3.17,0l-3.33-.05c-.72-1.37-2-5.13,3.65-8.24,3.52-1.95,2.69-5.1-3.19-4.24-7.22,1.06-11.56,9.59-12.74,12.23l-21.36-.49c-20.73-.06-41.46,0-62.19,0-10.7,0-5.54,0-16.24.07-3.15,0-22.59.33-22.33,3.37.18,2.21.58,2.63,3.46,2.66,6.6.07,16.23-.4,22.83-.35,4.29,0,4.46.26,4.49,4.47,0,.4,0,.8,0,1.19-.11,3.51-.29,3.73-3.94,3.78-4.35,0-10.41,0-14.77,0-3.82,0-8.66-.15-12.38.6-3.91.79-7.46,8.33-9.43,11.43-3.07,4.85-6,9.79-9.2,14.55-2.76,4.12-5.92,12.85-11.21,14.77-7.35,2.68-7.2,10-8,16.4,0,.14,0,.28,0,.43H483.8c-3.35,0-6.72.08-10.05-.22-4.36-.41-6.56-3.41-7-7.41a7.31,7.31,0,0,1,4.87-8,67.74,67.74,0,0,1,9.66-2.7c11.6-2.72,23.29-5.05,34.8-8.12,9.73-2.59,15.52-10.93,14.68-19.8a18.72,18.72,0,0,0-18.67-17.31c-24.41-.3-91.4-.16-121.25-.11a16.48,16.48,0,0,1,0-3.58q0-6.06.28-12.08a.32.32,0,0,0,0-.09,2.26,2.26,0,0,0,0-.26c.08-1.7.2-3.4.33-5.1l-.06,0a268.57,268.57,0,0,1,6.29-42.9l.26-.2c.66-2.83,1.33-5.67,1.91-8.52.69-3.35,2.56-4.73,5.87-4.55,1.67.09,3.36,0,5,0h496.3c5.29,0,7.66,0,9.1,1.57a269.72,269.72,0,0,1,1.36,139.44C915.7,807.47,913.89,807.44,912.08,807.44Z"/><path class="cls-5" d="M804.3,726.85c-.82,0-1.63,0-2.45,0l-3.14-.05c-.46-.94-1.13-3.28,2.39-5.22,2.26-1.26,1.73-3.29-2.05-2.73-4.58.67-7.36,6-8.17,7.79l-6.81-.15c-.42-1.08-.65-3.16,2.52-4.91,2.27-1.26,1.73-3.29-2.05-2.73-4.32.63-7,5.43-8,7.46l-3.23-.07c-3.91-.09-64.39-1.45-64,2.65.15,1.71.45,2,2.68,2.06,9.37.11,18.74-.51,28.11-.52,20.65,0,41.73.77,62.53.84.92,0,1.84,0,2.75-.06,1.1-.05,1.58-.69,1.71-1.76C807.33,727,806.79,726.93,804.3,726.85Z"/><path class="cls-5" d="M703.67,841.35a5,5,0,0,0,4.84-4.76,4.72,4.72,0,0,0-4.89-5,4.87,4.87,0,0,0-4.88,4.66A5,5,0,0,0,703.67,841.35Z"/><path class="cls-5" d="M814.21,831.6a4.62,4.62,0,0,0-4.94,4.55,4.85,4.85,0,0,0,4.78,5.2,4.73,4.73,0,0,0,4.73-4.84A4.6,4.6,0,0,0,814.21,831.6Z"/></svg>