<svg id="Layer_1" data-name="Layer 1" xmlns="http://www.w3.org/2000/svg" viewBox="0 0 1325.14 1612.83"><defs><style>.cls-1{fill:#231f20;}.cls-2{fill:#fff;}</style></defs><polyline class="cls-1" points="-0.33 -2.46 1316.12 -2.46 1316.12 1610.37 -0.33 1610.37"/><path class="cls-2" d="M314.21,705.88q-5.55-9.45-16.59-16.53a81.66,81.66,0,0,0-54.48-10.54q-12.88,2.46-21.57,9.14a57.84,57.84,0,0,0-14.23,15.88,61.4,61.4,0,0,0-7.7,20.29l-7.35,38,121.44,23.5,7.35-38a61.44,61.44,0,0,0,.42-21.69A57.49,57.49,0,0,0,314.21,705.88ZM298.88,750.7,297.27,759l-79.8-15.44,1.61-8.32q3.09-16,13.11-25.9,11.43-11.65,34.68-7.15t29.51,19.57Q302,734.74,298.88,750.7Z"/><polygon class="cls-2" points="365.95 586.67 338.1 634.45 308.63 617.28 330.26 580.18 311.94 569.5 290.32 606.6 267.88 593.52 294.84 547.26 276.52 536.58 237.99 602.68 344.85 664.98 384.27 597.35 365.95 586.67"/><path class="cls-2" d="M406.64,470.16a30,30,0,0,0,13.18,4.67,67.26,67.26,0,0,0,12.64.41q5.4-.42,12.82-1.61,19.67-3.36,24.81,4.67,8.69,13.54-4.86,22.21-14.73,9.44-34.22-7.87l-9.33,19.82a43.43,43.43,0,0,0,25.69,12.92,42.12,42.12,0,0,0,28.85-6.73q15.33-9.81,18.75-24.29t-6.2-29.49a31.22,31.22,0,0,0-9.84-10,28.71,28.71,0,0,0-13.24-4.12,104.88,104.88,0,0,0-12.66-.28,125.51,125.51,0,0,0-13.14,1.6q-20.38,2.58-25.54-5.46a10.71,10.71,0,0,1-1.56-8.66,11.83,11.83,0,0,1,5.43-7.25q8.77-5.62,21.48,1.76l9.24-20q-21-13.18-42.16.36-12.21,7.82-15.14,21.24a32.75,32.75,0,0,0,4.83,25.23A33.3,33.3,0,0,0,406.64,470.16Z"/><path class="cls-2" d="M542.38,471.09q14.88,9.2,35.83,4.08T608.13,455q9-15,3.4-37.84l-18.19-74.5L571,348.15,589.3,423q6.36,26.08-16.12,31.58T544.32,434l-18.27-74.84-22.32,5.44,18.19,74.51Q527.5,461.91,542.38,471.09Z"/><path class="cls-2" d="M680.76,410.82l12,1.21,27.71,56.42,25.5,2.56-28.57-58.46a30.77,30.77,0,0,0,18.26-10.33q6.85-8.1,8.1-20.4,1.6-16-7.28-26.49t-26.65-12.27L665,338.55,652.56,461.62l22.85,2.3ZM685.68,362l22.15,2.23q14.42,1.44,13,15.34T705,392l-22.16-2.23Z"/><polygon class="cls-2" points="811.88 441.22 852.51 459.44 861.18 440.09 820.55 421.87 832.12 396.07 882.59 418.69 891.26 399.35 819.83 367.33 769.24 480.2 790.2 489.6 811.88 441.22"/><path class="cls-2" d="M898,560.22q14.13,13.08,28.64,13.29t26.64-12.89q15.26-16.46,6.94-34.77A20.72,20.72,0,0,0,973,525.3a29.07,29.07,0,0,0,11.64-7.88q11.05-11.92,10-24.57t-13.22-24l-33.17-30.75L864.2,528.86Zm52.7-90.9,15,13.93q5.7,5.29,6.2,10.08c.32,3.2-1.11,6.53-4.32,10s-6.39,5.16-9.55,5.12-6.57-1.76-10.2-5.12L932.46,489Zm-17.26,49.54q14.65,13.57,3.36,25.76t-25.94-1.4l-15.42-14.29L918,504.57Z"/><path class="cls-2" d="M1028,669.89l68.15-35.15-10.53-20.42-68.47,35.32q-23.86,12.32-34.48-8.26T996,608.49l68.47-35.31-10.52-20.42-68.16,35.15q-20.9,10.77-26.33,27.4t4.44,35.78q9.87,19.17,26.58,24.37T1028,669.89Z"/><path class="cls-2" d="M1122.92,736.85q-2.18-14.33-13.24-22.47a32.71,32.71,0,0,0-25-5.85,33.24,33.24,0,0,0-14,4.89,30.06,30.06,0,0,0-9.63,10.13,68.08,68.08,0,0,0-5.51,11.39q-1.82,5.1-3.75,12.36-4.93,19.34-14.36,20.77-15.9,2.41-18.31-13.48-2.64-17.3,21.11-28.05L1025.9,710a43.47,43.47,0,0,0-22.26,18.21,42.16,42.16,0,0,0-5.59,29.09q2.75,18,14.56,27t29.47,6.34a31.31,31.31,0,0,0,13.1-4.94,28.74,28.74,0,0,0,9.15-10.42,105.2,105.2,0,0,0,5.41-11.45,124.15,124.15,0,0,0,3.88-12.66q6-19.67,15.38-21.1a10.67,10.67,0,0,1,8.54,2.1A11.81,11.81,0,0,1,1102,740q1.56,10.32-10.35,18.91l14.49,16.57Q1126.7,761.65,1122.92,736.85Z"/><polygon class="cls-2" points="495.82 1150.55 482.11 1114.26 469.99 1114.26 469.99 1172.39 480.78 1172.39 480.78 1136.51 491.91 1167.08 499.72 1167.08 510.85 1136.51 510.85 1172.39 521.64 1172.39 521.64 1114.26 509.52 1114.26 495.82 1150.55"/><path class="cls-2" d="M571,1113.59a29.26,29.26,0,0,0-13.62,3.16,23.38,23.38,0,0,0-10,10.13,34,34,0,0,0-3.78,16.44q0,9.81,3.82,16.61,7.47,13.13,23.59,13.13A29.73,29.73,0,0,0,584.6,1170a24.5,24.5,0,0,0,10-10.25,33.8,33.8,0,0,0,3.78-16.41q0-9.71-3.9-16.61Q587.25,1113.6,571,1113.59Zm11.71,44.52a15.19,15.19,0,0,1-11.71,5,15.62,15.62,0,0,1-11.8-5q-4.65-5.07-4.65-14.79t4.65-14.78a15.62,15.62,0,0,1,11.8-5,15.19,15.19,0,0,1,11.71,5q4.72,5,4.73,14.78T582.69,1158.11Z"/><path class="cls-2" d="M656.1,1136.39a13.68,13.68,0,0,0,1.5-6.44q0-7.64-4.4-11.67t-12.21-4H619.73v58.13H641.4q9.06,0,14.12-4.57t5.07-13q0-10.55-8.72-14.2A9.72,9.72,0,0,0,656.1,1136.39Zm-25.58-12.17h9.64c2.43,0,4.22.5,5.35,1.5s1.71,2.6,1.71,4.81-.56,3.82-1.67,4.82-2.82,1.5-5.14,1.5h-9.89Zm9.89,38.21h-9.89v-15.62h9.89q9.38,0,9.38,7.81T640.41,1162.43Z"/><rect class="cls-2" x="681.6" y="1114.26" width="10.8" height="58.14"/><polygon class="cls-2" points="751.86 1124.22 751.86 1114.26 715.9 1114.26 715.9 1172.39 752.69 1172.39 752.69 1162.43 726.69 1162.43 726.69 1146.4 746.88 1146.4 746.88 1136.43 726.69 1136.43 726.69 1124.22 751.86 1124.22"/><polygon class="cls-2" points="774.2 1114.26 774.2 1172.39 809.66 1172.39 809.66 1162.43 785 1162.43 785 1114.26 774.2 1114.26"/><polygon class="cls-2" points="866.97 1124.22 866.97 1114.26 831 1114.26 831 1172.39 867.79 1172.39 867.79 1162.43 841.8 1162.43 841.8 1146.4 861.98 1146.4 861.98 1136.43 841.8 1136.43 841.8 1124.22 866.97 1124.22"/><path class="cls-2" d="M387.85,1239.83a49.7,49.7,0,0,0-4.94-3.32,59.23,59.23,0,0,0-5.6-2.7q-8.73-4.14-8.73-8.63a5,5,0,0,1,1.58-3.82,5.55,5.55,0,0,1,4-1.5q4.91,0,8.05,6.15l8.73-5.57q-5-10.55-16.78-10.55a16.3,16.3,0,0,0-14.58,22.64,14.2,14.2,0,0,0,4,5.19,31.74,31.74,0,0,0,4.9,3.36c1.5.8,3.32,1.68,5.48,2.62q8.64,3.65,8.64,8.14,0,7.54-7.56,7.55-8.22,0-11.54-11.79l-8.72,5.48a20.44,20.44,0,0,0,6.89,11.63,19.82,19.82,0,0,0,13.12,4.65q8.56,0,13.58-4.86t5-13.25a14.75,14.75,0,0,0-1.37-6.43A13.69,13.69,0,0,0,387.85,1239.83Z"/><path class="cls-2" d="M457,1246.6v-36H446.24v36.21q0,12.63-10.88,12.62t-10.88-12.62v-36.21h-10.8v36q0,11.06,5.77,16.9t15.91,5.86q10.13,0,15.9-5.86T457,1246.6Z"/><path class="cls-2" d="M514.92,1237a17.11,17.11,0,0,0,2.82-9.92q0-7.56-4.65-12t-13-4.48H478.87v58.13h10.8v-25.08h5.65l15.61,25.08h12l-16.11-26A14.51,14.51,0,0,0,514.92,1237Zm-14.79-3.36H489.67v-13.12h10.46q6.81,0,6.81,6.56T500.13,1233.65Z"/><polygon class="cls-2" points="542.24 1268.69 553.04 1268.69 553.04 1243.78 573.97 1243.78 573.97 1233.81 553.04 1233.81 553.04 1220.53 579.03 1220.53 579.03 1210.56 542.24 1210.56 542.24 1268.69"/><path class="cls-2" d="M616.07,1259.39q-8.22,0-11.54-11.79l-8.72,5.48a20.44,20.44,0,0,0,6.89,11.63,19.82,19.82,0,0,0,13.12,4.65q8.56,0,13.58-4.86t5-13.25a14.75,14.75,0,0,0-1.37-6.43,13.69,13.69,0,0,0-4.2-5,49.7,49.7,0,0,0-4.94-3.32,58.39,58.39,0,0,0-5.61-2.7q-8.71-4.14-8.72-8.63a5,5,0,0,1,1.58-3.82,5.55,5.55,0,0,1,4-1.5q4.89,0,8.05,6.15l8.72-5.57q-5-10.55-16.77-10.55a16.3,16.3,0,0,0-14.58,22.64,14.2,14.2,0,0,0,4,5.19,31.74,31.74,0,0,0,4.9,3.36c1.5.8,3.32,1.68,5.48,2.62q8.64,3.65,8.64,8.14Q623.63,1259.38,616.07,1259.39Z"/><path class="cls-2" d="M661.66,1217.78q-8,7.82-8,21.85t8,21.84a26.87,26.87,0,0,0,19.52,7.89q9.47,0,15.74-4.61a22.13,22.13,0,0,0,8.35-13l-9.72-2.49q-3.9,10.14-14.37,10.13a15.61,15.61,0,0,1-11.88-5.06q-4.65-5.16-4.65-14.7t4.65-14.7a15.58,15.58,0,0,1,11.88-5.07q10.47,0,14.37,10.13l9.72-2.49a22.16,22.16,0,0,0-8.35-13q-6.27-4.61-15.74-4.61A26.91,26.91,0,0,0,661.66,1217.78Z"/><polygon class="cls-2" points="771.21 1268.69 771.21 1210.56 760.41 1210.56 760.41 1232.65 737.16 1232.65 737.16 1210.56 726.36 1210.56 726.36 1268.69 737.16 1268.69 737.16 1242.62 760.41 1242.62 760.41 1268.69 771.21 1268.69"/><path class="cls-2" d="M807.5,1213.05a23.48,23.48,0,0,0-10,10.13,34,34,0,0,0-3.78,16.45q0,9.8,3.83,16.61,7.47,13.13,23.58,13.12a29.67,29.67,0,0,0,13.62-3.07,24.6,24.6,0,0,0,10-10.26,33.76,33.76,0,0,0,3.78-16.4q0-9.72-3.91-16.61-7.22-13.12-23.5-13.13A29.44,29.44,0,0,0,807.5,1213.05Zm30.07,26.58q0,9.8-4.74,14.78a15.17,15.17,0,0,1-11.71,5,15.6,15.6,0,0,1-11.79-5q-4.65-5.07-4.65-14.78t4.65-14.79a15.6,15.6,0,0,1,11.79-5,15.17,15.17,0,0,1,11.71,5Q837.57,1229.84,837.57,1239.63Z"/><path class="cls-2" d="M896.53,1209.89a29.44,29.44,0,0,0-13.62,3.16,23.48,23.48,0,0,0-10,10.13,34,34,0,0,0-3.78,16.45q0,9.8,3.82,16.61,7.48,13.13,23.59,13.12a29.67,29.67,0,0,0,13.62-3.07,24.6,24.6,0,0,0,10-10.26,33.76,33.76,0,0,0,3.78-16.4q0-9.72-3.91-16.61Q912.82,1209.9,896.53,1209.89Zm11.71,44.52a15.19,15.19,0,0,1-11.71,5,15.58,15.58,0,0,1-11.79-5q-4.65-5.07-4.65-14.78t4.65-14.79a15.58,15.58,0,0,1,11.79-5,15.19,15.19,0,0,1,11.71,5q4.74,5,4.73,14.79T908.24,1254.41Z"/><polygon class="cls-2" points="956.08 1210.56 945.28 1210.56 945.28 1268.69 980.74 1268.69 980.74 1258.73 956.08 1258.73 956.08 1210.56"/><path class="cls-2" d="M662.16,518.65h-1.62C507.8,518.65,384,642.47,384,795.21s123.82,276.56,276.56,276.56h.24c152.14,0,276.58-123.53,276.77-274.78C937.74,643.28,814.53,518.75,662.16,518.65ZM881,643.39a264.53,264.53,0,0,1,34.24,69.29c-2.59.15-4.49.33-6.36.33H730.09a8.9,8.9,0,0,1-8.33-11.81c.53-1.48,2.92-2.61,4.69-3.27q35.35-13,70.79-25.9c25.88-9.44,51.8-18.77,77.62-28.36C877.41,642.72,879.3,642.52,881,643.39ZM826.4,585.18a270.51,270.51,0,0,1,47.72,48.75c.08.19.16.38.27.59-1.84.89-3.4,1.81-5.08,2.42-48.63,17.67-97.32,35.17-145.85,53.13-6.51,2.4-6.88-2.21-9.32-5.3-2.86-3.63-1.3-5.7,1.7-8.21Q769,632.12,821.92,587.48C823.39,586.24,824.72,585,826.4,585.18ZM708.93,713h-48c-16,0-32-.11-48,.08-4.59.06-5.72-1.42-5-5.92,3.8-24.56,27.81-44.55,53.56-44.3s49.21,20.63,52.63,45.39C714.75,713.07,712.14,713,708.93,713Zm55.13-164.73q5.21,2.19,10.31,4.58,18.63,10.68,37.24,21.39c2.09,1.44,4.17,2.9,6.22,4.4.18.25.37.52.62.83-11,9.3-21.69,18.3-32.37,27.26q-37.67,31.59-75.36,63.15c-3.84,3.22-12.83.24-13.87-4.76-.25-1.22.62-2.84,1.33-4.06q31.47-54.72,63-109.39C762,550.29,762.82,548.82,764.06,548.29Zm-64.45-17.87c4,.58,7.94,1.26,11.88,2q16.44,4.29,32.91,8.51c3.17,1,6.32,2.17,9.45,3.33.89,1.14.64,2.73-.7,5q-31.32,53.85-62.38,107.85c-1.56,2.7-3.32,4.19-6.19,2.35s-8.43-.54-8.35-5.32c3.43-19.44,6.67-37.76,9.89-56.1,3.67-20.9,7.39-41.79,10.89-62.71C697.43,532.86,698.13,531.13,699.61,530.42Zm-66.06-1.48q13.37-1.32,27-1.34a274.75,274.75,0,0,1,27.9,1.44c.88,1,1.13,2.55.66,5.09-7,38.59-13.78,77.22-20.45,115.87-.7,4.08-2.53,5.37-6.36,4.9s-7.91,1.64-9-5c-6.56-38.67-13.53-77.27-20.54-115.86C632.26,531.57,632.54,530,633.55,528.94Zm-11.84,1.45c1.66.58,2.58,2.18,3.06,5,4.72,27.71,9.69,55.38,14.57,83.07,1.94,11,3.81,22,5.8,33,.55,3,.73,5.83-3.17,6.33-3.63.45-7.34,5.66-11-.64Q599.6,602.37,567.9,547.77a23.83,23.83,0,0,1-1.24-3.29A265.15,265.15,0,0,1,621.71,530.39Zm-99.83,35.83c8.07-4.51,16.25-8.81,24.41-13.16q5.3-2.5,10.7-4.75c1.27.18,2.33,1.09,3.34,2.86q31.7,55.22,63.59,110.32c1.48,2.54,1.36,4.27-1,6.16-9,7.05-6.11,6.92-13.88.44q-51-42.6-101.88-85.38L502.72,579Q512.05,572.2,521.88,566.22Zm-72,63.93q1.9-2.42,3.85-4.79c.36-.39.69-.8,1.06-1.18,11.82-11.95,23.81-23.74,35.71-35.62,1.23-1,2.46-2,3.7-3,1.72-.68,3.39-.12,5.36,1.54q53.35,45,106.87,89.83c2.64,2.21,4.18,4.25,1.48,7.35-2.45,2.8-2.26,8.38-9.09,5.86-49.06-18.09-98.26-35.8-147.41-53.65-1.19-.43-2.29-1.11-4.63-2.26C447.88,632.82,448.88,631.46,449.86,630.15Zm-38.25,66.49c.27-.59.5-1.19.79-1.76,8.29-16.23,17-32.25,25.54-48.35.58-.86,1.18-1.72,1.77-2.57,1.49-1.45,3.36-1.66,6.16-.63q74.16,27.21,148.42,54.1c6,2.2,7.91,8.66,4.15,14a5,5,0,0,1-2.76,1.45,14.25,14.25,0,0,1-3.34.13q-89.64,0-179.27,0c-2,0-3.94-.22-7.19-.41Q408.49,704.52,411.61,696.64ZM394.32,821.11c-.44-4-.64-8-.86-12.05,23.75,0,88.8,0,109.27,0,3,0,6-.14,8.94,0,6.74.44,10.25,3,10.33,7.79.08,5.36-3.08,8.06-8,9.12-2.91.62-5.8,1.35-8.7,2-10.89,2.5-21.86,4.68-32.63,7.57-9.75,2.62-15.05,10.58-14.28,20s7.75,16.32,17.46,17.27c3,.28,6,.13,8.94.13H650.2c-.05,5.35.14,10.7.06,16-.07,4.56,1,5.59,5.58,5.63,6.47,0,20.49.15,27,0,2.65,0,4.23.57,5.33,3.39a18.23,18.23,0,0,0,8,9.54H417.87Q399.54,868.08,394.32,821.11Zm436.44-10.2a21.85,21.85,0,0,1,14.94,5.27c1,.92,2.37,1.74,2.49,3.35a1.67,1.67,0,0,1-1.38.75l-158.4.06a2.16,2.16,0,0,1-1.9-.92c1-2.78,3-5,4.75-7.46a2.57,2.57,0,0,1,2.08-1c1.06,0,2.12-.06,3.17-.06Q763.64,810.94,830.76,810.91Zm-104.1-9.27c0-1.45,0-2.9,0-4.35a2,2,0,0,1,2.18-2.25c1.06,0,2.11-.07,3.16-.07l61.7,0c5.13,0,5.33.23,5.14,5.37-.12,3.33-.33,3.63-3.66,3.65-10.8.05-23.31,0-34.12,0H732.32c-1.06,0-2.11,0-3.17,0C727.58,804,726.66,803.3,726.66,801.64Zm-33.25,89.52A12.47,12.47,0,0,1,705.58,879,12,12,0,0,1,718,891.11a12.44,12.44,0,0,1-12.23,12.48A12.69,12.69,0,0,1,693.41,891.16Zm30,7c1.12-2.81,2.67-3.41,5.32-3.39,13.08.08,26.15,0,39.22,0,8.45,0,16.9.08,25.35,0,2.69,0,4.4.54,5.25,3.46a15.8,15.8,0,0,0,5.75,7.88,18.11,18.11,0,0,0,2.39,1.6H715.52A18.36,18.36,0,0,0,723.4,898.18Zm92.79,5.39a12.34,12.34,0,0,1-12.19-12A12,12,0,0,1,816,879a12.37,12.37,0,0,1,12.54,12.12A12.61,12.61,0,0,1,816.19,903.57Zm5.67-30.52a18.94,18.94,0,0,0-23.06,10.43c-.43,1-.76,2-1.15,2.95a2.17,2.17,0,0,1-2.1,1.51c-1.06,0-2.11.07-3.17.07H730.19c-5.37,0-5.38,0-5.39-5.52q0-13.66,0-27.33c0-5.17,0-5.19,5.37-5.2H847.42c5.9,0,5.91,0,5.91,5.94q0,13.46,0,26.93c0,5.16,0,5.17-5.35,5.18-3.17,0-6.34-.1-9.51,0-2.32.09-3.53-.78-4.32-3A18.27,18.27,0,0,0,821.86,873.05Zm-97.05-41.38c0-4.68.08-4.73,5-4.76,4,0,7.9,0,11.85,0,9.08,0,18.17,0,27.26,0,4.23,0,4.4.23,4.45,4.5q0,3.75,0,7.5c0,4.41-.19,4.56-4.78,4.58-6.45,0-12.91,0-19.36,0-6.72,0-13.43,0-20.15,0-4,0-4.19-.26-4.24-4.3C724.78,836.67,724.79,834.17,724.81,831.67Zm55.06-.94c.1-3.44.44-3.78,4-3.81,7.65,0,15.3,0,23,0,5.94,0,11.88,0,17.81,0,3.55,0,3.9.39,4,3.83.08,3,.09,6.07,0,9.1s-.52,3.59-3.81,3.62c-7,.06-14,0-21,0-6.6,0-13.2,0-19.79,0-3.77,0-4.11-.38-4.2-4C779.79,836.54,779.78,833.63,779.87,830.73Zm73.37,10.37c0,1.62-1.1,2.31-2.61,2.33-2.24,0-4.48,0-6.71,0v0H838c-1.7,0-2.77-.71-2.78-2.55q0-5.71,0-11.45c0-1.85,1.1-2.53,2.8-2.53,4,0,7.9,0,11.85,0a2.82,2.82,0,0,1,3.17,2.75A68.18,68.18,0,0,1,853.24,841.1ZM714.66,826.94c2.87,0,3.2.41,3.28,3.22.09,3.29.08,6.58,0,9.87-.07,3-.4,3.4-3.49,3.43-6.71.08-13.42,0-20.14,0v0H675.76c-.92,0-1.85,0-2.76-.1-1.31-.14-2-.84-1.32-2.15A78.52,78.52,0,0,1,680.21,828c.8-1.06,2-1.08,3.25-1.08C693.86,826.92,704.26,826.88,714.66,826.94ZM671.6,850,693,850c7,0,14,0,21,0,1.38,0,4.07-.48,4.07,1.38,0,6.72-.21,13.28,0,19.74,0,1.24,0,3.24-.57,3.82-1.41,1.41-3.27-1-4.92-1.57a18.72,18.72,0,0,0-24.18,10.58c-1.32,3.39-3.05,4.32-6.39,4.14-4.74-.25-17.05-.15-21.8-.13-1.84,0-3.08-.55-3-2.67.18-10.61-.12-20.76,2-31C659.8,850.88,666.05,850,671.6,850Zm136.83,168.35q-10.83,7.22-22.27,13.3c-32,17-68.55,26.44-104.57,29.11a279.86,279.86,0,0,1-108.16-13.12A253.31,253.31,0,0,1,507,1014.38h302.2C811.52,1014.38,815.4,1014.06,808.43,1018.33Zm51.81-45a304.14,304.14,0,0,1-34.62,32.43H496.13a294.5,294.5,0,0,1-40.22-38.84H865.72C863.91,969.07,862.12,971.23,860.24,973.33Zm12.4-15H448.86a257.86,257.86,0,0,1-26.79-42H899.23A265.53,265.53,0,0,1,872.64,958.31Zm30.77-50.59H825.59a18.94,18.94,0,0,0,8.1-9.23c1.15-2.76,2.52-3.85,5.5-3.73,5.14.22,10.29.11,15.44,0,4.22-.06,5.16-1,5.17-5.18,0-5.51,0-11,0-16.55h7.36c10.07,0,35.46-.08,49.46,0A263.5,263.5,0,0,1,903.41,907.72Zm10.8-45.47h-54.4l0-31.24a22.84,22.84,0,0,0-2.06-9.61c-5-11-13.77-16.79-25.8-17.25-7.91-.31-14.14,0-22.06-.09-4,0-4.17-.22-4.2-4.32v-.8c.09-3.64.26-3.76,3.78-4,6.07-.38,12.14.41,18.21.43,1.19,0,2.38,0,3.56-.08,1.43-.07,2-.89,2.21-2.28.39-3.14-.3-3.26-3.53-3.37-1.06,0-2.12,0-3.17,0l-3.34,0c-.71-1.37-2-5.13,3.65-8.24,3.52-2,2.69-5.1-3.18-4.24-7.22,1.06-11.57,9.59-12.75,12.23l-21.36-.49c-20.73-.06-41.46,0-62.19,0-10.69,0-5.54,0-16.23.07-3.16,0-22.59.33-22.34,3.37.19,2.21.59,2.63,3.46,2.66,6.6.07,16.24-.4,22.84-.35,4.28,0,4.46.26,4.49,4.47,0,.4,0,.8,0,1.19-.11,3.51-.29,3.73-3.93,3.78-4.36.05-10.41,0-14.77,0-3.83,0-8.67-.16-12.39.59-3.91.79-7.46,8.33-9.42,11.44-3.07,4.84-6,9.78-9.2,14.54-2.77,4.12-5.92,12.85-11.21,14.77-7.36,2.68-7.2,10-8,16.4,0,.14,0,.29,0,.43H485.94c-3.35,0-6.72.08-10.05-.22-4.36-.41-6.56-3.41-7.05-7.41a7.33,7.33,0,0,1,4.88-8,67.38,67.38,0,0,1,9.66-2.7c11.6-2.72,23.29-5,34.79-8.12,9.74-2.59,15.53-10.93,14.69-19.8a18.73,18.73,0,0,0-18.68-17.31c-24.4-.29-91.39-.16-121.25-.11a17.13,17.13,0,0,1,0-3.58q0-6.06.29-12.08l0-.09c0-.09,0-.16,0-.26.08-1.7.2-3.4.33-5.1l-.06,0a267.43,267.43,0,0,1,6.28-42.9l.26-.2c.67-2.83,1.33-5.66,1.92-8.51.69-3.36,2.55-4.74,5.87-4.56,1.67.09,3.35,0,5,0H909.18c5.29,0,7.67,0,9.1,1.57a269.72,269.72,0,0,1,1.36,139.44C917.83,862.28,916,862.25,914.21,862.25Z"/><path class="cls-2" d="M806.43,781.66c-.81,0-1.63,0-2.44,0l-3.14,0c-.47-.94-1.14-3.28,2.38-5.22,2.27-1.26,1.73-3.29-2.05-2.73-4.57.67-7.35,6-8.16,7.79l-6.82-.15c-.42-1.08-.65-3.16,2.53-4.91,2.26-1.26,1.73-3.29-2.05-2.73-4.33.64-7,5.43-8,7.46l-3.22-.07c-3.92-.09-64.39-1.45-64.05,2.65.14,1.71.45,2,2.67,2.06,9.37.11,18.74-.51,28.11-.52,20.65,0,41.74.77,62.54.84.92,0,1.83,0,2.75-.06,1.1,0,1.57-.69,1.71-1.76C809.46,781.83,808.93,781.74,806.43,781.66Z"/><path class="cls-2" d="M705.8,896.16a5,5,0,0,0,4.84-4.76,4.71,4.71,0,0,0-4.88-5,4.87,4.87,0,0,0-4.88,4.66A5,5,0,0,0,705.8,896.16Z"/><path class="cls-2" d="M816.35,886.41a4.61,4.61,0,0,0-4.94,4.55,4.85,4.85,0,0,0,4.78,5.2,4.75,4.75,0,0,0,4.73-4.84A4.61,4.61,0,0,0,816.35,886.41Z"/></svg>