<svg id="Layer_1" data-name="Layer 1" xmlns="http://www.w3.org/2000/svg" viewBox="0 0 1325.14 1612.83"><defs><style>.cls-1{fill:#231f20;}.cls-2{fill:#fff;}</style></defs><rect class="cls-1" x="458.31" y="1257.66" width="433.02" height="86.65"/><path class="cls-1" d="M322.14,651q-5.55-9.43-16.6-16.53a81.66,81.66,0,0,0-54.48-10.54q-12.88,2.46-21.56,9.15a57.5,57.5,0,0,0-14.23,15.87,61.29,61.29,0,0,0-7.71,20.29l-7.35,38,121.44,23.5,7.35-38a61.5,61.5,0,0,0,.42-21.7A57.54,57.54,0,0,0,322.14,651ZM306.81,695.8l-1.62,8.33-79.8-15.44,1.61-8.33q3.09-16,13.11-25.9,11.44-11.64,34.68-7.15t29.51,19.57Q309.9,679.84,306.81,695.8Z"/><polygon class="cls-1" points="373.87 531.77 346.02 579.56 316.56 562.38 338.18 525.28 319.86 514.61 298.24 551.7 275.8 538.62 302.76 492.37 284.44 481.69 245.91 547.79 352.77 610.08 392.19 542.45 373.87 531.77"/><path class="cls-1" d="M414.57,415.26a29.79,29.79,0,0,0,13.17,4.68,67.2,67.2,0,0,0,12.64.4q5.4-.42,12.82-1.6,19.67-3.37,24.82,4.66,8.67,13.55-4.87,22.22-14.73,9.44-34.21-7.88l-9.34,19.83a43.49,43.49,0,0,0,25.7,12.92,42.15,42.15,0,0,0,28.84-6.73q15.33-9.83,18.75-24.29t-6.2-29.5a31.43,31.43,0,0,0-9.84-10,28.78,28.78,0,0,0-13.23-4.11,103,103,0,0,0-12.67-.28,120.32,120.32,0,0,0-13.14,1.6q-20.38,2.56-25.54-5.47a10.69,10.69,0,0,1-1.55-8.65,11.82,11.82,0,0,1,5.42-7.26q8.78-5.62,21.49,1.77l9.23-20q-21-13.17-42.16.36-12.19,7.81-15.14,21.24a32.74,32.74,0,0,0,4.84,25.24A33.16,33.16,0,0,0,414.57,415.26Z"/><path class="cls-1" d="M550.3,416.2q14.9,9.18,35.83,4.07t29.92-20.12q9-15,3.4-37.85l-18.19-74.5-22.32,5.45,18.28,74.84q6.38,26.1-16.12,31.59t-28.86-20.61L534,304.23l-22.32,5.45,18.19,74.5Q535.42,407,550.3,416.2Z"/><path class="cls-1" d="M688.68,355.93l12,1.2,27.71,56.42,25.49,2.57-28.57-58.47a30.8,30.8,0,0,0,18.27-10.32q6.84-8.1,8.09-20.41,1.61-16-7.28-26.48T717.7,288.16l-44.83-4.51L660.48,406.72l22.86,2.3Zm4.92-48.88,22.15,2.23q14.41,1.46,13,15.34T713,337.06l-22.15-2.23Z"/><polygon class="cls-1" points="819.8 386.33 860.44 404.54 869.11 385.19 828.47 366.98 840.04 341.18 890.51 363.8 899.18 344.45 827.75 312.43 777.16 425.31 798.12 434.7 819.8 386.33"/><path class="cls-1" d="M905.94,505.32q14.13,13.09,28.64,13.29t26.64-12.88q15.25-16.46,6.94-34.78a20.74,20.74,0,0,0,12.8-.54,29.23,29.23,0,0,0,11.64-7.89q11-11.91,10-24.57T989.38,414l-33.17-30.76L872.12,474Zm52.7-90.9,15,13.94q5.7,5.28,6.2,10.08t-4.31,10q-4.81,5.18-9.56,5.11t-10.2-5.12l-15.42-14.29ZM941.39,464q14.64,13.56,3.35,25.75t-25.94-1.39L903.38,474,926,449.67Z"/><path class="cls-1" d="M1035.94,615l68.16-35.15-10.53-20.41-68.47,35.31q-23.88,12.32-34.49-8.26t13.27-32.89l68.47-35.31-10.53-20.41L993.66,533q-20.89,10.77-26.33,27.39t4.44,35.79q9.88,19.15,26.58,24.36T1035.94,615Z"/><path class="cls-1" d="M1130.85,682q-2.17-14.33-13.25-22.47a32.69,32.69,0,0,0-25-5.85,33.25,33.25,0,0,0-14,4.9,29.87,29.87,0,0,0-9.63,10.13,68,68,0,0,0-5.51,11.38q-1.82,5.1-3.75,12.37-4.92,19.33-14.36,20.77-15.9,2.42-18.31-13.49-2.62-17.28,21.12-28.05l-14.32-16.59a43.42,43.42,0,0,0-22.25,18.22,42.15,42.15,0,0,0-5.59,29.09q2.73,18,14.56,27T1050,735.7a31.42,31.42,0,0,0,13.1-4.94,28.77,28.77,0,0,0,9.14-10.41,102.55,102.55,0,0,0,5.41-11.46,123.86,123.86,0,0,0,3.88-12.65q6-19.68,15.38-21.11a10.74,10.74,0,0,1,8.54,2.1,11.79,11.79,0,0,1,4.42,7.91q1.57,10.3-10.35,18.91L1114,720.61Q1134.62,706.77,1130.85,682Z"/><polygon class="cls-1" points="503.74 1095.65 490.04 1059.36 477.91 1059.36 477.91 1117.49 488.71 1117.49 488.71 1081.62 499.83 1112.18 507.64 1112.18 518.77 1081.62 518.77 1117.49 529.57 1117.49 529.57 1059.36 517.44 1059.36 503.74 1095.65"/><path class="cls-1" d="M578.9,1058.7a29.43,29.43,0,0,0-13.62,3.15,23.48,23.48,0,0,0-10,10.13,34,34,0,0,0-3.78,16.45q0,9.79,3.82,16.61,7.49,13.13,23.59,13.12a29.67,29.67,0,0,0,13.62-3.07,24.6,24.6,0,0,0,10-10.26,33.76,33.76,0,0,0,3.78-16.4q0-9.72-3.91-16.61Q595.17,1058.7,578.9,1058.7Zm11.71,44.51a15.19,15.19,0,0,1-11.71,5,15.58,15.58,0,0,1-11.79-5q-4.67-5.07-4.66-14.78t4.66-14.79a15.58,15.58,0,0,1,11.79-5,15.19,15.19,0,0,1,11.71,5q4.74,5,4.73,14.79T590.61,1103.21Z"/><path class="cls-1" d="M664,1081.49a13.64,13.64,0,0,0,1.5-6.43q0-7.65-4.4-11.67t-12.21-4H627.65v58.14h21.68q9,0,14.11-4.57t5.07-13q0-10.54-8.72-14.2A9.67,9.67,0,0,0,664,1081.49Zm-25.57-12.16h9.63c2.44,0,4.22.49,5.36,1.49s1.7,2.6,1.7,4.82-.56,3.82-1.66,4.81-2.83,1.5-5.15,1.5h-9.88Zm9.88,38.2h-9.88v-15.61h9.88q9.38,0,9.38,7.8T648.33,1107.53Z"/><rect class="cls-1" x="689.52" y="1059.36" width="10.8" height="58.14"/><polygon class="cls-1" points="759.78 1069.33 759.78 1059.36 723.82 1059.36 723.82 1117.49 760.61 1117.49 760.61 1107.53 734.62 1107.53 734.62 1091.5 754.8 1091.5 754.8 1081.54 734.62 1081.54 734.62 1069.33 759.78 1069.33"/><polygon class="cls-1" points="782.12 1059.36 782.12 1117.49 817.59 1117.49 817.59 1107.53 792.92 1107.53 792.92 1059.36 782.12 1059.36"/><polygon class="cls-1" points="874.89 1069.33 874.89 1059.36 838.93 1059.36 838.93 1117.49 875.72 1117.49 875.72 1107.53 849.72 1107.53 849.72 1091.5 869.91 1091.5 869.91 1081.54 849.72 1081.54 849.72 1069.33 874.89 1069.33"/><path class="cls-1" d="M395.78,1184.94a48,48,0,0,0-4.95-3.32,54.67,54.67,0,0,0-5.6-2.7q-8.73-4.15-8.72-8.64a5,5,0,0,1,1.58-3.82,5.55,5.55,0,0,1,4-1.5q4.9,0,8.06,6.15l8.72-5.56q-5-10.54-16.78-10.55a16.27,16.27,0,0,0-14.57,22.63,14.07,14.07,0,0,0,4,5.19,32.22,32.22,0,0,0,4.9,3.36q2.25,1.21,5.49,2.62,8.63,3.66,8.63,8.14,0,7.56-7.55,7.56-8.24,0-11.55-11.8l-8.72,5.48a20.41,20.41,0,0,0,6.89,11.63,19.84,19.84,0,0,0,13.13,4.65q8.55,0,13.58-4.86t5-13.24a14.8,14.8,0,0,0-1.37-6.44A13.46,13.46,0,0,0,395.78,1184.94Z"/><path class="cls-1" d="M465,1191.71v-36h-10.8v36.21q0,12.63-10.88,12.63t-10.88-12.63v-36.21H421.6v36q0,11,5.77,16.9t15.91,5.85q10.13,0,15.9-5.85T465,1191.71Z"/><path class="cls-1" d="M522.84,1182.11a17.09,17.09,0,0,0,2.82-9.92q0-7.56-4.65-12t-13-4.49H486.8v58.14h10.79v-25.08h5.65l15.61,25.08h12l-16.12-26A14.43,14.43,0,0,0,522.84,1182.11Zm-14.78-3.36H497.59v-13.12h10.47q6.81,0,6.81,6.56T508.06,1178.75Z"/><polygon class="cls-1" points="550.16 1213.8 560.96 1213.8 560.96 1188.88 581.89 1188.88 581.89 1178.92 560.96 1178.92 560.96 1165.63 586.96 1165.63 586.96 1155.66 550.16 1155.66 550.16 1213.8"/><path class="cls-1" d="M624,1204.5q-8.24,0-11.55-11.8l-8.72,5.48a20.41,20.41,0,0,0,6.89,11.63,19.84,19.84,0,0,0,13.13,4.65q8.55,0,13.58-4.86t5-13.24a14.8,14.8,0,0,0-1.37-6.44,13.46,13.46,0,0,0-4.19-5,48,48,0,0,0-4.95-3.32,54.67,54.67,0,0,0-5.6-2.7q-8.73-4.15-8.72-8.64a5,5,0,0,1,1.58-3.82,5.55,5.55,0,0,1,4-1.5q4.9,0,8.06,6.15l8.72-5.56q-5-10.54-16.78-10.55a16.27,16.27,0,0,0-14.57,22.63,14.07,14.07,0,0,0,4,5.19,32.22,32.22,0,0,0,4.9,3.36q2.25,1.21,5.49,2.62,8.63,3.66,8.63,8.14Q631.55,1204.5,624,1204.5Z"/><path class="cls-1" d="M669.59,1162.89q-8,7.8-8,21.84t8,21.84a26.85,26.85,0,0,0,19.51,7.89q9.48,0,15.74-4.61a22.11,22.11,0,0,0,8.35-13l-9.72-2.5q-3.9,10.14-14.37,10.14a15.55,15.55,0,0,1-11.87-5.07q-4.65-5.15-4.65-14.7t4.65-14.7A15.55,15.55,0,0,1,689.1,1165q10.47,0,14.37,10.14l9.72-2.49a22.1,22.1,0,0,0-8.35-13q-6.27-4.6-15.74-4.61A26.85,26.85,0,0,0,669.59,1162.89Z"/><polygon class="cls-1" points="779.13 1213.8 779.13 1155.66 768.34 1155.66 768.34 1177.76 745.08 1177.76 745.08 1155.66 734.28 1155.66 734.28 1213.8 745.08 1213.8 745.08 1187.72 768.34 1187.72 768.34 1213.8 779.13 1213.8"/><path class="cls-1" d="M815.42,1158.15a23.49,23.49,0,0,0-10,10.14,34,34,0,0,0-3.78,16.44q0,9.8,3.82,16.61,7.47,13.13,23.58,13.12a29.74,29.74,0,0,0,13.63-3.07,24.47,24.47,0,0,0,10-10.26,33.76,33.76,0,0,0,3.78-16.4q0-9.72-3.9-16.61Q845.32,1155,829,1155A29.43,29.43,0,0,0,815.42,1158.15Zm30.07,26.58q0,9.8-4.74,14.78a15.13,15.13,0,0,1-11.71,5,15.59,15.59,0,0,1-11.79-5q-4.65-5.05-4.65-14.78t4.65-14.78a15.62,15.62,0,0,1,11.79-5,15.17,15.17,0,0,1,11.71,5Q845.49,1174.93,845.49,1184.73Z"/><path class="cls-1" d="M904.45,1155a29.43,29.43,0,0,0-13.62,3.15,23.44,23.44,0,0,0-10,10.14,34,34,0,0,0-3.78,16.44q0,9.8,3.82,16.61,7.47,13.13,23.58,13.12a29.67,29.67,0,0,0,13.62-3.07,24.43,24.43,0,0,0,10-10.26,33.76,33.76,0,0,0,3.78-16.4q0-9.72-3.9-16.61Q920.73,1155,904.45,1155Zm11.71,44.51a15.15,15.15,0,0,1-11.71,5,15.59,15.59,0,0,1-11.79-5q-4.65-5.05-4.65-14.78t4.65-14.78a15.62,15.62,0,0,1,11.79-5,15.18,15.18,0,0,1,11.71,5q4.74,5,4.74,14.78T916.16,1199.51Z"/><polygon class="cls-1" points="964 1155.66 953.2 1155.66 953.2 1213.8 988.67 1213.8 988.67 1203.83 964 1203.83 964 1155.66"/><path class="cls-1" d="M670.08,463.75h-1.62c-152.74,0-276.56,123.82-276.56,276.56s123.82,276.56,276.56,276.56h.25c152.13,0,276.58-123.52,276.76-274.78C945.67,588.39,822.45,463.86,670.08,463.75ZM888.9,588.49a265,265,0,0,1,34.25,69.29c-2.6.15-4.5.33-6.37.33q-89.38,0-178.77,0a8.9,8.9,0,0,1-8.32-11.82c.52-1.47,2.91-2.61,4.68-3.26q35.36-13.06,70.79-25.91c25.88-9.43,51.8-18.77,77.62-28.36C885.33,587.83,887.22,587.62,888.9,588.49Zm-54.58-58.21A270.51,270.51,0,0,1,882,579c.08.19.17.38.27.6-1.84.88-3.4,1.8-5.07,2.41-48.63,17.68-97.33,35.18-145.85,53.13-6.51,2.41-6.89-2.2-9.33-5.3-2.86-3.63-1.3-5.69,1.7-8.2q53.13-44.45,106.08-89.08C831.31,531.35,832.64,530.15,834.32,530.28ZM716.85,658.12h-48c-16,0-32-.12-48,.08-4.6,0-5.73-1.42-5-5.93,3.8-24.56,27.81-44.54,53.56-44.3S718.59,628.6,722,653.36C722.68,658.17,720.06,658.13,716.85,658.12ZM772,493.4q5.21,2.18,10.31,4.58,18.65,10.66,37.24,21.38c2.1,1.44,4.17,2.91,6.23,4.41.17.25.37.52.61.82-11,9.3-21.68,18.3-32.36,27.26Q756.33,583.44,718.64,615c-3.84,3.22-12.83.24-13.87-4.76-.25-1.22.63-2.83,1.33-4.06q31.49-54.72,63-109.39C770,495.4,770.74,493.93,772,493.4Zm-64.44-17.87q6,.87,11.87,2,16.46,4.27,32.91,8.51c3.17,1,6.32,2.16,9.45,3.32.9,1.14.64,2.73-.7,5q-31.32,53.85-62.38,107.85c-1.55,2.7-3.31,4.19-6.19,2.36s-8.43-.55-8.35-5.32c3.43-19.44,6.68-37.77,9.89-56.1,3.67-20.9,7.39-41.79,10.89-62.72C705.35,478,706.05,476.24,707.54,475.53Zm-66.07-1.48q13.37-1.33,27-1.34a271.93,271.93,0,0,1,27.91,1.44c.87,1,1.12,2.54.65,5.09q-10.56,57.87-20.44,115.87c-.71,4.07-2.54,5.36-6.37,4.89s-7.9,1.65-9-5c-6.56-38.66-13.54-77.26-20.55-115.85C640.19,476.67,640.46,475.06,641.47,474.05Zm-11.84,1.44c1.66.59,2.58,2.18,3.06,5,4.73,27.71,9.69,55.38,14.57,83.07,1.94,11,3.81,22,5.8,33,.56,3,.73,5.83-3.17,6.32-3.63.45-7.34,5.66-10.95-.64q-31.43-54.76-63.12-109.36a23.31,23.31,0,0,1-1.24-3.29A265.78,265.78,0,0,1,629.63,475.49ZM529.8,511.32c8.07-4.5,16.25-8.81,24.41-13.15q5.29-2.51,10.7-4.76c1.27.18,2.33,1.09,3.34,2.86q31.69,55.23,63.59,110.32c1.48,2.55,1.36,4.27-1.05,6.17-8.95,7-6.1,6.92-13.87.43q-51-42.6-101.89-85.38l-4.38-3.67Q520,517.3,529.8,511.32Zm-72,63.93c1.26-1.61,2.54-3.2,3.85-4.79.35-.39.69-.8,1.06-1.17,11.81-12,23.8-23.75,35.7-35.63q1.85-1.51,3.71-3c1.71-.68,3.39-.13,5.35,1.53q53.35,45,106.87,89.83c2.64,2.22,4.18,4.26,1.48,7.35-2.44,2.8-2.25,8.39-9.09,5.87-49.06-18.1-98.26-35.8-147.4-53.65-1.2-.43-2.3-1.11-4.64-2.27C455.8,577.92,456.81,576.56,457.79,575.25Zm-38.26,66.49c.27-.58.51-1.19.8-1.76,8.28-16.23,17-32.24,25.53-48.34.58-.87,1.18-1.72,1.77-2.58,1.49-1.45,3.36-1.65,6.16-.63Q528,615.64,602.22,642.54c6,2.19,7.9,8.65,4.14,14A4.88,4.88,0,0,1,603.6,658a14.26,14.26,0,0,1-3.34.12q-89.62,0-179.27,0c-2,0-3.93-.22-7.19-.42Q416.41,649.62,419.53,641.74ZM402.24,766.21c-.44-4-.63-8-.85-12,23.75,0,88.79,0,109.26,0,3,0,6-.13,8.94.06,6.75.43,10.26,3,10.33,7.78.08,5.36-3.07,8.07-8,9.12-2.91.62-5.8,1.35-8.7,2-10.88,2.49-21.85,4.67-32.63,7.57-9.75,2.62-15.05,10.57-14.28,20S474,817.08,483.74,818c2.95.29,6,.14,8.94.14H658.13c0,5.35.13,10.7,0,16.05-.07,4.57,1,5.59,5.59,5.63,6.47,0,20.49.15,27,0,2.64,0,4.22.58,5.32,3.39a18.2,18.2,0,0,0,8,9.54H425.79Q407.46,813.18,402.24,766.21ZM838.69,756a21.83,21.83,0,0,1,14.93,5.28c1,.91,2.37,1.73,2.5,3.34a1.7,1.7,0,0,1-1.39.76l-158.4.05a2.12,2.12,0,0,1-1.89-.92c1-2.77,3-5,4.74-7.45a2.53,2.53,0,0,1,2.09-1c1.05,0,2.11-.07,3.16-.07Q771.56,756,838.69,756Zm-104.11-9.26c0-1.45,0-2.9,0-4.35a2.06,2.06,0,0,1,2.19-2.26c1.05,0,2.1-.07,3.16-.07l61.69,0c5.14,0,5.33.23,5.14,5.36-.12,3.33-.32,3.64-3.65,3.65-10.81,0-23.32,0-34.13,0H740.24c-1.06,0-2.11,0-3.16,0C735.5,749.1,734.58,748.4,734.58,746.75Zm-33.25,89.51a12.47,12.47,0,0,1,12.17-12.14A12.05,12.05,0,0,1,726,836.21a12.45,12.45,0,0,1-12.23,12.49A12.7,12.7,0,0,1,701.33,836.26Zm30,7c1.12-2.81,2.67-3.41,5.33-3.4,13.07.08,26.14,0,39.21,0,8.45,0,16.9.07,25.35,0,2.7,0,4.41.53,5.26,3.45a15.81,15.81,0,0,0,5.74,7.89,19.17,19.17,0,0,0,2.4,1.59H723.44A18.29,18.29,0,0,0,731.32,843.29Zm92.79,5.38a12.35,12.35,0,0,1-12.19-12,12,12,0,0,1,12-12.51,12.38,12.38,0,0,1,12.54,12.12A12.6,12.6,0,0,1,824.11,848.67Zm5.68-30.52a19,19,0,0,0-23.07,10.43c-.43,1-.76,2-1.14,2.95a2.18,2.18,0,0,1-2.11,1.51c-1.05,0-2.11.07-3.16.07H738.12c-5.38,0-5.39,0-5.39-5.52q0-13.67,0-27.33c0-5.16,0-5.19,5.37-5.19q29.5,0,59,0h58.22c5.9,0,5.91,0,5.92,5.94q0,13.47,0,26.93c0,5.17,0,5.17-5.35,5.18-3.17,0-6.34-.1-9.5,0-2.33.1-3.54-.77-4.32-3A18.31,18.31,0,0,0,829.79,818.15Zm-97.06-41.38c0-4.68.08-4.73,5-4.76,3.95,0,7.9,0,11.85,0,9.09,0,18.17,0,27.26,0,4.23,0,4.41.22,4.45,4.49q0,3.75,0,7.51c0,4.4-.19,4.56-4.78,4.58-6.45,0-12.9,0-19.36,0-6.71,0-13.43,0-20.14,0-4,0-4.2-.26-4.25-4.3C732.7,781.78,732.71,779.28,732.73,776.77Zm55.06-.93c.11-3.44.45-3.79,4-3.81,7.65-.06,15.3,0,23,0,5.93,0,11.87,0,17.81,0,3.54,0,3.89.38,4,3.83.09,3,.09,6.07,0,9.1s-.52,3.58-3.8,3.61c-7,.07-14,0-21,0-6.6,0-13.19,0-19.79,0-3.77,0-4.11-.38-4.2-4C787.72,781.64,787.71,778.74,787.79,775.84Zm73.37,10.36c0,1.62-1.09,2.31-2.61,2.33-2.24,0-4.47,0-6.71,0v0h-5.92c-1.71,0-2.78-.71-2.79-2.55q0-5.73,0-11.45c0-1.85,1.1-2.53,2.8-2.53,4,0,7.9,0,11.85,0a2.82,2.82,0,0,1,3.17,2.75A67.15,67.15,0,0,1,861.16,786.2ZM722.58,772.05c2.87,0,3.2.4,3.28,3.21.09,3.29.08,6.59,0,9.88-.07,3-.4,3.39-3.48,3.42-6.72.08-13.43,0-20.14,0H683.68a25.46,25.46,0,0,1-2.76-.1c-1.31-.14-1.95-.84-1.32-2.15a79.14,79.14,0,0,1,8.53-13.25c.8-1.06,2.06-1.07,3.25-1.07C701.78,772,712.18,772,722.58,772.05Zm-43.06,23h21.37c7,0,14,0,21,0,1.39,0,4.07-.49,4.07,1.38,0,6.72-.21,13.28,0,19.74,0,1.23,0,3.24-.57,3.81-1.41,1.42-3.26-.95-4.92-1.57A18.73,18.73,0,0,0,696.26,829c-1.31,3.39-3,4.32-6.39,4.15-4.74-.25-17-.16-21.79-.14-1.85,0-3.09-.55-3.05-2.66.18-10.61-.13-20.76,2-31C667.72,796,674,795.08,679.52,795.08ZM816.35,963.43q-10.83,7.22-22.26,13.31c-32,17-68.55,26.43-104.58,29.1a279.67,279.67,0,0,1-108.16-13.11,253.8,253.8,0,0,1-66.47-33.25h302.2C819.44,959.48,823.32,959.16,816.35,963.43Zm51.81-45a305,305,0,0,1-34.62,32.43H504.05A295.73,295.73,0,0,1,463.83,912H873.64C871.83,914.17,870,916.33,868.16,918.44Zm12.41-15H456.78a257,257,0,0,1-26.78-42H907.16A266.43,266.43,0,0,1,880.57,903.41Zm30.76-50.59H833.52a18.9,18.9,0,0,0,8.09-9.22c1.15-2.77,2.52-3.86,5.5-3.73,5.14.21,10.3.11,15.45,0,4.21-.06,5.16-1,5.16-5.17q0-8.28,0-16.56h7.35c10.08,0,35.46-.08,49.46,0A263.5,263.5,0,0,1,911.33,852.82Zm10.81-45.47H867.73q0-15.61,0-31.24a23,23,0,0,0-2.07-9.61c-5-11-13.77-16.78-25.79-17.25-7.91-.3-14.15,0-22.07-.09-4,0-4.16-.22-4.19-4.32,0-.27,0-.53,0-.79.08-3.64.25-3.77,3.78-4,6.06-.38,12.13.41,18.2.43,1.19,0,2.38,0,3.57-.07,1.42-.08,2-.9,2.21-2.29.38-3.14-.31-3.26-3.54-3.36-1.06,0-2.11,0-3.17,0l-3.33,0c-.72-1.37-2-5.13,3.65-8.25,3.52-1.94,2.68-5.1-3.19-4.23-7.22,1.06-11.56,9.59-12.75,12.22-10.12-.22-21.36-.49-21.36-.49-20.72-.06-41.45,0-62.18,0-10.7,0-5.54,0-16.24.07-3.15,0-22.59.34-22.34,3.37.19,2.21.59,2.63,3.47,2.66,6.6.08,16.23-.4,22.83-.35,4.28,0,4.46.26,4.49,4.48,0,.39,0,.79,0,1.19-.11,3.51-.29,3.73-3.93,3.77-4.35.06-10.41,0-14.77,0-3.83,0-8.66-.15-12.38.6-3.91.78-7.47,8.32-9.43,11.43-3.07,4.85-6,9.78-9.2,14.54-2.76,4.12-5.92,12.85-11.21,14.77-7.35,2.68-7.2,10-8,16.4,0,.15,0,.29,0,.43H493.86c-3.35,0-6.72.09-10.05-.22-4.36-.4-6.56-3.4-7-7.41a7.3,7.3,0,0,1,4.87-8A67.77,67.77,0,0,1,491.3,789c11.6-2.71,23.29-5,34.8-8.11,9.73-2.6,15.52-10.94,14.68-19.8a18.73,18.73,0,0,0-18.67-17.32c-24.41-.29-91.4-.15-121.25-.1a16.57,16.57,0,0,1,0-3.59q0-6.06.28-12.08l0-.09a2,2,0,0,0,0-.25c.08-1.7.2-3.41.33-5.11l-.06,0a268.57,268.57,0,0,1,6.29-42.9c.09-.06.17-.14.26-.19.66-2.84,1.33-5.67,1.91-8.52.69-3.35,2.55-4.74,5.87-4.56,1.67.09,3.35,0,5,0h496.3c5.29,0,7.66,0,9.1,1.56a269.89,269.89,0,0,1,1.35,139.45C925.76,807.39,924,807.35,922.14,807.35Z"/><path class="cls-1" d="M814.36,726.76c-.82,0-1.63,0-2.45,0-.43,0-1.59,0-3.14,0-.47-.94-1.13-3.28,2.39-5.23,2.26-1.25,1.73-3.28-2-2.73-4.58.68-7.36,6-8.17,7.79l-6.82-.15c-.41-1.08-.64-3.15,2.53-4.91,2.27-1.25,1.73-3.28-2-2.73-4.32.64-7,5.44-8,7.47l-3.23-.08c-3.91-.09-64.39-1.45-64.05,2.66.14,1.7.45,2,2.68,2.05,9.37.11,18.74-.5,28.11-.52,20.64,0,41.73.78,62.53.85.92,0,1.84,0,2.75-.06,1.1-.06,1.58-.69,1.71-1.77C817.39,726.94,816.85,726.85,814.36,726.76Z"/><path class="cls-1" d="M713.73,841.27a5,5,0,0,0,4.83-4.76,4.71,4.71,0,0,0-4.88-5,4.89,4.89,0,0,0-4.88,4.66A5,5,0,0,0,713.73,841.27Z"/><path class="cls-1" d="M824.27,831.51a4.62,4.62,0,0,0-4.94,4.56,4.84,4.84,0,0,0,4.78,5.19,4.73,4.73,0,0,0,4.73-4.83A4.61,4.61,0,0,0,824.27,831.51Z"/><path class="cls-2" d="M503,1318.49H492.08v-35H503a17.33,17.33,0,0,1,6.05,1,16.24,16.24,0,0,1,5.18,3.1,14.22,14.22,0,0,1,3.7,5.5,23.17,23.17,0,0,1,0,15.7,14.22,14.22,0,0,1-3.7,5.5,16.24,16.24,0,0,1-5.18,3.1A17.33,17.33,0,0,1,503,1318.49Zm-4.45-29v23H501a13.68,13.68,0,0,0,7.9-2.25q3.86-2.55,3.85-9.25t-3.85-9.25a13.68,13.68,0,0,0-7.9-2.25Z"/><path class="cls-2" d="M528.18,1318.49v-35h21.65v6H534.68v7.35h12.15v6H534.68v9.65h15.65v6Z"/><path class="cls-2" d="M578.93,1289.44l-5.25,3.35q-1.89-3.7-4.85-3.7a3.37,3.37,0,0,0-2.4.9,3,3,0,0,0-.95,2.3q0,2.7,5.25,5.2a33.2,33.2,0,0,1,3.38,1.63,28.18,28.18,0,0,1,3,2,7.93,7.93,0,0,1,2.53,3,8.85,8.85,0,0,1,.82,3.87,10.57,10.57,0,0,1-3,8,11.23,11.23,0,0,1-8.18,2.93,11.93,11.93,0,0,1-7.9-2.8,12.3,12.3,0,0,1-4.15-7l5.25-3.3q2,7.1,7,7.1c3,0,4.55-1.52,4.55-4.55q0-2.7-5.2-4.9c-1.3-.57-2.4-1.09-3.3-1.57a19.66,19.66,0,0,1-2.95-2,8.56,8.56,0,0,1-2.42-3.13,9.42,9.42,0,0,1-.78-4.12,9.31,9.31,0,0,1,9.55-9.5A10.36,10.36,0,0,1,578.93,1289.44Z"/><path class="cls-2" d="M608.23,1283.49h6.5v21.7q0,6.64-3.47,10.18t-9.58,3.52c-4.06,0-7.26-1.18-9.57-3.52s-3.48-5.75-3.48-10.18v-21.7h6.5v21.8q0,7.61,6.55,7.6t6.55-7.6Z"/><path class="cls-2" d="M647.28,1293.44a10.27,10.27,0,0,1-1.7,6,8.69,8.69,0,0,1-4.85,3.42l9.7,15.65h-7.25l-9.4-15.1h-3.4v15.1h-6.5v-35h12.75q5.05,0,7.85,2.7A9.6,9.6,0,0,1,647.28,1293.44Zm-16.9,4h6.3q4.1,0,4.1-4t-4.1-4h-6.3Z"/><path class="cls-2" d="M658,1318.49v-35h22.15v6H664.53v8h12.6v6h-12.6v15Z"/><path class="cls-2" d="M688.93,1318.49v-35h12.8a10.48,10.48,0,0,1,7.35,2.43q2.65,2.41,2.65,7a8.28,8.28,0,0,1-.9,3.88,5.92,5.92,0,0,1-2.55,2.57q5.25,2.2,5.25,8.55,0,5.05-3,7.8c-2,1.83-4.87,2.75-8.5,2.75Zm12.3-29h-5.8v7.6h6a4.54,4.54,0,0,0,3.1-.9,4.67,4.67,0,0,0,0-5.8A4.83,4.83,0,0,0,701.23,1289.49Zm.15,13.6h-6v9.4h6q5.65,0,5.65-4.7T701.38,1303.09Z"/><path class="cls-2" d="M741.43,1283.49h6.5v21.7q0,6.64-3.47,10.18t-9.58,3.52q-6.11,0-9.57-3.52t-3.48-10.18v-21.7h6.5v21.8q0,7.61,6.55,7.6t6.55-7.6Z"/><path class="cls-2" d="M777.18,1289.44l-5.25,3.35c-1.27-2.47-2.88-3.7-4.85-3.7a3.34,3.34,0,0,0-2.4.9,3,3,0,0,0-.95,2.3q0,2.7,5.25,5.2a33.2,33.2,0,0,1,3.38,1.63,28.18,28.18,0,0,1,3,2,8,8,0,0,1,2.53,3,8.85,8.85,0,0,1,.82,3.87,10.57,10.57,0,0,1-3,8,11.25,11.25,0,0,1-8.18,2.93,11.92,11.92,0,0,1-7.9-2.8,12.3,12.3,0,0,1-4.15-7l5.25-3.3q2,7.1,7,7.1,4.54,0,4.55-4.55,0-2.7-5.2-4.9c-1.3-.57-2.4-1.09-3.3-1.57a19.66,19.66,0,0,1-2.95-2,8.46,8.46,0,0,1-2.42-3.13,9.42,9.42,0,0,1-.78-4.12,9.31,9.31,0,0,1,9.55-9.5A10.37,10.37,0,0,1,777.18,1289.44Z"/><path class="cls-2" d="M791.23,1318.79a4.1,4.1,0,1,1,3-1.2A4.07,4.07,0,0,1,791.23,1318.79Z"/><path class="cls-2" d="M826.63,1306.59v-23.1h6.5v35h-6.85l-12.85-23.1v23.1h-6.5v-35h6.85Z"/><path class="cls-2" d="M843.28,1318.49v-35h6.5v29h14.85v6Z"/></svg>