<svg id="Layer_1" data-name="Layer 1" xmlns="http://www.w3.org/2000/svg" viewBox="0 0 1325.14 1612.83"><defs><style>.cls-1{fill:#a4c5c9;}.cls-2{fill:#ed8440;}.cls-3{fill:#f8df67;}.cls-4{fill:#faf1b0;}.cls-5{fill:#231f20;}.cls-6{fill:#fff;}.cls-7{fill:#be202e;}</style></defs><polygon class="cls-1" points="937.48 804.81 927.54 867.48 472.77 866.19 470.57 846.86 523.51 833.34 533.09 818.65 517.01 804.81 394.1 804.81 395.4 761.65 406.89 718.8 924.69 718.8 935.93 760 937.48 804.81"/><polygon class="cls-2" points="404.67 718.3 445.93 631.29 505.87 576.17 572.66 539.24 635.34 528.7 704.01 528.7 769.4 545.83 829.59 578.72 887.4 637.18 927.32 718.3 404.67 718.3"/><path class="cls-3" d="M725.81,718.8c0-32.87-26.65-57-59.52-57s-59.52,24.09-59.52,57Z"/><path class="cls-4" d="M396.74,808c22.91-2.08,55.36-3.14,55.36-3.14L517,806.67l16.07,12-9.57,14.68-52.94,13.52-4.32,14L481.15,873l448.73.19-52.14,96.36-71.26,63.84-70.78,27.42-78.32,10.38-102.62-21.48L464,982.36,409.06,894,393.9,809.46Z"/><path class="cls-5" d="M319.56,708.53Q314,699.1,303,692a81.66,81.66,0,0,0-54.48-10.54q-12.89,2.46-21.56,9.15a57.34,57.34,0,0,0-14.23,15.87A61.2,61.2,0,0,0,205,726.77l-7.35,38,121.44,23.5,7.35-38a61.5,61.5,0,0,0,.42-21.7A57.75,57.75,0,0,0,319.56,708.53Zm-15.34,44.82-1.61,8.33-79.8-15.44,1.61-8.33q3.09-16,13.11-25.9,11.43-11.64,34.68-7.15t29.51,19.57Q307.31,737.39,304.22,753.35Z"/><polygon class="cls-5" points="371.29 589.32 343.44 637.11 313.98 619.93 335.6 582.83 317.28 572.16 295.66 609.25 273.22 596.17 300.18 549.91 281.86 539.24 243.33 605.34 350.19 667.63 389.61 600 371.29 589.32"/><path class="cls-5" d="M412,472.81a30,30,0,0,0,13.18,4.68,67.18,67.18,0,0,0,12.64.4q5.4-.42,12.82-1.61,19.67-3.36,24.81,4.67,8.69,13.55-4.86,22.22-14.73,9.44-34.22-7.88L427,515.12A43.49,43.49,0,0,0,452.72,528a42.21,42.21,0,0,0,28.84-6.73q15.33-9.82,18.75-24.29t-6.2-29.5a31.32,31.32,0,0,0-9.84-10A28.79,28.79,0,0,0,471,453.45a102.85,102.85,0,0,0-12.66-.28,120.32,120.32,0,0,0-13.14,1.6q-20.39,2.57-25.54-5.47a10.69,10.69,0,0,1-1.56-8.65,11.87,11.87,0,0,1,5.43-7.26q8.78-5.62,21.49,1.77l9.23-20q-21-13.17-42.16.36-12.19,7.81-15.14,21.24A32.75,32.75,0,0,0,401.81,462,33.3,33.3,0,0,0,412,472.81Z"/><path class="cls-5" d="M547.72,473.75q14.88,9.18,35.83,4.07t29.92-20.12q9-15,3.4-37.85l-18.19-74.5-22.32,5.45,18.28,74.84q6.36,26.1-16.12,31.58t-28.86-20.6l-18.27-74.84-22.32,5.45,18.19,74.5Q532.84,464.56,547.72,473.75Z"/><path class="cls-5" d="M686.1,413.47l12,1.21,27.7,56.42,25.5,2.57L722.69,415.2A30.78,30.78,0,0,0,741,404.88q6.85-8.1,8.1-20.41,1.61-16-7.28-26.48t-26.65-12.28l-44.83-4.51L657.9,464.27l22.86,2.3ZM691,364.6l22.15,2.23q14.42,1.46,13,15.34t-15.81,12.44l-22.16-2.23Z"/><polygon class="cls-5" points="817.22 443.88 857.86 462.09 866.53 442.74 825.89 424.53 837.46 398.73 887.93 421.35 896.6 402 825.17 369.98 774.58 482.86 795.54 492.25 817.22 443.88"/><path class="cls-5" d="M903.36,562.87Q917.49,576,932,576.16t26.64-12.88q15.25-16.47,6.94-34.78a20.64,20.64,0,0,0,12.79-.55A29.06,29.06,0,0,0,990,520.07q11-11.91,10-24.57T986.8,471.56L953.63,440.8l-84.09,90.72Zm52.7-90.9,15,13.94q5.7,5.28,6.2,10.08T973,506q-4.82,5.17-9.56,5.11T953.22,506L937.8,491.67Zm-17.25,49.54q14.64,13.57,3.35,25.76t-25.94-1.39l-15.42-14.3,22.58-24.36Z"/><path class="cls-5" d="M1033.36,672.54l68.16-35.15L1091,617l-68.48,35.31Q998.65,664.61,988,644t13.26-32.89l68.48-35.31-10.53-20.42-68.16,35.16q-20.9,10.77-26.33,27.39t4.44,35.79q9.88,19.15,26.58,24.36T1033.36,672.54Z"/><path class="cls-5" d="M1128.27,739.5Q1126.08,725.18,1115,717a32.71,32.71,0,0,0-25-5.85,33.25,33.25,0,0,0-14,4.9,29.87,29.87,0,0,0-9.63,10.13,67.65,67.65,0,0,0-5.51,11.38q-1.81,5.1-3.75,12.37-4.92,19.34-14.36,20.77-15.9,2.41-18.31-13.49-2.62-17.29,21.12-28l-14.32-16.59A43.44,43.44,0,0,0,1009,730.82a42.2,42.2,0,0,0-5.58,29.09q2.73,18,14.56,27t29.47,6.33a31.42,31.42,0,0,0,13.1-4.94,28.77,28.77,0,0,0,9.14-10.41,103.39,103.39,0,0,0,5.41-11.46,123.36,123.36,0,0,0,3.88-12.66q6-19.66,15.38-21.1a10.7,10.7,0,0,1,8.54,2.1,11.79,11.79,0,0,1,4.42,7.91q1.58,10.3-10.35,18.91l14.49,16.56Q1132,764.32,1128.27,739.5Z"/><polygon class="cls-5" points="501.16 1153.2 487.45 1116.91 475.33 1116.91 475.33 1175.05 486.13 1175.05 486.13 1139.17 497.25 1169.73 505.06 1169.73 516.19 1139.17 516.19 1175.05 526.99 1175.05 526.99 1116.91 514.86 1116.91 501.16 1153.2"/><path class="cls-5" d="M576.32,1116.24a29.38,29.38,0,0,0-13.62,3.16,23.43,23.43,0,0,0-10,10.13,34,34,0,0,0-3.78,16.45q0,9.8,3.82,16.61,7.47,13.13,23.59,13.12a29.7,29.7,0,0,0,13.62-3.07,24.6,24.6,0,0,0,10-10.26,33.87,33.87,0,0,0,3.77-16.4q0-9.72-3.9-16.61Q592.59,1116.24,576.32,1116.24ZM588,1160.76a15.19,15.19,0,0,1-11.71,5,15.62,15.62,0,0,1-11.8-5q-4.65-5.07-4.65-14.78t4.65-14.79a15.62,15.62,0,0,1,11.8-5,15.19,15.19,0,0,1,11.71,5q4.72,5,4.73,14.79T588,1160.76Z"/><path class="cls-5" d="M661.44,1139a13.64,13.64,0,0,0,1.5-6.43q0-7.65-4.4-11.67t-12.21-4H625.07V1175h21.67q9.06,0,14.12-4.56t5.07-13q0-10.55-8.72-14.2A9.67,9.67,0,0,0,661.44,1139Zm-25.58-12.16h9.64c2.43,0,4.22.49,5.36,1.49s1.7,2.6,1.7,4.82S652,1137,650.9,1138s-2.83,1.5-5.15,1.5h-9.89Zm9.89,38.2h-9.89v-15.61h9.89q9.38,0,9.38,7.8T645.75,1165.08Z"/><rect class="cls-5" x="686.94" y="1116.91" width="10.8" height="58.14"/><polygon class="cls-5" points="757.2 1126.88 757.2 1116.91 721.24 1116.91 721.24 1175.05 758.03 1175.05 758.03 1165.08 732.04 1165.08 732.04 1149.05 752.22 1149.05 752.22 1139.08 732.04 1139.08 732.04 1126.88 757.2 1126.88"/><polygon class="cls-5" points="779.54 1116.91 779.54 1175.05 815 1175.05 815 1165.08 790.34 1165.08 790.34 1116.91 779.54 1116.91"/><polygon class="cls-5" points="872.31 1126.88 872.31 1116.91 836.35 1116.91 836.35 1175.05 873.14 1175.05 873.14 1165.08 847.14 1165.08 847.14 1149.05 867.32 1149.05 867.32 1139.08 847.14 1139.08 847.14 1126.88 872.31 1126.88"/><path class="cls-5" d="M393.19,1242.49a48,48,0,0,0-4.94-3.32,54.67,54.67,0,0,0-5.6-2.7q-8.73-4.15-8.72-8.64a5,5,0,0,1,1.57-3.82,5.57,5.57,0,0,1,4-1.5q4.9,0,8.06,6.15l8.72-5.56q-5-10.56-16.78-10.55a16.27,16.27,0,0,0-14.57,22.63,14.07,14.07,0,0,0,4,5.19,31.74,31.74,0,0,0,4.9,3.36q2.25,1.21,5.48,2.62,8.64,3.66,8.64,8.14,0,7.56-7.56,7.56-8.22,0-11.54-11.8l-8.72,5.48a20.41,20.41,0,0,0,6.89,11.63,19.84,19.84,0,0,0,13.13,4.65q8.55,0,13.57-4.86t5-13.24a14.8,14.8,0,0,0-1.37-6.44A13.49,13.49,0,0,0,393.19,1242.49Z"/><path class="cls-5" d="M462.37,1249.26v-36H451.58v36.21q0,12.63-10.88,12.63t-10.88-12.63v-36.21H419v36q0,11,5.77,16.9T440.7,1272q10.13,0,15.9-5.85T462.37,1249.26Z"/><path class="cls-5" d="M520.26,1239.66a17.09,17.09,0,0,0,2.82-9.92q0-7.56-4.65-12t-13-4.49H484.22v58.14H495v-25.08h5.65l15.61,25.08h12l-16.11-26A14.48,14.48,0,0,0,520.26,1239.66Zm-14.78-3.36H495v-13.12h10.47c4.53,0,6.81,2.19,6.81,6.56S510,1236.3,505.48,1236.3Z"/><polygon class="cls-5" points="547.58 1271.35 558.38 1271.35 558.38 1246.43 579.31 1246.43 579.31 1236.47 558.38 1236.47 558.38 1223.18 584.37 1223.18 584.37 1213.21 547.58 1213.21 547.58 1271.35"/><path class="cls-5" d="M621.41,1262.05q-8.22,0-11.54-11.8l-8.72,5.48a20.41,20.41,0,0,0,6.89,11.63,19.84,19.84,0,0,0,13.13,4.65q8.55,0,13.57-4.86t5-13.24a14.8,14.8,0,0,0-1.37-6.44,13.49,13.49,0,0,0-4.2-5,48,48,0,0,0-4.94-3.32,54.67,54.67,0,0,0-5.6-2.7q-8.73-4.15-8.72-8.64a5,5,0,0,1,1.57-3.82,5.57,5.57,0,0,1,4-1.5q4.9,0,8.06,6.15l8.72-5.56q-5-10.56-16.78-10.55a16.27,16.27,0,0,0-14.57,22.63,14.07,14.07,0,0,0,4,5.19,31.74,31.74,0,0,0,4.9,3.36c1.5.81,3.32,1.68,5.48,2.62q8.64,3.66,8.64,8.14Q629,1262.05,621.41,1262.05Z"/><path class="cls-5" d="M667,1220.44q-8,7.8-8,21.84t8,21.84a26.85,26.85,0,0,0,19.51,7.89q9.47,0,15.74-4.61a22.1,22.1,0,0,0,8.35-13l-9.72-2.49q-3.9,10.14-14.37,10.14a15.55,15.55,0,0,1-11.87-5.07q-4.65-5.14-4.65-14.7t4.65-14.7a15.55,15.55,0,0,1,11.87-5.07q10.47,0,14.37,10.14l9.72-2.5a22.11,22.11,0,0,0-8.35-13q-6.27-4.62-15.74-4.61A26.85,26.85,0,0,0,667,1220.44Z"/><polygon class="cls-5" points="776.55 1271.35 776.55 1213.21 765.75 1213.21 765.75 1235.3 742.5 1235.3 742.5 1213.21 731.7 1213.21 731.7 1271.35 742.5 1271.35 742.5 1245.27 765.75 1245.27 765.75 1271.35 776.55 1271.35"/><path class="cls-5" d="M812.84,1215.7a23.44,23.44,0,0,0-10,10.14,34,34,0,0,0-3.78,16.44q0,9.79,3.82,16.61,7.47,13.13,23.58,13.12a29.67,29.67,0,0,0,13.62-3.07,24.49,24.49,0,0,0,10-10.26,33.76,33.76,0,0,0,3.78-16.4q0-9.72-3.9-16.61-7.23-13.12-23.51-13.12A29.43,29.43,0,0,0,812.84,1215.7Zm30.07,26.58q0,9.79-4.74,14.78a15.15,15.15,0,0,1-11.71,5,15.59,15.59,0,0,1-11.79-5Q810,1252,810,1242.28t4.65-14.78a15.59,15.59,0,0,1,11.79-5,15.15,15.15,0,0,1,11.71,5Q842.91,1232.48,842.91,1242.28Z"/><path class="cls-5" d="M901.87,1212.55a29.43,29.43,0,0,0-13.62,3.15,23.51,23.51,0,0,0-10,10.14,34,34,0,0,0-3.78,16.44q0,9.79,3.83,16.61,7.47,13.13,23.58,13.12a29.67,29.67,0,0,0,13.62-3.07,24.55,24.55,0,0,0,10-10.26,33.76,33.76,0,0,0,3.78-16.4q0-9.72-3.91-16.61Q918.16,1212.55,901.87,1212.55Zm11.71,44.51a15.15,15.15,0,0,1-11.71,5,15.57,15.57,0,0,1-11.79-5q-4.65-5.05-4.65-14.78t4.65-14.78a15.57,15.57,0,0,1,11.79-5,15.15,15.15,0,0,1,11.71,5q4.74,5,4.74,14.78T913.58,1257.06Z"/><polygon class="cls-5" points="961.42 1213.21 950.62 1213.21 950.62 1271.35 986.08 1271.35 986.08 1261.38 961.42 1261.38 961.42 1213.21"/><polygon class="cls-6" points="862.87 850.23 667.8 850.23 682.92 827.57 862.87 827.57 862.87 850.23"/><path class="cls-7" d="M846.89,810.32l-2.1-.35a8,8,0,0,0-2-.33c-6.68-1.11-5.8.8-12.48-.31a13.73,13.73,0,0,0-4.43,0l-2.53-.18a10.57,10.57,0,0,0-2.34-.33c-13.86-.46-27.73-.94-41.57.07-26.79-1.56-53.85-2-80.67-1.37a10.74,10.74,0,0,0-2,.25c-4.56,1.51-8.11,5.08-13,13.34-2.69,4.54,4.37,8,10.21,7.69a689.54,689.54,0,0,1,81.07-.23,33.34,33.34,0,0,0,5.4.38c2.53,2.68,6.54.75,10.39-1.26L796,828c.08.5.15-1.25.22-.8,0-.45,0,1.31,0,.81l4.17.24c1,1.16,2,0,3,0,1.39,0,12.32-1.17,14-1.68l.72,0a62.79,62.79,0,0,0,8.66.5c1.69,0,3.29,2.23,4.71,1.47a33.09,33.09,0,0,0,5.05,1.07c3.75.47,8.28-1.39,12.13-1.7l.55.05,2.6.16c5,.31,4.92-1.85,5.49-6.58S852,811.17,846.89,810.32Z"/><path class="cls-7" d="M860.91,867.69q-.06-7.11-.48-14.21a5.05,5.05,0,0,0-8.74-3.47,3.57,3.57,0,0,0-.74.41c-1.94,1.33-3.28,1.33-5.53.8a68.62,68.62,0,0,1-7.84-2.85c-4.65-1.68-10-1.5-14.82-.89-5.49.68-10.87,1.89-16.27,3.1-2.14.48-4.39,1-6.52,1.3a28.42,28.42,0,0,1-4,.2c-.68,0-1.36,0-2-.08l-.85-.07a2.66,2.66,0,0,1-.6-.07c-6.19-.87-12.12-3-18.32-3.85a5.47,5.47,0,0,0-5.51,2.06l-32.26,1.87-.29,0a8.13,8.13,0,0,0-5.16.71,4.77,4.77,0,0,0-5.52,2.05,4.46,4.46,0,0,0-3-2.39,132.39,132.39,0,0,0-45.34-2c-2,.27-11.36,1-12.19,3.12-.2.49,7.24-2.79,7.19-2.28-1.84.34-10.84,5.45-11.5,7.36A53,53,0,0,0,658,870.16c-.36,3.36-.86,7.69.8,10.77a7,7,0,0,0,1.1,1.52l0,4.07a5.16,5.16,0,0,0,.27,1.56,4.75,4.75,0,0,0-.2,1.38c0,2.19,9.13,4.36,11.28,4.89a18.87,18.87,0,0,0,8.71.09l.09.06c6.38,3.48,12.38-1.86,13.68-8l.33-.32c.93-.93,1.83-1.91,2.7-2.91,1.7,0,3.68-.83,4.37-2.46a9.94,9.94,0,0,1,1.8-2.92l.26,0,10.16.73c2.35.23,4.71,3.43,7.07,3.54,1.75.08,3.33-3.95,4.24-5.38a49,49,0,0,0,2.39,12.34,5.19,5.19,0,0,0,4.89,3.72l7.1-.18a59.52,59.52,0,0,0,7.19,2.06A29.29,29.29,0,0,0,756.41,893c.91,0,1.83-.05,2.76,0a4.37,4.37,0,0,0,2.11-.46q19.71.11,39.41,1.14a5.12,5.12,0,0,0,5.07-5.07,4.79,4.79,0,0,0-.35-1.84c5-2.65,10.33-8,15.84-8.36a21.41,21.41,0,0,1,4.16.08c-.06,0,1,.2,1.22.24.79.17,1.55,3.13,2.32,3.36l.5.17.74.36a17.78,17.78,0,0,1,1.59.92l.55.38c.15.14.45.39.49.42.26.24.51.48.75.73a6.29,6.29,0,0,0,.5.54c1.89,2.5,2.72,5.54,5.21,7.63a11.48,11.48,0,0,0,10.29,2.27c3.35-.81,9.8-.34,11.62-2.79,1.87-.75-1-5-.72-7.06.19-1.59.33-3.17.43-4.76.07-.58.14-1.15.18-1.72A104.2,104.2,0,0,0,860.91,867.69Z"/><path class="cls-6" d="M835.86,886.25c-3.16-6.1-7.63-10.14-14.52-7.93a14.64,14.64,0,0,0-2.27.94,14.4,14.4,0,0,0-7.9,2.45c-9.57,6.27-8.87,19.41,1.1,25.49,4.28,2.61,8.28,5.2,12.74,4l.56,0c5.59,0,8-3.46,10.48-8.34A18.66,18.66,0,0,0,835.86,886.25Z"/><path class="cls-6" d="M705.56,876.52a14.08,14.08,0,0,0-9.31,8.65c-3.28,3.89-1.68,9.24-.13,14.4a23.14,23.14,0,0,0,5.35,8.91c6.77,6,16.29,5.48,21.61-2.15,4.82-4.63,6-12.27,2.89-18.82C722.36,879.81,714.19,874,705.56,876.52Z"/><path class="cls-5" d="M667.5,521.3h-1.62c-152.74,0-276.56,123.82-276.56,276.56s123.82,276.56,276.56,276.56h.24c152.14,0,276.59-123.52,276.77-274.78C943.08,645.94,819.87,521.41,667.5,521.3ZM886.32,646a264.53,264.53,0,0,1,34.24,69.29c-2.59.15-4.49.33-6.36.33q-89.38,0-178.77,0a8.9,8.9,0,0,1-8.32-11.82c.52-1.47,2.91-2.61,4.68-3.26q35.36-13.07,70.79-25.91c25.88-9.43,51.8-18.77,77.62-28.36C882.75,645.38,884.64,645.17,886.32,646Zm-54.58-58.21a271.4,271.4,0,0,1,47.72,48.75c.08.19.16.38.27.6-1.84.88-3.4,1.8-5.07,2.41-48.63,17.68-97.33,35.18-145.85,53.13-6.51,2.41-6.89-2.2-9.33-5.3-2.86-3.63-1.3-5.69,1.7-8.2q53.12-44.44,106.08-89.08C828.73,588.9,830.06,587.7,831.74,587.83ZM714.27,715.67h-48c-16,0-32-.12-48,.08-4.59,0-5.72-1.43-5-5.93,3.8-24.56,27.81-44.54,53.56-44.3s49.21,20.63,52.63,45.39C720.09,715.72,717.48,715.68,714.27,715.67ZM769.4,551q5.21,2.17,10.31,4.58,18.63,10.66,37.24,21.38c2.1,1.44,4.17,2.91,6.23,4.41.17.24.37.52.61.82-11,9.3-21.68,18.3-32.36,27.26Q753.75,641,716.06,672.55c-3.84,3.22-12.83.24-13.87-4.76-.25-1.22.62-2.83,1.33-4.06Q735,609,766.56,554.34C767.36,552.94,768.16,551.47,769.4,551ZM705,533.08q6,.87,11.87,2,16.45,4.27,32.91,8.51c3.17,1,6.32,2.16,9.45,3.32.9,1.14.64,2.73-.7,5Q727.17,605.8,696.11,659.8c-1.56,2.7-3.31,4.19-6.19,2.35s-8.43-.54-8.35-5.31c3.43-19.44,6.68-37.77,9.89-56.1,3.67-20.9,7.39-41.79,10.89-62.72C702.77,535.51,703.47,533.79,705,533.08Zm-66.07-1.48q13.36-1.33,27-1.34a272.08,272.08,0,0,1,27.91,1.44c.87,1,1.12,2.54.65,5.09-7,38.58-13.78,77.22-20.45,115.87-.7,4.07-2.53,5.36-6.36,4.89s-7.91,1.65-9-5c-6.57-38.67-13.54-77.26-20.55-115.85C637.61,534.22,637.88,532.61,638.89,531.6ZM627.05,533c1.66.58,2.58,2.18,3.06,5,4.72,27.71,9.69,55.38,14.57,83.07,1.94,11,3.81,22,5.8,33,.56,3,.73,5.83-3.17,6.32-3.63.45-7.34,5.66-10.95-.64Q604.93,605,573.24,550.42a23.31,23.31,0,0,1-1.24-3.29A265.78,265.78,0,0,1,627.05,533Zm-99.83,35.83c8.07-4.5,16.25-8.81,24.41-13.15q5.29-2.51,10.7-4.76c1.27.18,2.33,1.09,3.34,2.86q31.7,55.21,63.59,110.32c1.48,2.55,1.36,4.27-1,6.17-9,7.05-6.11,6.92-13.87.43q-51-42.6-101.89-85.38l-4.39-3.67Q517.39,574.85,527.22,568.87Zm-72,63.93c1.26-1.61,2.54-3.2,3.85-4.79.35-.39.69-.8,1.06-1.17,11.81-12,23.8-23.75,35.7-35.63,1.23-1,2.47-2,3.7-3,1.72-.67,3.39-.12,5.36,1.54q53.36,45,106.87,89.83c2.64,2.22,4.18,4.26,1.48,7.35-2.45,2.8-2.25,8.39-9.09,5.87-49.06-18.1-98.26-35.8-147.41-53.65-1.19-.44-2.29-1.11-4.63-2.27C453.22,635.47,454.22,634.11,455.21,632.8ZM417,699.29c.27-.58.5-1.19.8-1.76,8.28-16.23,17-32.24,25.53-48.35.58-.86,1.18-1.71,1.77-2.57,1.49-1.45,3.36-1.65,6.16-.63q74.16,27.21,148.42,54.11c6,2.19,7.91,8.65,4.15,14a5,5,0,0,1-2.76,1.46,14.26,14.26,0,0,1-3.34.12H418.41c-2,0-3.93-.22-7.19-.42Q413.83,707.17,417,699.29ZM399.66,823.76c-.44-4-.63-8-.86-12,23.76,0,88.8,0,109.27,0,3,0,6-.13,8.94.06,6.75.43,10.26,3,10.33,7.78.08,5.36-3.07,8.07-8,9.12-2.91.62-5.8,1.35-8.7,2-10.89,2.49-21.85,4.67-32.63,7.57-9.75,2.62-15.05,10.57-14.28,20s7.75,16.32,17.46,17.27c3,.29,6,.14,9,.14H655.55c-.06,5.35.13,10.7.05,16-.07,4.57,1,5.59,5.59,5.63,6.47.05,20.49.15,26.95,0,2.65,0,4.23.58,5.33,3.39a18.23,18.23,0,0,0,8,9.54H423.21Q404.88,870.73,399.66,823.76Zm436.44-10.2A21.84,21.84,0,0,1,851,818.84c1.05.91,2.37,1.73,2.49,3.34a1.67,1.67,0,0,1-1.38.76l-158.4,0a2.15,2.15,0,0,1-1.89-.92c1-2.77,3-5.05,4.74-7.45a2.57,2.57,0,0,1,2.09-1c1,0,2.11-.06,3.16-.06Q769,813.59,836.1,813.56ZM732,804.29c0-1.44,0-2.89,0-4.34a2.05,2.05,0,0,1,2.18-2.26c1.06,0,2.11-.07,3.17-.07l61.69,0c5.14,0,5.33.23,5.14,5.36-.12,3.33-.33,3.64-3.65,3.65-10.81.05-23.32,0-34.13,0H737.66c-1.06,0-2.11,0-3.17,0C732.92,806.65,732,806,732,804.29Zm-33.25,89.52a12.47,12.47,0,0,1,12.17-12.14,12.05,12.05,0,0,1,12.45,12.09,12.44,12.44,0,0,1-12.23,12.48A12.69,12.69,0,0,1,698.75,893.81Zm30,7c1.12-2.81,2.67-3.41,5.33-3.4,13.07.08,26.14,0,39.21,0,8.45,0,16.9.07,25.35,0,2.69,0,4.4.53,5.26,3.45a15.81,15.81,0,0,0,5.74,7.89,19.07,19.07,0,0,0,2.39,1.59H720.86A18.33,18.33,0,0,0,728.74,900.84Zm92.79,5.38a12.34,12.34,0,0,1-12.19-12,12,12,0,0,1,12-12.51,12.38,12.38,0,0,1,12.54,12.12A12.6,12.6,0,0,1,821.53,906.22Zm5.68-30.52a19,19,0,0,0-23.07,10.43c-.43,1-.76,2-1.14,3a2.18,2.18,0,0,1-2.11,1.51c-1,0-2.11.07-3.16.07H735.54c-5.38,0-5.39,0-5.39-5.52q0-13.67,0-27.33c0-5.16,0-5.19,5.37-5.19q29.51,0,59,0h58.22c5.9,0,5.91,0,5.92,5.94q0,13.47,0,26.93c0,5.17,0,5.17-5.35,5.18-3.17,0-6.34-.1-9.5,0-2.33.1-3.54-.77-4.32-3A18.31,18.31,0,0,0,827.21,875.7Zm-97.06-41.38c0-4.68.08-4.73,5-4.76,4,0,7.9,0,11.85,0,9.08,0,18.17,0,27.26,0,4.23,0,4.4.22,4.45,4.49q0,3.75,0,7.51c0,4.4-.19,4.56-4.78,4.58-6.45,0-12.91,0-19.36,0-6.71,0-13.43,0-20.15,0-4,0-4.19-.26-4.24-4.3C730.12,839.33,730.13,836.83,730.15,834.32Zm55.06-.93c.11-3.44.44-3.79,4-3.81,7.65-.06,15.3,0,23,0,5.93,0,11.87,0,17.81,0,3.54,0,3.89.38,4,3.83.08,3,.09,6.07,0,9.1s-.52,3.58-3.81,3.61c-7,.07-14,0-21,0-6.6,0-13.2,0-19.79,0-3.77,0-4.11-.38-4.2-4C785.13,839.19,785.12,836.29,785.21,833.39Zm73.37,10.36c0,1.62-1.1,2.31-2.61,2.33-2.24,0-4.47,0-6.71,0v0h-5.92c-1.71,0-2.78-.71-2.79-2.55q0-5.73,0-11.45c0-1.85,1.1-2.53,2.8-2.53,3.95,0,7.9,0,11.85,0a2.83,2.83,0,0,1,3.17,2.75A68.18,68.18,0,0,1,858.58,843.75ZM720,829.6c2.87,0,3.2.4,3.28,3.21.09,3.29.08,6.59,0,9.87-.07,3-.4,3.4-3.48,3.43-6.72.08-13.43,0-20.14,0H681.1a25.46,25.46,0,0,1-2.76-.1c-1.31-.14-2-.84-1.32-2.15a79.14,79.14,0,0,1,8.53-13.25c.8-1.06,2.06-1.07,3.25-1.08C699.2,829.57,709.6,829.53,720,829.6Zm-43.06,23h21.37c7,0,14,0,21,0,1.38,0,4.07-.49,4.07,1.38,0,6.72-.21,13.28,0,19.74,0,1.23,0,3.24-.57,3.81-1.41,1.42-3.27-1-4.92-1.57a18.72,18.72,0,0,0-24.18,10.58c-1.31,3.39-3,4.32-6.39,4.15-4.74-.25-17-.16-21.8-.14-1.84,0-3.08-.55-3-2.66.17-10.62-.13-20.76,2-31C665.14,853.53,671.4,852.63,676.94,852.63ZM813.77,1021q-10.83,7.21-22.27,13.31c-32,17-68.54,26.43-104.57,29.1a279.67,279.67,0,0,1-108.16-13.11A253.8,253.8,0,0,1,512.3,1017H814.5C816.86,1017,820.74,1016.71,813.77,1021Zm51.81-45A304.21,304.21,0,0,1,831,1008.42H501.47a295.15,295.15,0,0,1-40.22-38.85H871.06C869.25,971.72,867.46,973.88,865.58,976ZM878,961H454.2a256.71,256.71,0,0,1-26.78-42H904.57A265.28,265.28,0,0,1,878,961Zm30.76-50.59H830.94a18.9,18.9,0,0,0,8.09-9.22c1.15-2.77,2.52-3.86,5.5-3.73,5.14.21,10.3.1,15.44,0,4.22-.06,5.17-1,5.17-5.17q0-8.28,0-16.56h7.35c10.08,0,35.46-.08,49.46,0A263.5,263.5,0,0,1,908.75,910.37Zm10.81-45.47H865.15l0-31.24a22.88,22.88,0,0,0-2.06-9.61c-5-11-13.77-16.78-25.79-17.25-7.91-.3-14.15,0-22.07-.09-4,0-4.16-.22-4.2-4.32,0-.27,0-.53,0-.79.08-3.64.25-3.77,3.77-4,6.07-.38,12.14.41,18.21.43,1.19,0,2.38,0,3.57-.07,1.42-.08,2-.9,2.21-2.29.38-3.14-.31-3.26-3.54-3.36-1.06,0-2.11,0-3.17,0l-3.33-.05c-.72-1.37-2-5.13,3.65-8.25,3.52-1.94,2.68-5.1-3.19-4.24-7.22,1.07-11.57,9.6-12.75,12.23-10.12-.22-21.36-.49-21.36-.49-20.73-.06-41.45,0-62.18,0-10.7,0-5.54,0-16.24.07-3.16,0-22.59.33-22.34,3.37.19,2.21.59,2.63,3.47,2.66,6.6.08,16.23-.4,22.83-.35,4.28,0,4.46.26,4.49,4.48,0,.39,0,.79,0,1.19-.11,3.51-.29,3.73-3.93,3.77-4.36,0-10.41,0-14.77,0-3.83,0-8.66-.16-12.38.59-3.92.79-7.47,8.33-9.43,11.44-3.07,4.85-6,9.78-9.2,14.54-2.77,4.12-5.92,12.85-11.21,14.77-7.35,2.68-7.2,10-8,16.4,0,.15,0,.29,0,.43H491.28c-3.35,0-6.72.09-10-.22-4.36-.4-6.56-3.4-7-7.41a7.3,7.3,0,0,1,4.87-8,66.49,66.49,0,0,1,9.66-2.71c11.6-2.71,23.29-5.05,34.79-8.11,9.74-2.6,15.53-10.94,14.69-19.8a18.74,18.74,0,0,0-18.67-17.32c-24.41-.29-91.4-.15-121.25-.1a16.57,16.57,0,0,1,0-3.59q0-6.06.28-12.08l0-.09c0-.08,0-.16,0-.25.08-1.71.2-3.41.33-5.11l-.06,0a268.57,268.57,0,0,1,6.29-42.9,2.35,2.35,0,0,1,.25-.19c.67-2.84,1.34-5.67,1.92-8.52.69-3.35,2.55-4.74,5.87-4.56,1.67.09,3.35,0,5,0h496.3c5.29,0,7.66,0,9.1,1.56A269.86,269.86,0,0,1,925,864.92C923.18,864.93,921.36,864.9,919.56,864.9Z"/><path class="cls-5" d="M811.78,784.31c-.82,0-1.63,0-2.45,0l-3.14,0c-.47-.93-1.13-3.27,2.39-5.22,2.26-1.25,1.73-3.28-2.05-2.73-4.58.68-7.36,6-8.17,7.79l-6.82-.15c-.41-1.08-.64-3.15,2.53-4.91,2.26-1.25,1.73-3.28-2.05-2.73-4.33.64-7,5.44-8,7.47l-3.22-.08c-3.92-.09-64.39-1.45-64,2.66.14,1.7.45,2,2.67,2,9.37.11,18.75-.5,28.12-.52,20.64,0,41.73.78,62.53.85.92,0,1.84,0,2.75-.06,1.1-.06,1.58-.69,1.71-1.77C814.8,784.49,814.27,784.4,811.78,784.31Z"/><path class="cls-5" d="M711.15,898.81a5,5,0,0,0,4.83-4.75,4.71,4.71,0,0,0-4.88-5,4.88,4.88,0,0,0-4.88,4.66A5,5,0,0,0,711.15,898.81Z"/><path class="cls-5" d="M821.69,889.06a4.62,4.62,0,0,0-4.94,4.55,4.84,4.84,0,0,0,4.78,5.2,4.74,4.74,0,0,0,4.73-4.83A4.62,4.62,0,0,0,821.69,889.06Z"/></svg>